<svg xmlns="http://www.w3.org/2000/svg" height="333" width="234"><defs><filter height="1" width="1" y="0" x="0" id="prefix__q" color-interpolation-filters="sRGB"><feColorMatrix result="fbSourceGraphic" values="1" type="saturate"/><feColorMatrix values="-1 0 0 0 1 0 -1 0 0 1 0 0 -1 0 1 0 0 0 1 0" in="fbSourceGraphic"/></filter><filter height="1" width="1" y="0" x="0" id="prefix__p" color-interpolation-filters="sRGB"><feColorMatrix result="fbSourceGraphic" values="1" type="saturate"/><feColorMatrix values="-1 0 0 0 1 0 -1 0 0 1 0 0 -1 0 1 0 0 0 1 0" in="fbSourceGraphic"/></filter><filter height="1" width="1" y="0" x="0" id="prefix__o" color-interpolation-filters="sRGB"><feColorMatrix result="fbSourceGraphic" values="1" type="saturate"/><feColorMatrix values="-1 0 0 0 1 0 -1 0 0 1 0 0 -1 0 1 0 0 0 1 0" in="fbSourceGraphic"/></filter><filter height="1" width="1" y="0" x="0" id="prefix__n" color-interpolation-filters="sRGB"><feColorMatrix result="fbSourceGraphic" values="1" type="saturate"/><feColorMatrix values="-1 0 0 0 1 0 -1 0 0 1 0 0 -1 0 1 0 0 0 1 0" in="fbSourceGraphic"/></filter><filter height="1" width="1" y="0" x="0" id="prefix__m" color-interpolation-filters="sRGB"><feColorMatrix result="fbSourceGraphic" values="1" type="saturate"/><feColorMatrix values="-1 0 0 0 1 0 -1 0 0 1 0 0 -1 0 1 0 0 0 1 0" in="fbSourceGraphic"/></filter><filter height="1" width="1" y="0" x="0" id="prefix__l" color-interpolation-filters="sRGB"><feColorMatrix result="fbSourceGraphic" values="1" type="saturate"/><feColorMatrix values="-1 0 0 0 1 0 -1 0 0 1 0 0 -1 0 1 0 0 0 1 0" in="fbSourceGraphic"/></filter><filter height="1" width="1" y="0" x="0" id="prefix__k" color-interpolation-filters="sRGB"><feColorMatrix result="fbSourceGraphic" values="1" type="saturate"/><feColorMatrix values="-1 0 0 0 1 0 -1 0 0 1 0 0 -1 0 1 0 0 0 1 0" in="fbSourceGraphic"/></filter><filter height="1" width="1" y="0" x="0" id="prefix__j" color-interpolation-filters="sRGB"><feColorMatrix result="fbSourceGraphic" values="1" type="saturate"/><feColorMatrix values="-1 0 0 0 1 0 -1 0 0 1 0 0 -1 0 1 0 0 0 1 0" in="fbSourceGraphic"/></filter><filter height="1" width="1" y="0" x="0" id="prefix__i" color-interpolation-filters="sRGB"><feColorMatrix result="fbSourceGraphic" values="1" type="saturate"/><feColorMatrix values="-1 0 0 0 1 0 -1 0 0 1 0 0 -1 0 1 0 0 0 1 0" in="fbSourceGraphic"/></filter><filter height="1" width="1" y="0" x="0" id="prefix__h" color-interpolation-filters="sRGB"><feColorMatrix result="fbSourceGraphic" values="1" type="saturate"/><feColorMatrix values="-1 0 0 0 1 0 -1 0 0 1 0 0 -1 0 1 0 0 0 1 0" in="fbSourceGraphic"/></filter><filter height="1" width="1" y="0" x="0" id="prefix__g" color-interpolation-filters="sRGB"><feColorMatrix result="fbSourceGraphic" values="1" type="saturate"/><feColorMatrix values="-1 0 0 0 1 0 -1 0 0 1 0 0 -1 0 1 0 0 0 1 0" in="fbSourceGraphic"/></filter><filter height="1" width="1" y="0" x="0" id="prefix__f" color-interpolation-filters="sRGB"><feColorMatrix result="fbSourceGraphic" values="1" type="saturate"/><feColorMatrix values="-1 0 0 0 1 0 -1 0 0 1 0 0 -1 0 1 0 0 0 1 0" in="fbSourceGraphic"/></filter><filter height="1" width="1" y="0" x="0" id="prefix__d" color-interpolation-filters="sRGB"><feColorMatrix result="fbSourceGraphic" values="1" type="saturate"/><feColorMatrix values="-1 0 0 0 1 0 -1 0 0 1 0 0 -1 0 1 0 0 0 1 0" in="fbSourceGraphic"/></filter><filter height="1" width="1" y="0" x="0" id="prefix__b" color-interpolation-filters="sRGB"><feColorMatrix result="fbSourceGraphic" values="1" type="saturate"/><feColorMatrix values="-1 0 0 0 1 0 -1 0 0 1 0 0 -1 0 1 0 0 0 1 0" in="fbSourceGraphic"/></filter><filter height="1" width="1" y="0" x="0" id="prefix__e" color-interpolation-filters="sRGB"><feColorMatrix result="fbSourceGraphic" values="1" type="saturate"/><feColorMatrix values="-1 0 0 0 1 0 -1 0 0 1 0 0 -1 0 1 0 0 0 1 0" in="fbSourceGraphic"/></filter><filter height="1" width="1" y="0" x="0" id="prefix__c" color-interpolation-filters="sRGB"><feColorMatrix result="fbSourceGraphic" values="1" type="saturate"/><feColorMatrix values="-1 0 0 0 1 0 -1 0 0 1 0 0 -1 0 1 0 0 0 1 0" in="fbSourceGraphic"/></filter><clipPath id="prefix__a" clipPathUnits="userSpaceOnUse"><rect rx="28.421" ry="28.413" y="-3.26" x="186.578" height="1055.244" width="743.244" fill="#fff" stroke="gray" stroke-width=".756"/></clipPath></defs><g transform="matrix(.31484 0 0 .31557 -58.741 1.029)" clip-path="url(#prefix__a)" stroke-width="3.173"><rect width="743.244" height="1055.244" x="179.407" y="-3.26" ry="28.413" rx="28.421" fill="#fff" stroke="gray" stroke-width="2.398"/><g stroke-width="3.21"><path d="M282.613-60.97c-52.246 0-94.656 41.098-95.21 92.015h190.444c-.554-50.917-42.988-92.015-95.234-92.015z" fill="#c59e42"/><path d="M282.614-51.769c-47.021 0-85.19 36.989-85.689 82.814h171.4c-.5-45.825-38.69-82.814-85.711-82.814z" fill="#e6e6e6"/><path d="M282.615-43.487c-42.32 0-76.67 33.29-77.12 74.532h154.26c-.45-41.242-34.82-74.532-77.14-74.532z" fill="#c6a148"/><path d="M282.616-36.034c-38.087 0-69.004 29.96-69.408 67.08h138.834c-.404-37.12-31.339-67.08-69.426-67.08z" fill="#e6e6e6"/><path d="M282.617-29.326c-34.279 0-62.103 26.965-62.467 60.371H345.1c-.364-33.406-28.205-60.371-62.483-60.371z" fill="#c59e42"/><path d="M282.618-18.46c-28.108 0-50.924 22.112-51.223 49.505h102.46c-.299-27.393-23.128-49.504-51.237-49.504z" fill="#e6e6e6"/><path d="M282.62-7.568c-21.925 0-39.722 17.246-39.954 38.613h79.918c-.233-21.367-18.04-38.613-39.964-38.613z" fill="#c59e42"/><path d="M282.621 2.085c-16.443 0-29.79 12.935-29.965 28.96h59.938c-.174-16.025-13.53-28.96-29.973-28.96z" fill="#e6e6e6"/></g><g transform="matrix(.78463 0 0 .8478 112.884 -377.447)" stroke-width="3.21" filter="url(#prefix__b)"><path d="M400.656 355.781c-66.587 0-120.637 53.612-121.344 120.031h242.72c-.707-66.42-54.789-120.03-121.376-120.03z" fill="#c59e42"/><path d="M400.658 367.784c-59.928 0-108.574 48.25-109.21 108.029h218.447c-.636-59.778-49.309-108.029-109.237-108.029z" fill="#e6e6e6"/><path d="M400.66 378.587c-53.936 0-97.717 43.426-98.29 97.226h196.603c-.572-53.8-44.378-97.226-98.314-97.226z" fill="#c6a148"/><path d="M400.66 388.31c-48.541 0-87.944 39.083-88.46 87.502h176.943c-.515-48.42-39.94-87.502-88.483-87.502z" fill="#e6e6e6"/><path d="M400.662 397.06c-43.688 0-79.15 35.175-79.614 78.752h159.248c-.464-43.577-35.947-78.752-79.634-78.752z" fill="#c59e42"/><path d="M400.663 411.235c-35.823 0-64.903 28.844-65.283 64.578h130.583c-.38-35.734-29.476-64.578-65.3-64.578z" fill="#e6e6e6"/><path d="M400.665 425.442c-27.942 0-50.624 22.498-50.92 50.37h101.854c-.296-27.872-22.991-50.37-50.934-50.37z" fill="#c59e42"/><path d="M400.667 438.035c-20.957 0-37.968 16.873-38.19 37.777h76.39c-.222-20.904-17.243-37.777-38.2-37.777z" fill="#e6e6e6"/></g><g stroke-width="3.21"><path d="M351.306-3.638c-52.246 0-94.655 45.452-95.21 101.762H446.54c-.554-56.31-42.988-101.762-95.234-101.762z" fill="#c59e42"/><path d="M351.307 6.538c-47.021 0-85.19 40.907-85.689 91.586h171.4c-.499-50.68-38.69-91.586-85.71-91.586z" fill="#e6e6e6"/><path d="M351.308 15.697c-42.319 0-76.67 36.816-77.12 82.427h154.26c-.45-45.611-34.82-82.427-77.14-82.427z" fill="#c6a148"/><path d="M351.31 23.94c-38.088 0-69.005 33.134-69.409 74.184h138.834c-.404-41.05-31.338-74.184-69.426-74.184z" fill="#e6e6e6"/><path d="M351.31 31.358c-34.278 0-62.103 29.82-62.467 66.766h124.95c-.363-36.945-28.204-66.766-62.483-66.766z" fill="#c59e42"/><path d="M351.312 43.376c-28.109 0-50.925 24.453-51.223 54.748h102.459c-.298-30.295-23.128-54.748-51.236-54.748z" fill="#e6e6e6"/><path d="M351.313 55.42c-21.925 0-39.721 19.074-39.954 42.704h79.918c-.232-23.63-18.04-42.704-39.964-42.704z" fill="#c59e42"/><path d="M351.314 66.096c-16.443 0-29.79 14.305-29.965 32.028h59.939c-.175-17.723-13.53-32.028-29.974-32.028z" fill="#e6e6e6"/></g><g transform="matrix(.78463 0 0 .8478 495.259 -367.472)" stroke-width="3.21" filter="url(#prefix__c)"><path d="M400.656 355.781c-66.587 0-120.637 53.612-121.344 120.031h242.72c-.707-66.42-54.789-120.03-121.376-120.03z" fill="#c59e42"/><path d="M400.658 367.784c-59.928 0-108.574 48.25-109.21 108.029h218.447c-.636-59.778-49.309-108.029-109.237-108.029z" fill="#e6e6e6"/><path d="M400.66 378.587c-53.936 0-97.717 43.426-98.29 97.226h196.603c-.572-53.8-44.378-97.226-98.314-97.226z" fill="#c6a148"/><path d="M400.66 388.31c-48.541 0-87.944 39.083-88.46 87.502h176.943c-.515-48.42-39.94-87.502-88.483-87.502z" fill="#e6e6e6"/><path d="M400.662 397.06c-43.688 0-79.15 35.175-79.614 78.752h159.248c-.464-43.577-35.947-78.752-79.634-78.752z" fill="#c59e42"/><path d="M400.663 411.235c-35.823 0-64.903 28.844-65.283 64.578h130.583c-.38-35.734-29.476-64.578-65.3-64.578z" fill="#e6e6e6"/><path d="M400.665 425.442c-27.942 0-50.624 22.498-50.92 50.37h101.854c-.296-27.872-22.991-50.37-50.934-50.37z" fill="#c59e42"/><path d="M400.667 438.035c-20.957 0-37.968 16.873-38.19 37.777h76.39c-.222-20.904-17.243-37.777-38.2-37.777z" fill="#e6e6e6"/></g><g transform="matrix(.78463 0 0 .8478 357.271 -365.81)" stroke-width="3.21" filter="url(#prefix__d)"><path d="M400.656 355.781c-66.587 0-120.637 53.612-121.344 120.031h242.72c-.707-66.42-54.789-120.03-121.376-120.03z" fill="#c59e42"/><path d="M400.658 367.784c-59.928 0-108.574 48.25-109.21 108.029h218.447c-.636-59.778-49.309-108.029-109.237-108.029z" fill="#e6e6e6"/><path d="M400.66 378.587c-53.936 0-97.717 43.426-98.29 97.226h196.603c-.572-53.8-44.378-97.226-98.314-97.226z" fill="#c6a148"/><path d="M400.66 388.31c-48.541 0-87.944 39.083-88.46 87.502h176.943c-.515-48.42-39.94-87.502-88.483-87.502z" fill="#e6e6e6"/><path d="M400.662 397.06c-43.688 0-79.15 35.175-79.614 78.752h159.248c-.464-43.577-35.947-78.752-79.634-78.752z" fill="#c59e42"/><path d="M400.663 411.235c-35.823 0-64.903 28.844-65.283 64.578h130.583c-.38-35.734-29.476-64.578-65.3-64.578z" fill="#e6e6e6"/><path d="M400.665 425.442c-27.942 0-50.624 22.498-50.92 50.37h101.854c-.296-27.872-22.991-50.37-50.934-50.37z" fill="#c59e42"/><path d="M400.667 438.035c-20.957 0-37.968 16.873-38.19 37.777h76.39c-.222-20.904-17.243-37.777-38.2-37.777z" fill="#e6e6e6"/></g><g transform="matrix(.78463 0 0 .8478 232.584 -379.11)" stroke-width="3.21" filter="url(#prefix__e)"><path d="M400.656 355.781c-66.587 0-120.637 53.612-121.344 120.031h242.72c-.707-66.42-54.789-120.03-121.376-120.03z" fill="#c59e42"/><path d="M400.658 367.784c-59.928 0-108.574 48.25-109.21 108.029h218.447c-.636-59.778-49.309-108.029-109.237-108.029z" fill="#e6e6e6"/><path d="M400.66 378.587c-53.936 0-97.717 43.426-98.29 97.226h196.603c-.572-53.8-44.378-97.226-98.314-97.226z" fill="#c6a148"/><path d="M400.66 388.31c-48.541 0-87.944 39.083-88.46 87.502h176.943c-.515-48.42-39.94-87.502-88.483-87.502z" fill="#e6e6e6"/><path d="M400.662 397.06c-43.688 0-79.15 35.175-79.614 78.752h159.248c-.464-43.577-35.947-78.752-79.634-78.752z" fill="#c59e42"/><path d="M400.663 411.235c-35.823 0-64.903 28.844-65.283 64.578h130.583c-.38-35.734-29.476-64.578-65.3-64.578z" fill="#e6e6e6"/><path d="M400.665 425.442c-27.942 0-50.624 22.498-50.92 50.37h101.854c-.296-27.872-22.991-50.37-50.934-50.37z" fill="#c59e42"/><path d="M400.667 438.035c-20.957 0-37.968 16.873-38.19 37.777h76.39c-.222-20.904-17.243-37.777-38.2-37.777z" fill="#e6e6e6"/></g><g transform="matrix(.78463 0 0 .8478 297.63 -305.266)" stroke-width="3.21" filter="url(#prefix__f)"><path d="M400.656 355.781c-66.587 0-120.637 53.612-121.344 120.031h242.72c-.707-66.42-54.789-120.03-121.376-120.03z" fill="#c59e42"/><path d="M400.658 367.784c-59.928 0-108.574 48.25-109.21 108.029h218.447c-.636-59.778-49.309-108.029-109.237-108.029z" fill="#e6e6e6"/><path d="M400.66 378.587c-53.936 0-97.717 43.426-98.29 97.226h196.603c-.572-53.8-44.378-97.226-98.314-97.226z" fill="#c6a148"/><path d="M400.66 388.31c-48.541 0-87.944 39.083-88.46 87.502h176.943c-.515-48.42-39.94-87.502-88.483-87.502z" fill="#e6e6e6"/><path d="M400.662 397.06c-43.688 0-79.15 35.175-79.614 78.752h159.248c-.464-43.577-35.947-78.752-79.634-78.752z" fill="#c59e42"/><path d="M400.663 411.235c-35.823 0-64.903 28.844-65.283 64.578h130.583c-.38-35.734-29.476-64.578-65.3-64.578z" fill="#e6e6e6"/><path d="M400.665 425.442c-27.942 0-50.624 22.498-50.92 50.37h101.854c-.296-27.872-22.991-50.37-50.934-50.37z" fill="#c59e42"/><path d="M400.667 438.035c-20.957 0-37.968 16.873-38.19 37.777h76.39c-.222-20.904-17.243-37.777-38.2-37.777z" fill="#e6e6e6"/></g><g transform="matrix(.78463 0 0 .8478 167.285 -305.266)" stroke-width="3.21" filter="url(#prefix__g)"><path d="M400.656 355.781c-66.587 0-120.637 53.612-121.344 120.031h242.72c-.707-66.42-54.789-120.03-121.376-120.03z" fill="#c59e42"/><path d="M400.658 367.784c-59.928 0-108.574 48.25-109.21 108.029h218.447c-.636-59.778-49.309-108.029-109.237-108.029z" fill="#e6e6e6"/><path d="M400.66 378.587c-53.936 0-97.717 43.426-98.29 97.226h196.603c-.572-53.8-44.378-97.226-98.314-97.226z" fill="#c6a148"/><path d="M400.66 388.31c-48.541 0-87.944 39.083-88.46 87.502h176.943c-.515-48.42-39.94-87.502-88.483-87.502z" fill="#e6e6e6"/><path d="M400.662 397.06c-43.688 0-79.15 35.175-79.614 78.752h159.248c-.464-43.577-35.947-78.752-79.634-78.752z" fill="#c59e42"/><path d="M400.663 411.235c-35.823 0-64.903 28.844-65.283 64.578h130.583c-.38-35.734-29.476-64.578-65.3-64.578z" fill="#e6e6e6"/><path d="M400.665 425.442c-27.942 0-50.624 22.498-50.92 50.37h101.854c-.296-27.872-22.991-50.37-50.934-50.37z" fill="#c59e42"/><path d="M400.667 438.035c-20.957 0-37.968 16.873-38.19 37.777h76.39c-.222-20.904-17.243-37.777-38.2-37.777z" fill="#e6e6e6"/></g><g stroke-width="3.21"><path d="M942.625-37.695c-52.246 0-94.655 41.098-95.21 92.015h190.444c-.554-50.917-42.988-92.015-95.234-92.015z" fill="#c59e42"/><path d="M942.626-28.494c-47.021 0-85.19 36.989-85.689 82.814h171.4c-.499-45.825-38.69-82.814-85.71-82.814z" fill="#e6e6e6"/><path d="M942.627-20.212c-42.319 0-76.67 33.29-77.12 74.532h154.26c-.449-41.243-34.82-74.532-77.14-74.532z" fill="#c6a148"/><path d="M942.628-12.76c-38.087 0-69.003 29.962-69.408 67.08h138.834c-.404-37.118-31.338-67.08-69.426-67.08z" fill="#e6e6e6"/><path d="M942.63-6.051c-34.28 0-62.104 26.965-62.468 60.371h124.95C1004.75 20.914 976.908-6.05 942.63-6.05z" fill="#c59e42"/><path d="M942.63 4.816c-28.108 0-50.924 22.11-51.222 49.504h102.459c-.298-27.393-23.128-49.504-51.236-49.504z" fill="#e6e6e6"/><path d="M942.632 15.707c-21.924 0-39.721 17.246-39.954 38.613h79.918c-.232-21.367-18.04-38.613-39.964-38.613z" fill="#c59e42"/><path d="M942.633 25.36c-16.443 0-29.79 12.935-29.965 28.96h59.939c-.175-16.025-13.53-28.96-29.974-28.96z" fill="#e6e6e6"/></g><g stroke-width="3.21"><path d="M870.939-3.638c-52.246 0-94.656 45.452-95.21 101.762h190.444c-.555-56.31-42.989-101.762-95.234-101.762z" fill="#c59e42"/><path d="M870.94 6.538c-47.022 0-85.19 40.907-85.689 91.586h171.4c-.5-50.68-38.69-91.586-85.711-91.586z" fill="#e6e6e6"/><path d="M870.94 15.697c-42.318 0-76.67 36.816-77.119 82.427h154.26c-.45-45.611-34.82-82.427-77.14-82.427z" fill="#c6a148"/><path d="M870.942 23.94c-38.087 0-69.004 33.134-69.408 74.184h138.834c-.405-41.05-31.339-74.184-69.426-74.184z" fill="#e6e6e6"/><path d="M870.943 31.358c-34.279 0-62.104 29.82-62.467 66.766h124.95c-.364-36.945-28.205-66.766-62.483-66.766z" fill="#c59e42"/><path d="M870.944 43.376c-28.108 0-50.925 24.453-51.223 54.748h102.46c-.299-30.295-23.128-54.748-51.237-54.748z" fill="#e6e6e6"/><path d="M870.946 55.42c-21.925 0-39.722 19.074-39.954 42.704h79.918c-.233-23.63-18.04-42.704-39.964-42.704z" fill="#c59e42"/><path d="M870.947 66.096c-16.443 0-29.791 14.305-29.966 32.028h59.94c-.175-17.723-13.53-32.028-29.974-32.028z" fill="#e6e6e6"/></g><g stroke-width="3.21"><path d="M742.343-3.638c-52.246 0-94.655 45.452-95.21 101.762h190.444c-.554-56.31-42.988-101.762-95.234-101.762z" fill="#c59e42"/><path d="M742.344 6.538c-47.021 0-85.19 40.907-85.689 91.586h171.4c-.499-50.68-38.69-91.586-85.71-91.586z" fill="#e6e6e6"/><path d="M742.345 15.697c-42.319 0-76.67 36.816-77.12 82.427h154.26c-.449-45.611-34.82-82.427-77.14-82.427z" fill="#c6a148"/><path d="M742.346 23.94c-38.087 0-69.003 33.134-69.408 74.184h138.834c-.404-41.05-31.338-74.184-69.426-74.184z" fill="#e6e6e6"/><path d="M742.347 31.358c-34.278 0-62.103 29.82-62.467 66.766h124.95c-.363-36.945-28.204-66.766-62.483-66.766z" fill="#c59e42"/><path d="M742.349 43.376c-28.109 0-50.925 24.453-51.223 54.748h102.459c-.298-30.295-23.128-54.748-51.236-54.748z" fill="#e6e6e6"/><path d="M742.35 55.42c-21.924 0-39.721 19.074-39.954 42.704h79.918c-.232-23.63-18.04-42.704-39.964-42.704z" fill="#c59e42"/><path d="M742.351 66.096c-16.443 0-29.79 14.305-29.965 32.028h59.939c-.175-17.723-13.53-32.028-29.974-32.028z" fill="#e6e6e6"/></g><g stroke-width="3.21"><path d="M219.306-3.638c-52.246 0-94.655 45.452-95.21 101.762H314.54c-.554-56.31-42.988-101.762-95.234-101.762z" fill="#c59e42"/><path d="M219.307 6.538c-47.021 0-85.19 40.907-85.689 91.586h171.4c-.499-50.68-38.69-91.586-85.71-91.586z" fill="#e6e6e6"/><path d="M219.308 15.697c-42.319 0-76.67 36.816-77.12 82.427h154.26c-.45-45.611-34.82-82.427-77.14-82.427z" fill="#c6a148"/><path d="M219.31 23.94c-38.088 0-69.004 33.134-69.409 74.184h138.834c-.404-41.05-31.338-74.184-69.426-74.184z" fill="#e6e6e6"/><path d="M219.31 31.358c-34.278 0-62.103 29.82-62.467 66.766h124.95c-.363-36.945-28.204-66.766-62.483-66.766z" fill="#c59e42"/><path d="M219.312 43.376c-28.109 0-50.925 24.453-51.223 54.748h102.459c-.298-30.295-23.128-54.748-51.236-54.748z" fill="#e6e6e6"/><path d="M219.313 55.42c-21.925 0-39.721 19.074-39.954 42.704h79.918c-.232-23.63-18.04-42.704-39.964-42.704z" fill="#c59e42"/><path d="M219.314 66.096c-16.443 0-29.79 14.305-29.965 32.028h59.939c-.175-17.723-13.53-32.028-29.974-32.028z" fill="#e6e6e6"/></g><g transform="matrix(.78463 0 0 .7666 60.94 -204.08)" stroke-width="3.21" filter="url(#prefix__h)"><path d="M400.656 355.781c-66.587 0-120.637 53.612-121.344 120.031h242.72c-.707-66.42-54.789-120.03-121.376-120.03z" fill="#c59e42"/><path d="M400.658 367.784c-59.928 0-108.574 48.25-109.21 108.029h218.447c-.636-59.778-49.309-108.029-109.237-108.029z" fill="#e6e6e6"/><path d="M400.66 378.587c-53.936 0-97.717 43.426-98.29 97.226h196.603c-.572-53.8-44.378-97.226-98.314-97.226z" fill="#c6a148"/><path d="M400.66 388.31c-48.541 0-87.944 39.083-88.46 87.502h176.943c-.515-48.42-39.94-87.502-88.483-87.502z" fill="#e6e6e6"/><path d="M400.662 397.06c-43.688 0-79.15 35.175-79.614 78.752h159.248c-.464-43.577-35.947-78.752-79.634-78.752z" fill="#c59e42"/><path d="M400.663 411.235c-35.823 0-64.903 28.844-65.283 64.578h130.583c-.38-35.734-29.476-64.578-65.3-64.578z" fill="#e6e6e6"/><path d="M400.665 425.442c-27.942 0-50.624 22.498-50.92 50.37h101.854c-.296-27.872-22.991-50.37-50.934-50.37z" fill="#c59e42"/><path d="M400.667 438.035c-20.957 0-37.968 16.873-38.19 37.777h76.39c-.222-20.904-17.243-37.777-38.2-37.777z" fill="#e6e6e6"/></g><g stroke-width="3.21"><path d="M635.997 68.662c-52.246 0-94.655 41.098-95.21 92.015h190.445c-.555-50.917-42.989-92.015-95.235-92.015z" fill="#c59e42"/><path d="M635.999 77.863c-47.022 0-85.19 36.989-85.69 82.814h171.4c-.499-45.825-38.69-82.814-85.71-82.814z" fill="#e6e6e6"/><path d="M636 86.145c-42.32 0-76.671 33.29-77.12 74.532h154.26c-.45-41.242-34.821-74.532-77.14-74.532z" fill="#c6a148"/><path d="M636 93.598c-38.087 0-69.003 29.96-69.407 67.08h138.833c-.404-37.12-31.338-67.08-69.425-67.08z" fill="#e6e6e6"/><path d="M636.002 100.306c-34.28 0-62.104 26.965-62.468 60.371h124.95c-.363-33.406-28.204-60.371-62.482-60.371z" fill="#c59e42"/><path d="M636.003 111.173c-28.108 0-50.925 22.11-51.223 49.504h102.46c-.3-27.393-23.129-49.504-51.237-49.504z" fill="#e6e6e6"/><path d="M636.004 122.064c-21.924 0-39.72 17.246-39.954 38.613h79.919c-.233-21.367-18.04-38.613-39.965-38.613z" fill="#c59e42"/><path d="M636.006 131.717c-16.444 0-29.791 12.935-29.966 28.96h59.939c-.175-16.025-13.53-28.96-29.973-28.96z" fill="#e6e6e6"/></g><g stroke-width="3.21"><path d="M505.652 68.662c-52.246 0-94.656 41.098-95.21 92.015h190.444c-.555-50.917-42.988-92.015-95.234-92.015z" fill="#c59e42"/><path d="M505.653 77.863c-47.022 0-85.19 36.989-85.689 82.814h171.4c-.5-45.825-38.69-82.814-85.711-82.814z" fill="#e6e6e6"/><path d="M505.654 86.145c-42.32 0-76.67 33.29-77.12 74.532h154.26c-.45-41.242-34.82-74.532-77.14-74.532z" fill="#c6a148"/><path d="M505.655 93.598c-38.087 0-69.004 29.96-69.408 67.08h138.834c-.404-37.12-31.339-67.08-69.426-67.08z" fill="#e6e6e6"/><path d="M505.656 100.306c-34.279 0-62.104 26.965-62.467 60.371h124.95c-.364-33.406-28.205-60.371-62.483-60.371z" fill="#c59e42"/><path d="M505.657 111.173c-28.108 0-50.924 22.11-51.223 49.504h102.46c-.299-27.393-23.128-49.504-51.237-49.504z" fill="#e6e6e6"/><path d="M505.659 122.064c-21.925 0-39.722 17.246-39.954 38.613h79.918c-.233-21.367-18.04-38.613-39.964-38.613z" fill="#c59e42"/><path d="M505.66 131.717c-16.443 0-29.791 12.935-29.965 28.96h59.938c-.174-16.025-13.53-28.96-29.973-28.96z" fill="#e6e6e6"/></g><g stroke-width="3.21"><path d="M894.939 68.662c-52.246 0-94.656 41.098-95.21 92.015h190.444c-.555-50.917-42.989-92.015-95.234-92.015z" fill="#c59e42"/><path d="M894.94 77.863c-47.022 0-85.19 36.989-85.689 82.814h171.4c-.5-45.825-38.69-82.814-85.711-82.814z" fill="#e6e6e6"/><path d="M894.94 86.145c-42.318 0-76.67 33.29-77.119 74.532h154.26c-.45-41.242-34.82-74.532-77.14-74.532z" fill="#c6a148"/><path d="M894.942 93.598c-38.087 0-69.004 29.96-69.408 67.08h138.834c-.405-37.12-31.339-67.08-69.426-67.08z" fill="#e6e6e6"/><path d="M894.943 100.306c-34.279 0-62.104 26.965-62.467 60.371h124.95c-.364-33.406-28.205-60.371-62.483-60.371z" fill="#c59e42"/><path d="M894.944 111.173c-28.108 0-50.925 22.11-51.223 49.504h102.46c-.299-27.393-23.128-49.504-51.237-49.504z" fill="#e6e6e6"/><path d="M894.946 122.064c-21.925 0-39.722 17.246-39.954 38.613h79.918c-.233-21.367-18.04-38.613-39.964-38.613z" fill="#c59e42"/><path d="M894.947 131.717c-16.443 0-29.791 12.935-29.966 28.96h59.94c-.175-16.025-13.53-28.96-29.974-28.96z" fill="#e6e6e6"/></g><g stroke-width="3.21"><path d="M766.343 68.662c-52.246 0-94.655 41.098-95.21 92.015h190.444c-.554-50.917-42.988-92.015-95.234-92.015z" fill="#c59e42"/><path d="M766.344 77.863c-47.021 0-85.19 36.989-85.689 82.814h171.4c-.499-45.825-38.69-82.814-85.71-82.814z" fill="#e6e6e6"/><path d="M766.345 86.145c-42.319 0-76.67 33.29-77.12 74.532h154.26c-.449-41.242-34.82-74.532-77.14-74.532z" fill="#c6a148"/><path d="M766.346 93.598c-38.087 0-69.003 29.96-69.408 67.08h138.834c-.404-37.12-31.338-67.08-69.426-67.08z" fill="#e6e6e6"/><path d="M766.347 100.306c-34.278 0-62.103 26.965-62.467 60.371h124.95c-.363-33.406-28.204-60.371-62.483-60.371z" fill="#c59e42"/><path d="M766.349 111.173c-28.109 0-50.925 22.11-51.223 49.504h102.459c-.298-27.393-23.128-49.504-51.236-49.504z" fill="#e6e6e6"/><path d="M766.35 122.064c-21.924 0-39.721 17.246-39.954 38.613h79.918c-.232-21.367-18.04-38.613-39.964-38.613z" fill="#c59e42"/><path d="M766.351 131.717c-16.443 0-29.79 12.935-29.965 28.96h59.939c-.175-16.025-13.53-28.96-29.974-28.96z" fill="#e6e6e6"/></g><g stroke-width="3.21"><path d="M243.306 68.662c-52.246 0-94.655 41.098-95.21 92.015H338.54c-.554-50.917-42.988-92.015-95.234-92.015z" fill="#c59e42"/><path d="M243.307 77.863c-47.021 0-85.19 36.989-85.689 82.814h171.4c-.499-45.825-38.69-82.814-85.71-82.814z" fill="#e6e6e6"/><path d="M243.308 86.145c-42.319 0-76.67 33.29-77.12 74.532h154.26c-.45-41.242-34.82-74.532-77.14-74.532z" fill="#c6a148"/><path d="M243.31 93.598c-38.088 0-69.004 29.96-69.409 67.08h138.834c-.404-37.12-31.338-67.08-69.426-67.08z" fill="#e6e6e6"/><path d="M243.31 100.306c-34.278 0-62.103 26.965-62.467 60.371h124.95c-.363-33.406-28.204-60.371-62.483-60.371z" fill="#c59e42"/><path d="M243.312 111.173c-28.109 0-50.925 22.11-51.223 49.504h102.459c-.298-27.393-23.128-49.504-51.236-49.504z" fill="#e6e6e6"/><path d="M243.313 122.064c-21.925 0-39.721 17.246-39.954 38.613h79.918c-.232-21.367-18.04-38.613-39.964-38.613z" fill="#c59e42"/><path d="M243.314 131.717c-16.443 0-29.79 12.935-29.965 28.96h59.939c-.175-16.025-13.53-28.96-29.974-28.96z" fill="#e6e6e6"/></g><g stroke-width="3.21"><path d="M220.358 130.17c-64.5 0-116.858 50.738-117.542 113.599h235.116c-.685-62.86-53.072-113.6-117.574-113.6z" fill="#c59e42"/><path d="M220.36 141.53c-58.051 0-105.173 45.664-105.789 102.239h211.605c-.616-56.575-47.765-102.24-105.816-102.24z" fill="#e6e6e6"/><path d="M220.361 151.753c-52.246 0-94.655 41.099-95.21 92.016h190.445c-.555-50.917-42.989-92.016-95.235-92.016z" fill="#c6a148"/><path d="M220.363 160.955c-47.022 0-85.19 36.989-85.69 82.814h171.4c-.499-45.825-38.69-82.814-85.71-82.814z" fill="#e6e6e6"/><path d="M220.364 169.236c-42.32 0-76.671 33.29-77.12 74.533h154.26c-.45-41.243-34.821-74.533-77.14-74.533z" fill="#c59e42"/><path d="M220.365 182.652c-34.701 0-62.87 27.298-63.238 61.117H283.62c-.368-33.82-28.553-61.117-63.255-61.117z" fill="#e6e6e6"/><path d="M220.367 196.098c-27.067 0-49.038 21.292-49.326 47.67h98.665c-.287-26.378-22.271-47.67-49.339-47.67z" fill="#c59e42"/><path d="M220.369 208.016c-20.3 0-36.78 15.969-36.995 35.753h73.999c-.216-19.784-16.704-35.753-37.004-35.753z" fill="#e6e6e6"/></g><g stroke-width="3.21"><path d="M542.2 130.17c-64.501 0-116.859 50.738-117.543 113.599h235.116c-.685-62.86-53.072-113.6-117.573-113.6z" fill="#c59e42"/><path d="M542.201 141.53c-58.05 0-105.172 45.664-105.788 102.239h211.604c-.616-56.575-47.765-102.24-105.816-102.24z" fill="#e6e6e6"/><path d="M542.203 151.753c-52.246 0-94.656 41.099-95.21 92.016h190.444c-.555-50.917-42.989-92.016-95.234-92.016z" fill="#c6a148"/><path d="M542.204 160.955c-47.022 0-85.19 36.989-85.689 82.814h171.4c-.5-45.825-38.69-82.814-85.711-82.814z" fill="#e6e6e6"/><path d="M542.205 169.236c-42.32 0-76.67 33.29-77.12 74.533h154.26c-.45-41.243-34.82-74.533-77.14-74.533z" fill="#c59e42"/><path d="M542.207 182.652c-34.702 0-62.87 27.298-63.239 61.117h126.493c-.368-33.82-28.553-61.117-63.254-61.117z" fill="#e6e6e6"/><path d="M542.208 196.098c-27.067 0-49.038 21.292-49.325 47.67h98.664c-.287-26.378-22.271-47.67-49.339-47.67z" fill="#c59e42"/><path d="M542.21 208.016c-20.3 0-36.779 15.969-36.994 35.753h73.998c-.215-19.784-16.703-35.753-37.004-35.753z" fill="#e6e6e6"/></g><g transform="matrix(.96868 0 0 .94642 -6.828 -206.548)" stroke-width="3.21" filter="url(#prefix__i)"><path d="M400.656 355.781c-66.587 0-120.637 53.612-121.344 120.031h242.72c-.707-66.42-54.789-120.03-121.376-120.03z" fill="#c59e42"/><path d="M400.658 367.784c-59.928 0-108.574 48.25-109.21 108.029h218.447c-.636-59.778-49.309-108.029-109.237-108.029z" fill="#e6e6e6"/><path d="M400.66 378.587c-53.936 0-97.717 43.426-98.29 97.226h196.603c-.572-53.8-44.378-97.226-98.314-97.226z" fill="#c6a148"/><path d="M400.66 388.31c-48.541 0-87.944 39.083-88.46 87.502h176.943c-.515-48.42-39.94-87.502-88.483-87.502z" fill="#e6e6e6"/><path d="M400.662 397.06c-43.688 0-79.15 35.175-79.614 78.752h159.248c-.464-43.577-35.947-78.752-79.634-78.752z" fill="#c59e42"/><path d="M400.663 411.235c-35.823 0-64.903 28.844-65.283 64.578h130.583c-.38-35.734-29.476-64.578-65.3-64.578z" fill="#e6e6e6"/><path d="M400.665 425.442c-27.942 0-50.624 22.498-50.92 50.37h101.854c-.296-27.872-22.991-50.37-50.934-50.37z" fill="#c59e42"/><path d="M400.667 438.035c-20.957 0-37.968 16.873-38.19 37.777h76.39c-.222-20.904-17.243-37.777-38.2-37.777z" fill="#e6e6e6"/></g><g stroke-width="3.21"><path d="M861.88 130.17c-64.5 0-116.858 50.738-117.543 113.599h235.116c-.684-62.86-53.072-113.6-117.573-113.6z" fill="#c59e42"/><path d="M861.882 141.53c-58.051 0-105.173 45.664-105.789 102.239h211.605c-.616-56.575-47.765-102.24-105.816-102.24z" fill="#e6e6e6"/><path d="M861.883 151.753c-52.246 0-94.655 41.099-95.21 92.016h190.444c-.554-50.917-42.988-92.016-95.234-92.016z" fill="#c6a148"/><path d="M861.884 160.955c-47.021 0-85.19 36.989-85.688 82.814h171.4c-.5-45.825-38.69-82.814-85.712-82.814z" fill="#e6e6e6"/><path d="M861.885 169.236c-42.319 0-76.67 33.29-77.12 74.533h154.26c-.449-41.243-34.82-74.533-77.14-74.533z" fill="#c59e42"/><path d="M861.887 182.652c-34.702 0-62.87 27.298-63.238 61.117h126.493c-.368-33.82-28.553-61.117-63.255-61.117z" fill="#e6e6e6"/><path d="M861.889 196.098c-27.067 0-49.039 21.292-49.326 47.67h98.665c-.288-26.378-22.272-47.67-49.339-47.67z" fill="#c59e42"/><path d="M861.89 208.016c-20.3 0-36.778 15.969-36.994 35.753h73.999c-.216-19.784-16.704-35.753-37.004-35.753z" fill="#e6e6e6"/></g><g stroke-width="3.21"><path d="M703.12 130.17c-64.5 0-116.858 50.738-117.543 113.599h235.116c-.684-62.86-53.072-113.6-117.573-113.6z" fill="#c59e42"/><path d="M703.122 141.53c-58.051 0-105.173 45.664-105.789 102.239h211.605c-.616-56.575-47.765-102.24-105.816-102.24z" fill="#e6e6e6"/><path d="M703.123 151.753c-52.246 0-94.655 41.099-95.21 92.016h190.444c-.554-50.917-42.988-92.016-95.234-92.016z" fill="#c6a148"/><path d="M703.124 160.955c-47.021 0-85.19 36.989-85.688 82.814h171.4c-.5-45.825-38.69-82.814-85.712-82.814z" fill="#e6e6e6"/><path d="M703.125 169.236c-42.319 0-76.67 33.29-77.12 74.533h154.26c-.449-41.243-34.82-74.533-77.14-74.533z" fill="#c59e42"/><path d="M703.127 182.652c-34.701 0-62.87 27.298-63.238 61.117h126.493c-.368-33.82-28.553-61.117-63.255-61.117z" fill="#e6e6e6"/><path d="M703.129 196.098c-27.067 0-49.039 21.292-49.326 47.67h98.665c-.288-26.378-22.272-47.67-49.339-47.67z" fill="#c59e42"/><path d="M703.13 208.016c-20.3 0-36.778 15.969-36.994 35.753h73.999c-.216-19.784-16.704-35.753-37.004-35.753z" fill="#e6e6e6"/></g><g stroke-width="3.21"><path d="M298.717 192.25c-71.668 0-129.843 56.376-130.604 126.221h261.24c-.76-69.845-58.968-126.221-130.636-126.221z" fill="#c59e42"/><path d="M298.718 204.872c-64.5 0-116.858 50.739-117.543 113.6h235.117c-.685-62.861-53.073-113.6-117.574-113.6z" fill="#e6e6e6"/><path d="M298.72 216.232c-58.051 0-105.173 45.665-105.789 102.24h211.605c-.616-56.575-47.765-102.24-105.816-102.24z" fill="#c6a148"/><path d="M298.721 226.456c-52.246 0-94.655 41.098-95.21 92.015h190.445c-.555-50.917-42.989-92.015-95.235-92.015z" fill="#e6e6e6"/><path d="M298.722 235.657c-47.02 0-85.19 36.989-85.688 82.814h171.4c-.5-45.825-38.69-82.814-85.712-82.814z" fill="#c59e42"/><path d="M298.724 250.564c-38.557 0-69.855 30.33-70.264 67.907h140.547c-.409-37.576-31.725-67.907-70.283-67.907z" fill="#e6e6e6"/><path d="M298.726 265.503c-30.074 0-54.487 23.658-54.806 52.968h109.627c-.32-29.31-24.746-52.968-54.82-52.968z" fill="#c59e42"/><path d="M298.728 278.745c-22.556 0-40.865 17.744-41.105 39.726h82.22c-.239-21.982-18.559-39.726-41.115-39.726z" fill="#e6e6e6"/></g><g stroke-width="3.21"><path d="M656.318 192.25c-71.668 0-129.843 56.376-130.603 126.221h261.24c-.76-69.845-58.97-126.221-130.637-126.221z" fill="#c59e42"/><path d="M656.32 204.872c-64.501 0-116.859 50.739-117.543 113.6h235.116c-.685-62.861-53.072-113.6-117.573-113.6z" fill="#e6e6e6"/><path d="M656.321 216.232c-58.05 0-105.172 45.665-105.788 102.24h211.604c-.616-56.575-47.765-102.24-105.816-102.24z" fill="#c6a148"/><path d="M656.323 226.456c-52.246 0-94.656 41.098-95.21 92.015h190.444c-.555-50.917-42.989-92.015-95.234-92.015z" fill="#e6e6e6"/><path d="M656.324 235.657c-47.022 0-85.19 36.989-85.689 82.814h171.4c-.5-45.825-38.69-82.814-85.711-82.814z" fill="#c59e42"/><path d="M656.326 250.564c-38.558 0-69.856 30.33-70.265 67.907h140.548c-.41-37.576-31.726-67.907-70.283-67.907z" fill="#e6e6e6"/><path d="M656.328 265.503c-30.075 0-54.488 23.658-54.807 52.968h109.627c-.319-29.31-24.745-52.968-54.82-52.968z" fill="#c59e42"/><path d="M656.33 278.745c-22.557 0-40.866 17.744-41.105 39.726h82.22c-.24-21.982-18.56-39.726-41.115-39.726z" fill="#e6e6e6"/></g><g transform="matrix(1.0763 0 0 1.05157 46.288 -181.881)" stroke-width="3.21" filter="url(#prefix__j)"><path d="M400.656 355.781c-66.587 0-120.637 53.612-121.344 120.031h242.72c-.707-66.42-54.789-120.03-121.376-120.03z" fill="#c59e42"/><path d="M400.658 367.784c-59.928 0-108.574 48.25-109.21 108.029h218.447c-.636-59.778-49.309-108.029-109.237-108.029z" fill="#e6e6e6"/><path d="M400.66 378.587c-53.936 0-97.717 43.426-98.29 97.226h196.603c-.572-53.8-44.378-97.226-98.314-97.226z" fill="#c6a148"/><path d="M400.66 388.31c-48.541 0-87.944 39.083-88.46 87.502h176.943c-.515-48.42-39.94-87.502-88.483-87.502z" fill="#e6e6e6"/><path d="M400.662 397.06c-43.688 0-79.15 35.175-79.614 78.752h159.248c-.464-43.577-35.947-78.752-79.634-78.752z" fill="#c59e42"/><path d="M400.663 411.235c-35.823 0-64.903 28.844-65.283 64.578h130.583c-.38-35.734-29.476-64.578-65.3-64.578z" fill="#e6e6e6"/><path d="M400.665 425.442c-27.942 0-50.624 22.498-50.92 50.37h101.854c-.296-27.872-22.991-50.37-50.934-50.37z" fill="#c59e42"/><path d="M400.667 438.035c-20.957 0-37.968 16.873-38.19 37.777h76.39c-.222-20.904-17.243-37.777-38.2-37.777z" fill="#e6e6e6"/></g><g stroke-width="3.21"><path d="M184.717 280.181c-71.668 0-129.843 56.377-130.604 126.222h261.24c-.76-69.845-58.968-126.222-130.636-126.222z" fill="#c59e42"/><path d="M184.718 292.804c-64.5 0-116.858 50.739-117.543 113.6h235.117c-.685-62.861-53.072-113.6-117.574-113.6z" fill="#e6e6e6"/><path d="M184.72 304.164c-58.051 0-105.173 45.665-105.789 102.24h211.605c-.616-56.575-47.765-102.24-105.816-102.24z" fill="#c6a148"/><path d="M184.721 314.388c-52.246 0-94.655 41.098-95.21 92.015h190.445c-.555-50.917-42.989-92.015-95.235-92.015z" fill="#e6e6e6"/><path d="M184.722 323.59c-47.02 0-85.19 36.988-85.688 82.813h171.4c-.5-45.825-38.69-82.814-85.712-82.814z" fill="#c59e42"/><path d="M184.724 338.496c-38.557 0-69.855 30.33-70.264 67.907h140.547c-.409-37.577-31.725-67.907-70.283-67.907z" fill="#e6e6e6"/><path d="M184.726 353.435c-30.074 0-54.487 23.658-54.806 52.968h109.627c-.319-29.31-24.746-52.968-54.82-52.968z" fill="#c59e42"/><path d="M184.728 366.677c-22.556 0-40.865 17.744-41.105 39.726h82.22c-.239-21.982-18.559-39.726-41.115-39.726z" fill="#e6e6e6"/></g><g stroke-width="3.21"><path d="M835.119 192.25c-71.668 0-129.843 56.376-130.604 126.221h261.24c-.76-69.845-58.968-126.221-130.636-126.221z" fill="#c59e42"/><path d="M835.12 204.872c-64.5 0-116.858 50.739-117.543 113.6h235.117c-.685-62.861-53.073-113.6-117.574-113.6z" fill="#e6e6e6"/><path d="M835.122 216.232c-58.051 0-105.173 45.665-105.789 102.24h211.605c-.616-56.575-47.765-102.24-105.816-102.24z" fill="#c6a148"/><path d="M835.123 226.456c-52.246 0-94.655 41.098-95.21 92.015h190.445c-.555-50.917-42.989-92.015-95.235-92.015z" fill="#e6e6e6"/><path d="M835.124 235.657c-47.02 0-85.19 36.989-85.688 82.814h171.4c-.5-45.825-38.69-82.814-85.712-82.814z" fill="#c59e42"/><path d="M835.126 250.564c-38.557 0-69.855 30.33-70.264 67.907h140.547c-.409-37.576-31.725-67.907-70.283-67.907z" fill="#e6e6e6"/><path d="M835.128 265.503c-30.074 0-54.487 23.658-54.806 52.968h109.627c-.32-29.31-24.746-52.968-54.82-52.968z" fill="#c59e42"/><path d="M835.13 278.745c-22.556 0-40.865 17.744-41.105 39.726h82.22c-.239-21.982-18.559-39.726-41.115-39.726z" fill="#e6e6e6"/></g><g transform="matrix(1.0763 0 0 1.05157 111.088 -93.95)" stroke-width="3.21" filter="url(#prefix__k)"><path d="M400.656 355.781c-66.587 0-120.637 53.612-121.344 120.031h242.72c-.707-66.42-54.789-120.03-121.376-120.03z" fill="#c59e42"/><path d="M400.658 367.784c-59.928 0-108.574 48.25-109.21 108.029h218.447c-.636-59.778-49.309-108.029-109.237-108.029z" fill="#e6e6e6"/><path d="M400.66 378.587c-53.936 0-97.717 43.426-98.29 97.226h196.603c-.572-53.8-44.378-97.226-98.314-97.226z" fill="#c6a148"/><path d="M400.66 388.31c-48.541 0-87.944 39.083-88.46 87.502h176.943c-.515-48.42-39.94-87.502-88.483-87.502z" fill="#e6e6e6"/><path d="M400.662 397.06c-43.688 0-79.15 35.175-79.614 78.752h159.248c-.464-43.577-35.947-78.752-79.634-78.752z" fill="#c59e42"/><path d="M400.663 411.235c-35.823 0-64.903 28.844-65.283 64.578h130.583c-.38-35.734-29.476-64.578-65.3-64.578z" fill="#e6e6e6"/><path d="M400.665 425.442c-27.942 0-50.624 22.498-50.92 50.37h101.854c-.296-27.872-22.991-50.37-50.934-50.37z" fill="#c59e42"/><path d="M400.667 438.035c-20.957 0-37.968 16.873-38.19 37.777h76.39c-.222-20.904-17.243-37.777-38.2-37.777z" fill="#e6e6e6"/></g><g stroke-width="3.21"><path d="M363.517 280.181c-71.668 0-129.842 56.377-130.603 126.222h261.24c-.76-69.845-58.969-126.222-130.637-126.222z" fill="#c59e42"/><path d="M363.519 292.804c-64.501 0-116.858 50.739-117.543 113.6h235.116c-.684-62.861-53.072-113.6-117.573-113.6z" fill="#e6e6e6"/><path d="M363.52 304.164c-58.05 0-105.172 45.665-105.788 102.24h211.604c-.616-56.575-47.764-102.24-105.815-102.24z" fill="#c6a148"/><path d="M363.522 314.388c-52.246 0-94.655 41.098-95.21 92.015h190.444c-.554-50.917-42.988-92.015-95.234-92.015z" fill="#e6e6e6"/><path d="M363.523 323.59c-47.021 0-85.19 36.988-85.689 82.813h171.4c-.499-45.825-38.69-82.814-85.71-82.814z" fill="#c59e42"/><path d="M363.525 338.496c-38.557 0-69.856 30.33-70.265 67.907h140.548c-.41-37.577-31.725-67.907-70.283-67.907z" fill="#e6e6e6"/><path d="M363.527 353.435c-30.075 0-54.487 23.658-54.806 52.968h109.627c-.32-29.31-24.746-52.968-54.82-52.968z" fill="#c59e42"/><path d="M363.529 366.677c-22.556 0-40.866 17.744-41.105 39.726h82.22c-.239-21.982-18.559-39.726-41.115-39.726z" fill="#e6e6e6"/></g><g stroke-width="3.21"><path d="M897.519 280.181c-71.668 0-129.843 56.377-130.604 126.222h261.24c-.76-69.845-58.968-126.222-130.636-126.222z" fill="#c59e42"/><path d="M897.52 292.804c-64.5 0-116.858 50.739-117.543 113.6h235.117c-.685-62.861-53.073-113.6-117.574-113.6z" fill="#e6e6e6"/><path d="M897.522 304.164c-58.051 0-105.173 45.665-105.789 102.24h211.605c-.616-56.575-47.765-102.24-105.816-102.24z" fill="#c6a148"/><path d="M897.523 314.388c-52.246 0-94.655 41.098-95.21 92.015h190.444c-.554-50.917-42.988-92.015-95.234-92.015z" fill="#e6e6e6"/><path d="M897.524 323.59c-47.02 0-85.19 36.988-85.688 82.813h171.4c-.5-45.825-38.69-82.814-85.712-82.814z" fill="#c59e42"/><path d="M897.526 338.496c-38.557 0-69.855 30.33-70.264 67.907h140.547c-.409-37.577-31.725-67.907-70.283-67.907z" fill="#e6e6e6"/><path d="M897.528 353.435c-30.074 0-54.487 23.658-54.806 52.968h109.627c-.32-29.31-24.746-52.968-54.82-52.968z" fill="#c59e42"/><path d="M897.53 366.677c-22.556 0-40.865 17.744-41.105 39.726h82.22c-.239-21.982-18.559-39.726-41.115-39.726z" fill="#e6e6e6"/></g><g stroke-width="3.21"><path d="M721.119 280.181c-71.668 0-129.843 56.377-130.604 126.222h261.24c-.76-69.845-58.968-126.222-130.636-126.222z" fill="#c59e42"/><path d="M721.12 292.804c-64.5 0-116.858 50.739-117.543 113.6h235.117c-.685-62.861-53.073-113.6-117.574-113.6z" fill="#e6e6e6"/><path d="M721.122 304.164c-58.051 0-105.173 45.665-105.789 102.24h211.605c-.616-56.575-47.765-102.24-105.816-102.24z" fill="#c6a148"/><path d="M721.123 314.388c-52.246 0-94.655 41.098-95.21 92.015h190.445c-.555-50.917-42.989-92.015-95.235-92.015z" fill="#e6e6e6"/><path d="M721.124 323.59c-47.02 0-85.19 36.988-85.688 82.813h171.4c-.5-45.825-38.69-82.814-85.712-82.814z" fill="#c59e42"/><path d="M721.126 338.496c-38.557 0-69.855 30.33-70.264 67.907h140.547c-.409-37.577-31.725-67.907-70.283-67.907z" fill="#e6e6e6"/><path d="M721.128 353.435c-30.074 0-54.487 23.658-54.806 52.968h109.627c-.32-29.31-24.746-52.968-54.82-52.968z" fill="#c59e42"/><path d="M721.13 366.677c-22.556 0-40.865 17.744-41.105 39.726h82.22c-.239-21.982-18.559-39.726-41.115-39.726z" fill="#e6e6e6"/></g><g stroke-width="3.21"><path d="M251.115 368.917c-79.631 0-144.27 62.64-145.115 140.247h290.267c-.845-77.606-65.521-140.247-145.152-140.247z" fill="#c59e42"/><path d="M251.117 382.942c-71.668 0-129.843 56.376-130.604 126.222h261.24c-.76-69.846-58.969-126.222-130.636-126.222z" fill="#e6e6e6"/><path d="M251.118 395.564c-64.5 0-116.858 50.739-117.543 113.6h235.116c-.684-62.861-53.072-113.6-117.573-113.6z" fill="#c6a148"/><path d="M251.12 406.924c-58.051 0-105.173 45.665-105.789 102.24h211.605c-.616-56.575-47.765-102.24-105.816-102.24z" fill="#e6e6e6"/><path d="M251.121 417.148c-52.246 0-94.655 41.098-95.21 92.016h190.444c-.554-50.918-42.988-92.016-95.234-92.016z" fill="#c59e42"/><path d="M251.123 433.71c-42.841 0-77.617 33.702-78.072 75.454h156.164c-.454-41.752-35.25-75.453-78.092-75.453z" fill="#e6e6e6"/><path d="M251.126 450.31c-33.417 0-60.542 26.287-60.897 58.854h121.808c-.354-32.567-27.495-58.854-60.911-58.854z" fill="#c59e42"/><path d="M251.128 465.024c-25.063 0-45.407 19.715-45.673 44.14h91.356c-.266-24.425-20.621-44.14-45.683-44.14z" fill="#e6e6e6"/></g><g transform="matrix(1.1959 0 0 1.16842 169.306 -46.784)" stroke-width="3.21" filter="url(#prefix__l)"><path d="M400.656 355.781c-66.587 0-120.637 53.612-121.344 120.031h242.72c-.707-66.42-54.789-120.03-121.376-120.03z" fill="#c59e42"/><path d="M400.658 367.784c-59.928 0-108.574 48.25-109.21 108.029h218.447c-.636-59.778-49.309-108.029-109.237-108.029z" fill="#e6e6e6"/><path d="M400.66 378.587c-53.936 0-97.717 43.426-98.29 97.226h196.603c-.572-53.8-44.378-97.226-98.314-97.226z" fill="#c6a148"/><path d="M400.66 388.31c-48.541 0-87.944 39.083-88.46 87.502h176.943c-.515-48.42-39.94-87.502-88.483-87.502z" fill="#e6e6e6"/><path d="M400.662 397.06c-43.688 0-79.15 35.175-79.614 78.752h159.248c-.464-43.577-35.947-78.752-79.634-78.752z" fill="#c59e42"/><path d="M400.663 411.235c-35.823 0-64.903 28.844-65.283 64.578h130.583c-.38-35.734-29.476-64.578-65.3-64.578z" fill="#e6e6e6"/><path d="M400.665 425.442c-27.942 0-50.624 22.498-50.92 50.37h101.854c-.296-27.872-22.991-50.37-50.934-50.37z" fill="#c59e42"/><path d="M400.667 438.035c-20.957 0-37.968 16.873-38.19 37.777h76.39c-.222-20.904-17.243-37.777-38.2-37.777z" fill="#e6e6e6"/></g><g stroke-width="3.21"><path d="M449.782 368.917c-79.63 0-144.27 62.64-145.115 140.247h290.267c-.845-77.606-65.52-140.247-145.152-140.247z" fill="#c59e42"/><path d="M449.784 382.942c-71.668 0-129.843 56.376-130.603 126.222h261.24c-.76-69.846-58.97-126.222-130.637-126.222z" fill="#e6e6e6"/><path d="M449.786 395.564c-64.501 0-116.859 50.739-117.543 113.6h235.116c-.685-62.861-53.072-113.6-117.573-113.6z" fill="#c6a148"/><path d="M449.787 406.924c-58.05 0-105.172 45.665-105.788 102.24h211.604c-.616-56.575-47.765-102.24-105.816-102.24z" fill="#e6e6e6"/><path d="M449.789 417.148c-52.246 0-94.656 41.098-95.21 92.016h190.444c-.555-50.918-42.989-92.016-95.234-92.016z" fill="#c59e42"/><path d="M449.79 433.71c-42.84 0-77.617 33.702-78.071 75.454h156.164c-.455-41.752-35.25-75.453-78.092-75.453z" fill="#e6e6e6"/><path d="M449.793 450.31c-33.417 0-60.542 26.287-60.896 58.854h121.808c-.355-32.567-27.496-58.854-60.912-58.854z" fill="#c59e42"/><path d="M449.795 465.024c-25.062 0-45.406 19.715-45.672 44.14h91.356c-.266-24.425-20.622-44.14-45.684-44.14z" fill="#e6e6e6"/></g><g stroke-width="3.21"><path d="M847.117 368.917c-79.631 0-144.27 62.64-145.115 140.247H992.27c-.845-77.606-65.521-140.247-145.152-140.247z" fill="#c59e42"/><path d="M847.119 382.942c-71.668 0-129.843 56.376-130.603 126.222h261.24c-.76-69.846-58.97-126.222-130.637-126.222z" fill="#e6e6e6"/><path d="M847.12 395.564c-64.5 0-116.858 50.739-117.542 113.6h235.116c-.685-62.861-53.072-113.6-117.574-113.6z" fill="#c6a148"/><path d="M847.122 406.924c-58.051 0-105.173 45.665-105.789 102.24h211.605c-.616-56.575-47.765-102.24-105.816-102.24z" fill="#e6e6e6"/><path d="M847.123 417.148c-52.246 0-94.655 41.098-95.21 92.016h190.445c-.555-50.918-42.989-92.016-95.235-92.016z" fill="#c59e42"/><path d="M847.126 433.71c-42.842 0-77.618 33.702-78.072 75.454h156.164c-.455-41.752-35.25-75.453-78.092-75.453z" fill="#e6e6e6"/><path d="M847.128 450.31c-33.417 0-60.542 26.287-60.896 58.854H908.04c-.355-32.567-27.496-58.854-60.912-58.854z" fill="#c59e42"/><path d="M847.13 465.024c-25.063 0-45.406 19.715-45.672 44.14h91.356c-.266-24.425-20.622-44.14-45.684-44.14z" fill="#e6e6e6"/></g><g stroke-width="3.21"><path d="M145.115 470.527C65.484 470.527.845 537.521 0 620.52h290.267c-.845-82.998-65.521-149.992-145.152-149.992z" fill="#c59e42"/><path d="M145.117 485.526c-71.668 0-129.843 60.295-130.604 134.993h261.24c-.76-74.698-58.968-134.993-130.636-134.993z" fill="#e6e6e6"/><path d="M145.118 499.026c-64.5 0-116.858 54.265-117.543 121.493h235.116c-.684-67.228-53.072-121.493-117.573-121.493z" fill="#c6a148"/><path d="M145.12 511.175c-58.051 0-105.173 48.838-105.789 109.344h211.605c-.616-60.506-47.765-109.344-105.816-109.344z" fill="#e6e6e6"/><path d="M145.121 522.11c-52.246 0-94.655 43.954-95.21 98.41h190.444c-.554-54.456-42.988-98.41-95.234-98.41z" fill="#c59e42"/><path d="M145.123 539.823c-42.841 0-77.617 36.043-78.072 80.696h156.164c-.454-44.653-35.25-80.696-78.092-80.696z" fill="#e6e6e6"/><path d="M145.126 557.576c-33.417 0-60.542 28.114-60.897 62.943h121.808c-.354-34.83-27.495-62.943-60.911-62.943z" fill="#c59e42"/><path d="M145.128 573.312c-25.063 0-45.407 21.085-45.673 47.207h91.356c-.266-26.122-20.621-47.207-45.683-47.207z" fill="#e6e6e6"/></g><g stroke-width="3.21"><path d="M542.45 470.527c-79.632 0-144.27 66.994-145.115 149.992h290.267c-.845-82.998-65.521-149.992-145.152-149.992z" fill="#c59e42"/><path d="M542.451 485.526c-71.668 0-129.842 60.295-130.603 134.993h261.24c-.76-74.698-58.969-134.993-130.637-134.993z" fill="#e6e6e6"/><path d="M542.453 499.026c-64.501 0-116.858 54.265-117.543 121.493h235.116c-.684-67.228-53.072-121.493-117.573-121.493z" fill="#c6a148"/><path d="M542.455 511.175c-58.051 0-105.173 48.838-105.789 109.344H648.27c-.616-60.506-47.764-109.344-105.815-109.344z" fill="#e6e6e6"/><path d="M542.456 522.11c-52.246 0-94.655 43.954-95.21 98.41H637.69c-.554-54.456-42.988-98.41-95.234-98.41z" fill="#c59e42"/><path d="M542.458 539.823c-42.841 0-77.617 36.043-78.072 80.696H620.55c-.454-44.653-35.25-80.696-78.092-80.696z" fill="#e6e6e6"/><path d="M542.46 557.576c-33.416 0-60.541 28.114-60.896 62.943h121.808c-.354-34.83-27.495-62.943-60.912-62.943z" fill="#c59e42"/><path d="M542.462 573.312c-25.062 0-45.406 21.085-45.672 47.207h91.356c-.266-26.122-20.621-47.207-45.684-47.207z" fill="#e6e6e6"/></g><g stroke-width="3.21"><path d="M343.782 470.527c-79.63 0-144.27 66.994-145.115 149.992h290.267c-.845-82.998-65.52-149.992-145.152-149.992z" fill="#c59e42"/><path d="M343.784 485.526c-71.668 0-129.843 60.295-130.603 134.993h261.24c-.76-74.698-58.97-134.993-130.637-134.993z" fill="#e6e6e6"/><path d="M343.786 499.026c-64.501 0-116.859 54.265-117.543 121.493h235.116c-.685-67.228-53.072-121.493-117.573-121.493z" fill="#c6a148"/><path d="M343.787 511.175c-58.05 0-105.172 48.838-105.788 109.344h211.604c-.616-60.506-47.765-109.344-105.816-109.344z" fill="#e6e6e6"/><path d="M343.789 522.11c-52.246 0-94.656 43.954-95.21 98.41h190.444c-.555-54.456-42.989-98.41-95.234-98.41z" fill="#c59e42"/><path d="M343.79 539.823c-42.84 0-77.617 36.043-78.071 80.696h156.164c-.455-44.653-35.25-80.696-78.092-80.696z" fill="#e6e6e6"/><path d="M343.793 557.576c-33.417 0-60.542 28.114-60.896 62.943h121.808c-.355-34.83-27.496-62.943-60.912-62.943z" fill="#c59e42"/><path d="M343.795 573.312c-25.062 0-45.406 21.085-45.672 47.207h91.356c-.266-26.122-20.622-47.207-45.684-47.207z" fill="#e6e6e6"/></g><g stroke-width="3.21"><path d="M937.117 470.527c-79.631 0-144.27 66.994-145.115 149.992h290.267c-.845-82.998-65.521-149.992-145.152-149.992z" fill="#c59e42"/><path d="M937.119 485.526c-71.668 0-129.843 60.295-130.603 134.993h261.24c-.76-74.698-58.97-134.993-130.637-134.993z" fill="#e6e6e6"/><path d="M937.12 499.026c-64.5 0-116.858 54.265-117.542 121.493h235.116c-.685-67.228-53.072-121.493-117.574-121.493z" fill="#c6a148"/><path d="M937.122 511.175c-58.051 0-105.173 48.838-105.789 109.344h211.605c-.616-60.506-47.765-109.344-105.816-109.344z" fill="#e6e6e6"/><path d="M937.123 522.11c-52.246 0-94.655 43.954-95.21 98.41h190.445c-.555-54.456-42.989-98.41-95.235-98.41z" fill="#c59e42"/><path d="M937.126 539.823c-42.842 0-77.618 36.043-78.072 80.696h156.164c-.455-44.653-35.25-80.696-78.092-80.696z" fill="#e6e6e6"/><path d="M937.128 557.576c-33.417 0-60.542 28.114-60.896 62.943H998.04c-.355-34.83-27.496-62.943-60.912-62.943z" fill="#c59e42"/><path d="M937.13 573.312c-25.063 0-45.406 21.085-45.672 47.207h91.356c-.266-26.122-20.622-47.207-45.684-47.207z" fill="#e6e6e6"/></g><g transform="matrix(1.1959 0 0 1.24961 261.973 25.94)" stroke-width="3.21" filter="url(#prefix__m)"><path d="M400.656 355.781c-66.587 0-120.637 53.612-121.344 120.031h242.72c-.707-66.42-54.789-120.03-121.376-120.03z" fill="#c59e42"/><path d="M400.658 367.784c-59.928 0-108.574 48.25-109.21 108.029h218.447c-.636-59.778-49.309-108.029-109.237-108.029z" fill="#e6e6e6"/><path d="M400.66 378.587c-53.936 0-97.717 43.426-98.29 97.226h196.603c-.572-53.8-44.378-97.226-98.314-97.226z" fill="#c6a148"/><path d="M400.66 388.31c-48.541 0-87.944 39.083-88.46 87.502h176.943c-.515-48.42-39.94-87.502-88.483-87.502z" fill="#e6e6e6"/><path d="M400.662 397.06c-43.688 0-79.15 35.175-79.614 78.752h159.248c-.464-43.577-35.947-78.752-79.634-78.752z" fill="#c59e42"/><path d="M400.663 411.235c-35.823 0-64.903 28.844-65.283 64.578h130.583c-.38-35.734-29.476-64.578-65.3-64.578z" fill="#e6e6e6"/><path d="M400.665 425.442c-27.942 0-50.624 22.498-50.92 50.37h101.854c-.296-27.872-22.991-50.37-50.934-50.37z" fill="#c59e42"/><path d="M400.667 438.035c-20.957 0-37.968 16.873-38.19 37.777h76.39c-.222-20.904-17.243-37.777-38.2-37.777z" fill="#e6e6e6"/></g><g stroke-width="3.21"><path d="M236.001 574.116c-88.479 0-160.3 79.758-161.238 178.57H397.28c-.938-98.812-72.8-178.57-161.28-178.57z" fill="#c59e42"/><path d="M236.003 591.973c-79.63 0-144.27 71.782-145.114 160.713h290.267c-.846-88.931-65.522-160.713-145.153-160.713z" fill="#e6e6e6"/><path d="M236.005 608.044c-71.668 0-129.842 64.604-130.603 144.642h261.24c-.76-80.038-58.969-144.642-130.637-144.642z" fill="#c6a148"/><path d="M236.007 622.508c-64.501 0-116.858 58.144-117.543 130.178H353.58c-.684-72.034-53.072-130.178-117.573-130.178z" fill="#e6e6e6"/><path d="M236.009 635.526c-58.052 0-105.173 52.33-105.79 117.16h211.605c-.616-64.83-47.764-117.16-105.815-117.16z" fill="#c59e42"/><path d="M236.011 656.615c-47.602 0-86.242 42.91-86.747 96.07H322.78c-.505-53.16-39.167-96.07-86.769-96.07z" fill="#e6e6e6"/><path d="M236.013 677.75c-37.129 0-67.268 33.47-67.662 74.936h135.342c-.394-41.466-30.55-74.936-67.68-74.936z" fill="#c59e42"/><path d="M236.016 696.484c-27.847 0-50.452 25.102-50.747 56.202h101.506c-.295-31.1-22.912-56.202-50.76-56.202z" fill="#e6e6e6"/></g><g transform="matrix(1.32878 0 0 1.4877 145.102 44.823)" stroke-width="3.21" filter="url(#prefix__n)"><path d="M400.656 355.781c-66.587 0-120.637 53.612-121.344 120.031h242.72c-.707-66.42-54.789-120.03-121.376-120.03z" fill="#c59e42"/><path d="M400.658 367.784c-59.928 0-108.574 48.25-109.21 108.029h218.447c-.636-59.778-49.309-108.029-109.237-108.029z" fill="#e6e6e6"/><path d="M400.66 378.587c-53.936 0-97.717 43.426-98.29 97.226h196.603c-.572-53.8-44.378-97.226-98.314-97.226z" fill="#c6a148"/><path d="M400.66 388.31c-48.541 0-87.944 39.083-88.46 87.502h176.943c-.515-48.42-39.94-87.502-88.483-87.502z" fill="#e6e6e6"/><path d="M400.662 397.06c-43.688 0-79.15 35.175-79.614 78.752h159.248c-.464-43.577-35.947-78.752-79.634-78.752z" fill="#c59e42"/><path d="M400.663 411.235c-35.823 0-64.903 28.844-65.283 64.578h130.583c-.38-35.734-29.476-64.578-65.3-64.578z" fill="#e6e6e6"/><path d="M400.665 425.442c-27.942 0-50.624 22.498-50.92 50.37h101.854c-.296-27.872-22.991-50.37-50.934-50.37z" fill="#c59e42"/><path d="M400.667 438.035c-20.957 0-37.968 16.873-38.19 37.777h76.39c-.222-20.904-17.243-37.777-38.2-37.777z" fill="#e6e6e6"/></g><g stroke-width="3.21"><path d="M456.743 574.116c-88.479 0-160.3 79.758-161.239 178.57h322.519c-.939-98.812-72.801-178.57-161.28-178.57z" fill="#c59e42"/><path d="M456.745 591.973c-79.631 0-144.27 71.782-145.115 160.713h290.267c-.845-88.931-65.521-160.713-145.152-160.713z" fill="#e6e6e6"/><path d="M456.747 608.044c-71.668 0-129.843 64.604-130.603 144.642h261.24c-.76-80.038-58.97-144.642-130.637-144.642z" fill="#c6a148"/><path d="M456.749 622.508c-64.502 0-116.859 58.144-117.543 130.178h235.116c-.685-72.034-53.072-130.178-117.573-130.178z" fill="#e6e6e6"/><path d="M456.75 635.526c-58.051 0-105.173 52.33-105.789 117.16h211.605c-.616-64.83-47.765-117.16-105.816-117.16z" fill="#c59e42"/><path d="M456.753 656.615c-47.602 0-86.242 42.91-86.747 96.07h173.516c-.506-53.16-39.168-96.07-86.77-96.07z" fill="#e6e6e6"/><path d="M456.755 677.75c-37.13 0-67.268 33.47-67.662 74.936h135.342c-.394-41.466-30.55-74.936-67.68-74.936z" fill="#c59e42"/><path d="M456.757 696.484c-27.847 0-50.451 25.102-50.747 56.202h101.507c-.295-31.1-22.913-56.202-50.76-56.202z" fill="#e6e6e6"/></g><g stroke-width="3.21"><path d="M898.226 574.116c-88.479 0-160.3 79.758-161.239 178.57h322.52c-.94-98.812-72.802-178.57-161.281-178.57z" fill="#c59e42"/><path d="M898.228 591.973c-79.63 0-144.27 71.782-145.115 160.713h290.267c-.845-88.931-65.52-160.713-145.152-160.713z" fill="#e6e6e6"/><path d="M898.23 608.044c-71.668 0-129.843 64.604-130.603 144.642h261.24c-.76-80.038-58.97-144.642-130.637-144.642z" fill="#c6a148"/><path d="M898.232 622.508c-64.501 0-116.859 58.144-117.543 130.178h235.116c-.685-72.034-53.072-130.178-117.573-130.178z" fill="#e6e6e6"/><path d="M898.233 635.526c-58.05 0-105.172 52.33-105.788 117.16h211.604c-.616-64.83-47.765-117.16-105.816-117.16z" fill="#c59e42"/><path d="M898.236 656.615c-47.602 0-86.242 42.91-86.747 96.07h173.516c-.506-53.16-39.168-96.07-86.77-96.07z" fill="#e6e6e6"/><path d="M898.238 677.75c-37.13 0-67.268 33.47-67.662 74.936h135.342c-.394-41.466-30.55-74.936-67.68-74.936z" fill="#c59e42"/><path d="M898.24 696.484c-27.847 0-50.451 25.102-50.747 56.202H949c-.295-31.1-22.913-56.202-50.76-56.202z" fill="#e6e6e6"/></g><g stroke-width="3.21"><path d="M312.001 681.588c-88.479 0-160.3 75.405-161.238 168.824H473.28c-.938-93.419-72.8-168.824-161.28-168.824z" fill="#c59e42"/><path d="M312.003 698.47c-79.63 0-144.27 67.865-145.114 151.942h290.267c-.846-84.077-65.522-151.941-145.153-151.941z" fill="#e6e6e6"/><path d="M312.005 713.665c-71.668 0-129.842 61.078-130.603 136.747h261.24c-.76-75.67-58.969-136.747-130.637-136.747z" fill="#c6a148"/><path d="M312.007 727.34c-64.501 0-116.858 54.97-117.543 123.072H429.58c-.684-68.102-53.072-123.072-117.573-123.072z" fill="#e6e6e6"/><path d="M312.009 739.647c-58.052 0-105.173 49.473-105.79 110.765h211.605c-.616-61.292-47.764-110.765-105.815-110.765z" fill="#c59e42"/><path d="M312.011 759.585c-47.602 0-86.242 40.567-86.747 90.827H398.78c-.505-50.26-39.167-90.827-86.769-90.827z" fill="#e6e6e6"/><path d="M312.013 779.567c-37.129 0-67.268 31.643-67.662 70.845h135.342c-.394-39.202-30.55-70.845-67.68-70.845z" fill="#c59e42"/><path d="M312.016 797.278c-27.847 0-50.452 23.732-50.747 53.134h101.506c-.295-29.402-22.912-53.134-50.76-53.134z" fill="#e6e6e6"/></g><g stroke-width="3.21"><path d="M826.226 681.588c-88.479 0-160.3 75.405-161.238 168.824h322.518c-.939-93.419-72.801-168.824-161.28-168.824z" fill="#c59e42"/><path d="M826.228 698.47c-79.63 0-144.27 67.865-145.115 151.942H971.38c-.845-84.077-65.52-151.941-145.152-151.941z" fill="#e6e6e6"/><path d="M826.23 713.665c-71.668 0-129.843 61.078-130.603 136.747h261.24c-.76-75.67-58.969-136.747-130.637-136.747z" fill="#c6a148"/><path d="M826.232 727.34c-64.501 0-116.859 54.97-117.543 123.072h235.116c-.685-68.102-53.072-123.072-117.573-123.072z" fill="#e6e6e6"/><path d="M826.233 739.647c-58.05 0-105.172 49.473-105.788 110.765h211.604c-.616-61.292-47.765-110.765-105.816-110.765z" fill="#c59e42"/><path d="M826.236 759.585c-47.602 0-86.242 40.567-86.747 90.827h173.516c-.505-50.26-39.167-90.827-86.77-90.827z" fill="#e6e6e6"/><path d="M826.238 779.567c-37.13 0-67.268 31.643-67.662 70.845h135.342c-.394-39.202-30.55-70.845-67.68-70.845z" fill="#c59e42"/><path d="M826.24 797.278c-27.847 0-50.45 23.732-50.746 53.134H877c-.295-29.402-22.913-53.134-50.76-53.134z" fill="#e6e6e6"/></g><g transform="matrix(1.32878 0 0 1.4065 32.732 181.182)" stroke-width="3.21" filter="url(#prefix__o)"><path d="M400.656 355.781c-66.587 0-120.637 53.612-121.344 120.031h242.72c-.707-66.42-54.789-120.03-121.376-120.03z" fill="#c59e42"/><path d="M400.658 367.784c-59.928 0-108.574 48.25-109.21 108.029h218.447c-.636-59.778-49.309-108.029-109.237-108.029z" fill="#e6e6e6"/><path d="M400.66 378.587c-53.936 0-97.717 43.426-98.29 97.226h196.603c-.572-53.8-44.378-97.226-98.314-97.226z" fill="#c6a148"/><path d="M400.66 388.31c-48.541 0-87.944 39.083-88.46 87.502h176.943c-.515-48.42-39.94-87.502-88.483-87.502z" fill="#e6e6e6"/><path d="M400.662 397.06c-43.688 0-79.15 35.175-79.614 78.752h159.248c-.464-43.577-35.947-78.752-79.634-78.752z" fill="#c59e42"/><path d="M400.663 411.235c-35.823 0-64.903 28.844-65.283 64.578h130.583c-.38-35.734-29.476-64.578-65.3-64.578z" fill="#e6e6e6"/><path d="M400.665 425.442c-27.942 0-50.624 22.498-50.92 50.37h101.854c-.296-27.872-22.991-50.37-50.934-50.37z" fill="#c59e42"/><path d="M400.667 438.035c-20.957 0-37.968 16.873-38.19 37.777h76.39c-.222-20.904-17.243-37.777-38.2-37.777z" fill="#e6e6e6"/></g><g stroke-width="3.21"><path d="M236.001 794.923c-88.479 0-160.3 74.679-161.238 167.2H397.28c-.938-92.521-72.8-167.2-161.28-167.2z" fill="#c59e42"/><path d="M236.003 811.643c-79.63 0-144.27 67.21-145.114 150.48h290.267c-.846-83.27-65.522-150.48-145.153-150.48z" fill="#e6e6e6"/><path d="M236.005 826.69c-71.668 0-129.842 60.49-130.603 135.432h261.24c-.76-74.941-58.969-135.431-130.637-135.431z" fill="#c6a148"/><path d="M236.007 840.234c-64.501 0-116.858 54.44-117.543 121.888H353.58c-.684-67.447-53.072-121.888-117.573-121.888z" fill="#e6e6e6"/><path d="M236.009 852.423c-58.052 0-105.173 48.997-105.79 109.7h211.605c-.616-60.703-47.764-109.7-105.815-109.7z" fill="#c59e42"/><path d="M236.011 872.168c-47.602 0-86.242 40.178-86.747 89.954H322.78c-.505-49.776-39.167-89.954-86.769-89.954z" fill="#e6e6e6"/><path d="M236.013 891.958c-37.129 0-67.268 31.339-67.662 70.164h135.342c-.394-38.825-30.55-70.164-67.68-70.164z" fill="#c59e42"/><path d="M236.016 909.5c-27.847 0-50.452 23.503-50.747 52.622h101.506c-.295-29.119-22.912-52.623-50.76-52.623z" fill="#e6e6e6"/></g><g transform="matrix(1.32878 0 0 1.39297 145.102 299.331)" stroke-width="3.21" filter="url(#prefix__p)"><path d="M400.656 355.781c-66.587 0-120.637 53.612-121.344 120.031h242.72c-.707-66.42-54.789-120.03-121.376-120.03z" fill="#c59e42"/><path d="M400.658 367.784c-59.928 0-108.574 48.25-109.21 108.029h218.447c-.636-59.778-49.309-108.029-109.237-108.029z" fill="#e6e6e6"/><path d="M400.66 378.587c-53.936 0-97.717 43.426-98.29 97.226h196.603c-.572-53.8-44.378-97.226-98.314-97.226z" fill="#c6a148"/><path d="M400.66 388.31c-48.541 0-87.944 39.083-88.46 87.502h176.943c-.515-48.42-39.94-87.502-88.483-87.502z" fill="#e6e6e6"/><path d="M400.662 397.06c-43.688 0-79.15 35.175-79.614 78.752h159.248c-.464-43.577-35.947-78.752-79.634-78.752z" fill="#c59e42"/><path d="M400.663 411.235c-35.823 0-64.903 28.844-65.283 64.578h130.583c-.38-35.734-29.476-64.578-65.3-64.578z" fill="#e6e6e6"/><path d="M400.665 425.442c-27.942 0-50.624 22.498-50.92 50.37h101.854c-.296-27.872-22.991-50.37-50.934-50.37z" fill="#c59e42"/><path d="M400.667 438.035c-20.957 0-37.968 16.873-38.19 37.777h76.39c-.222-20.904-17.243-37.777-38.2-37.777z" fill="#e6e6e6"/></g><g stroke-width="3.21"><path d="M456.743 794.923c-88.479 0-160.3 74.679-161.239 167.2h322.519c-.939-92.521-72.801-167.2-161.28-167.2z" fill="#c59e42"/><path d="M456.745 811.643c-79.631 0-144.27 67.21-145.115 150.48h290.267c-.845-83.27-65.521-150.48-145.152-150.48z" fill="#e6e6e6"/><path d="M456.747 826.69c-71.668 0-129.843 60.49-130.603 135.432h261.24c-.76-74.941-58.97-135.431-130.637-135.431z" fill="#c6a148"/><path d="M456.749 840.234c-64.502 0-116.859 54.44-117.543 121.888h235.116c-.685-67.447-53.072-121.888-117.573-121.888z" fill="#e6e6e6"/><path d="M456.75 852.423c-58.051 0-105.173 48.997-105.789 109.7h211.605c-.616-60.703-47.765-109.7-105.816-109.7z" fill="#c59e42"/><path d="M456.753 872.168c-47.602 0-86.242 40.178-86.747 89.954h173.516c-.506-49.776-39.168-89.954-86.77-89.954z" fill="#e6e6e6"/><path d="M456.755 891.958c-37.13 0-67.268 31.339-67.662 70.164h135.342c-.394-38.825-30.55-70.164-67.68-70.164z" fill="#c59e42"/><path d="M456.757 909.5c-27.847 0-50.451 23.503-50.747 52.622h101.507c-.295-29.119-22.913-52.623-50.76-52.623z" fill="#e6e6e6"/></g><g stroke-width="3.21"><path d="M312.001 896.533c-88.479 0-160.3 69.6-161.238 155.83H473.28c-.938-86.23-72.8-155.83-161.28-155.83z" fill="#c59e42"/><path d="M312.003 912.116c-79.63 0-144.27 62.64-145.114 140.246h290.267c-.846-77.606-65.522-140.246-145.153-140.246z" fill="#e6e6e6"/><path d="M312.005 926.14c-71.668 0-129.842 56.377-130.603 126.222h261.24c-.76-69.845-58.969-126.222-130.637-126.222z" fill="#c6a148"/><path d="M312.007 938.763c-64.501 0-116.858 50.739-117.543 113.6H429.58c-.684-62.861-53.072-113.6-117.573-113.6z" fill="#e6e6e6"/><path d="M312.009 950.122c-58.052 0-105.173 45.666-105.79 102.24h211.605c-.616-56.574-47.764-102.24-105.815-102.24z" fill="#c59e42"/><path d="M312.011 968.526c-47.602 0-86.242 37.445-86.747 83.836H398.78c-.505-46.391-39.167-83.836-86.769-83.836z" fill="#e6e6e6"/><path d="M312.013 986.97c-37.129 0-67.268 29.207-67.662 65.392h135.342c-.394-36.185-30.55-65.392-67.68-65.392z" fill="#c59e42"/><path d="M312.016 1003.318c-27.847 0-50.452 21.905-50.747 49.044h101.506c-.295-27.139-22.912-49.044-50.76-49.044z" fill="#e6e6e6"/></g><g stroke-width="3.21"><path d="M898.226 794.923c-88.479 0-160.3 74.679-161.239 167.2h322.52c-.94-92.521-72.802-167.2-161.281-167.2z" fill="#c59e42"/><path d="M898.228 811.643c-79.63 0-144.27 67.21-145.115 150.48h290.267c-.845-83.27-65.52-150.48-145.152-150.48z" fill="#e6e6e6"/><path d="M898.23 826.69c-71.668 0-129.843 60.49-130.603 135.432h261.24c-.76-74.941-58.97-135.431-130.637-135.431z" fill="#c6a148"/><path d="M898.232 840.234c-64.501 0-116.859 54.44-117.543 121.888h235.116c-.685-67.447-53.072-121.888-117.573-121.888z" fill="#e6e6e6"/><path d="M898.233 852.423c-58.05 0-105.172 48.997-105.788 109.7h211.604c-.616-60.703-47.765-109.7-105.816-109.7z" fill="#c59e42"/><path d="M898.236 872.168c-47.602 0-86.242 40.178-86.747 89.954h173.516c-.506-49.776-39.168-89.954-86.77-89.954z" fill="#e6e6e6"/><path d="M898.238 891.958c-37.13 0-67.268 31.339-67.662 70.164h135.342c-.394-38.825-30.55-70.164-67.68-70.164z" fill="#c59e42"/><path d="M898.24 909.5c-27.847 0-50.451 23.503-50.747 52.622H949c-.295-29.119-22.913-52.623-50.76-52.623z" fill="#e6e6e6"/></g><g transform="matrix(1.32878 0 0 1.29824 293.844 434.643)" stroke-width="3.21" filter="url(#prefix__q)"><path d="M400.656 355.781c-66.587 0-120.637 53.612-121.344 120.031h242.72c-.707-66.42-54.789-120.03-121.376-120.03z" fill="#c59e42"/><path d="M400.658 367.784c-59.928 0-108.574 48.25-109.21 108.029h218.447c-.636-59.778-49.309-108.029-109.237-108.029z" fill="#e6e6e6"/><path d="M400.66 378.587c-53.936 0-97.717 43.426-98.29 97.226h196.603c-.572-53.8-44.378-97.226-98.314-97.226z" fill="#c6a148"/><path d="M400.66 388.31c-48.541 0-87.944 39.083-88.46 87.502h176.943c-.515-48.42-39.94-87.502-88.483-87.502z" fill="#e6e6e6"/><path d="M400.662 397.06c-43.688 0-79.15 35.175-79.614 78.752h159.248c-.464-43.577-35.947-78.752-79.634-78.752z" fill="#c59e42"/><path d="M400.663 411.235c-35.823 0-64.903 28.844-65.283 64.578h130.583c-.38-35.734-29.476-64.578-65.3-64.578z" fill="#e6e6e6"/><path d="M400.665 425.442c-27.942 0-50.624 22.498-50.92 50.37h101.854c-.296-27.872-22.991-50.37-50.934-50.37z" fill="#c59e42"/><path d="M400.667 438.035c-20.957 0-37.968 16.873-38.19 37.777h76.39c-.222-20.904-17.243-37.777-38.2-37.777z" fill="#e6e6e6"/></g><g stroke-width="3.21"><path d="M565.114 896.533c-88.48 0-160.3 69.6-161.239 155.83h322.519c-.94-86.23-72.801-155.83-161.28-155.83z" fill="#c59e42"/><path d="M565.116 912.116c-79.631 0-144.27 62.64-145.115 140.246h290.267c-.845-77.606-65.521-140.246-145.152-140.246z" fill="#e6e6e6"/><path d="M565.118 926.14c-71.668 0-129.843 56.377-130.604 126.222h261.24c-.76-69.845-58.968-126.222-130.636-126.222z" fill="#c6a148"/><path d="M565.12 938.763c-64.502 0-116.86 50.739-117.544 113.6h235.117c-.685-62.861-53.073-113.6-117.574-113.6z" fill="#e6e6e6"/><path d="M565.12 950.122c-58.05 0-105.172 45.666-105.788 102.24h211.605c-.616-56.574-47.765-102.24-105.816-102.24z" fill="#c59e42"/><path d="M565.123 968.526c-47.602 0-86.241 37.445-86.746 83.836h173.515c-.505-46.391-39.167-83.836-86.769-83.836z" fill="#e6e6e6"/><path d="M565.126 986.97c-37.13 0-67.269 29.207-67.663 65.392h135.343c-.394-36.185-30.55-65.392-67.68-65.392z" fill="#c59e42"/><path d="M565.128 1003.318c-27.847 0-50.451 21.905-50.747 49.044h101.507c-.296-27.139-22.913-49.044-50.76-49.044z" fill="#e6e6e6"/></g></g></svg>