<svg xmlns="http://www.w3.org/2000/svg" width="234" height="333"><g transform="translate(0 -719.362)"><rect rx="8.919" ry="8.946" y="719.74" x=".378" height="332.244" width="233.244" fill="#fff" stroke="gray" stroke-width=".756"/><g stroke-width="3.181"><path d="M56.218 864.067h4.816v16.758h-4.816z"/><path d="M85.091 856.053c3.793 6.846 1.334 15.48-5.492 19.283-6.826 3.804-15.433 1.337-19.226-5.509a14.177 14.177 0 01-1.744-5.926c-.528 7.816-7.273 13.72-15.064 13.188-7.79-.531-13.676-7.297-13.146-15.11.53-7.814 7.275-13.718 15.065-13.187 2.045.14 4.036.724 5.86 1.713-6.677-4.017-8.862-12.725-4.855-19.447 4.006-6.722 12.687-8.914 19.39-4.895 6.702 4.019 8.887 12.726 4.88 19.448a14.314 14.314 0 01-4.904 4.924c6.837-3.795 15.444-1.329 19.236 5.518z"/></g><g style="line-height:0%;-inkscape-font-specification:'Sans Bold'"><path style="line-height:1.25" d="M17.206 754.495q0 .49-.092.862-.245.157-.531.157H9.047q-.674 0-.674-1.372 0-.235.02-.744.02-.53.02-.804 0-1.293.593-1.293h2.543v-18.107H8.445q-.654 0-.654-1.372 0-.294.03-.94.041-.667.041-1 0-.666.654-.666.184 0 .694.078.51.059.797.059 1.634 0 1.98-2.175h1.951V751.3q.684 0 1.47-.079.797-.098.95-.098.592 0 .735.608.113.53.113 2.763z" font-size="28.97" aria-label="1" font-weight="700" font-family="Levenim MT" letter-spacing="0" word-spacing="0"/></g><g style="line-height:0%;-inkscape-font-specification:'Sans Bold'"><path style="line-height:1.25" d="M26.62 741.684q0 13.83-4.674 13.83-4.74 0-4.74-13.907 0-14.43 4.834-14.43 4.58 0 4.58 14.507zm-2.455-.406q0-9.909-2.257-9.909-1.322 0-1.879 3.921-.35 2.473-.35 6.162 0 9.91 2.23 9.91 1.33 0 1.897-3.903.359-2.51.359-6.18z" font-size="27.659" aria-label="0" font-weight="700" font-family="Levenim MT" letter-spacing="0" word-spacing="0"/></g><g stroke-width="3.181"><path d="M16.402 775.116h1.605v5.586h-1.605z"/><path d="M26.026 772.445a4.735 4.735 0 01-1.83 6.428 4.705 4.705 0 01-6.41-1.837 4.726 4.726 0 01-.58-1.975 4.717 4.717 0 01-5.022 4.396 4.722 4.722 0 01-4.382-5.037 4.718 4.718 0 016.975-3.824 4.74 4.74 0 01-1.618-6.483 4.705 4.705 0 016.463-1.631 4.735 4.735 0 011.627 6.482 4.771 4.771 0 01-1.635 1.642 4.712 4.712 0 016.412 1.839z"/></g><g style="line-height:0%;-inkscape-font-specification:'Sans Bold'"><path style="line-height:1.25" d="M216.794 1017.23q0-.49.092-.863.245-.157.531-.157h7.536q.674 0 .674 1.372 0 .235-.02.745-.02.529-.02.803 0 1.294-.593 1.294h-2.543v18.107h3.104q.654 0 .654 1.371 0 .294-.03.941-.041.666-.041 1 0 .666-.654.666-.184 0-.694-.079-.51-.058-.797-.058-1.634 0-1.98 2.175h-1.951v-24.123q-.684 0-1.47.078-.797.098-.95.098-.592 0-.735-.608-.113-.529-.113-2.763z" font-size="28.97" aria-label="1" font-weight="700" font-family="Levenim MT" letter-spacing="0" word-spacing="0"/></g><g style="line-height:0%;-inkscape-font-specification:'Sans Bold'"><path style="line-height:1.25" d="M207.38 1030.04q0-13.83 4.674-13.83 4.74 0 4.74 13.908 0 14.429-4.834 14.429-4.58 0-4.58-14.507zm2.455.406q0 9.91 2.257 9.91 1.322 0 1.879-3.922.35-2.472.35-6.162 0-9.909-2.23-9.909-1.33 0-1.897 3.902-.359 2.511-.359 6.181z" font-size="27.659" aria-label="0" font-weight="700" font-family="Levenim MT" letter-spacing="0" word-spacing="0"/></g><g stroke-width="3.181"><path d="M215.99 996.608h1.606v-5.586h-1.605z"/><path d="M225.615 999.28a4.735 4.735 0 00-1.83-6.428 4.705 4.705 0 00-6.41 1.836 4.726 4.726 0 00-.58 1.976 4.717 4.717 0 00-5.022-4.397 4.722 4.722 0 00-4.382 5.037 4.718 4.718 0 006.975 3.825 4.74 4.74 0 00-1.619 6.482 4.705 4.705 0 006.464 1.632 4.735 4.735 0 001.627-6.483 4.771 4.771 0 00-1.635-1.641 4.712 4.712 0 006.412-1.84z"/></g><g stroke-width="3.181"><path d="M56.218 974.405h4.816v-16.757h-4.816z"/><path d="M85.091 982.42c3.793-6.846 1.334-15.48-5.492-19.284-6.826-3.803-15.433-1.337-19.226 5.51a14.177 14.177 0 00-1.744 5.926c-.528-7.816-7.273-13.72-15.064-13.189-7.79.532-13.676 7.297-13.146 15.111.53 7.814 7.275 13.718 15.065 13.186a14.314 14.314 0 005.86-1.713c-6.677 4.018-8.862 12.725-4.855 19.447 4.006 6.723 12.687 8.914 19.39 4.896 6.702-4.019 8.887-12.726 4.88-19.449a14.314 14.314 0 00-4.904-4.924c6.837 3.796 15.444 1.33 19.236-5.517z"/></g><g stroke-width="3.181"><path d="M56.218 797.319h4.816v16.757h-4.816z"/><path d="M85.091 789.304c3.793 6.847 1.334 15.48-5.492 19.284-6.826 3.804-15.433 1.337-19.226-5.51a14.177 14.177 0 01-1.744-5.926c-.528 7.817-7.273 13.72-15.064 13.189-7.79-.532-13.676-7.297-13.146-15.11.53-7.815 7.275-13.718 15.065-13.187 2.045.14 4.036.723 5.86 1.713-6.677-4.017-8.862-12.725-4.855-19.447 4.006-6.723 12.687-8.914 19.39-4.895 6.702 4.018 8.887 12.726 4.88 19.448a14.314 14.314 0 01-4.904 4.924c6.837-3.796 15.444-1.329 19.236 5.517z"/></g><g stroke-width="3.181"><path d="M114.588 830.693h4.816v16.757h-4.816z"/><path d="M143.462 822.678c3.792 6.847 1.333 15.48-5.493 19.284-6.826 3.804-15.433 1.337-19.225-5.51a14.177 14.177 0 01-1.745-5.926c-.528 7.817-7.273 13.72-15.063 13.189-7.79-.531-13.676-7.297-13.147-15.11.53-7.815 7.275-13.718 15.066-13.187 2.045.14 4.035.724 5.859 1.713-6.677-4.017-8.862-12.725-4.855-19.447 4.007-6.722 12.688-8.914 19.39-4.895 6.702 4.018 8.887 12.726 4.88 19.448a14.314 14.314 0 01-4.903 4.924c6.836-3.795 15.444-1.329 19.236 5.517z"/></g><g stroke-width="3.181"><path d="M172.959 797.319h4.815v16.757h-4.815z"/><path d="M201.832 789.304c3.792 6.847 1.333 15.48-5.492 19.284-6.826 3.804-15.434 1.337-19.226-5.51a14.177 14.177 0 01-1.745-5.926c-.527 7.817-7.272 13.72-15.063 13.189-7.79-.532-13.676-7.297-13.146-15.11.53-7.815 7.275-13.718 15.065-13.187 2.045.14 4.036.723 5.86 1.713-6.677-4.017-8.862-12.725-4.856-19.447 4.007-6.723 12.688-8.914 19.39-4.895 6.702 4.018 8.887 12.726 4.88 19.448a14.314 14.314 0 01-4.903 4.924c6.836-3.796 15.444-1.329 19.236 5.517z"/></g><g stroke-width="3.181"><path d="M172.959 864.067h4.815v16.758h-4.815z"/><path d="M201.832 856.053c3.792 6.846 1.333 15.48-5.492 19.283-6.826 3.804-15.434 1.337-19.226-5.509a14.177 14.177 0 01-1.745-5.926c-.527 7.816-7.272 13.72-15.063 13.188-7.79-.531-13.676-7.297-13.146-15.11.53-7.814 7.275-13.718 15.065-13.187 2.045.14 4.036.724 5.86 1.713-6.677-4.017-8.862-12.725-4.856-19.447 4.007-6.722 12.688-8.914 19.39-4.895s8.887 12.726 4.88 19.448a14.314 14.314 0 01-4.903 4.924c6.836-3.795 15.444-1.329 19.236 5.518z"/></g><g stroke-width="3.181"><path d="M56.218 907.657h4.816V890.9h-4.816z"/><path d="M85.091 915.672c3.793-6.847 1.334-15.48-5.492-19.284-6.826-3.804-15.433-1.337-19.226 5.51a14.177 14.177 0 00-1.744 5.926c-.528-7.817-7.273-13.72-15.064-13.189-7.79.532-13.676 7.297-13.146 15.11.53 7.815 7.275 13.718 15.065 13.187a14.314 14.314 0 005.86-1.713c-6.677 4.018-8.862 12.725-4.855 19.447 4.006 6.723 12.687 8.914 19.39 4.895 6.702-4.018 8.887-12.726 4.88-19.448a14.314 14.314 0 00-4.904-4.924c6.837 3.796 15.444 1.329 19.236-5.517z"/></g><g stroke-width="3.181"><path d="M114.588 941.031h4.816v-16.757h-4.816z"/><path d="M143.462 949.046c3.792-6.846 1.333-15.48-5.493-19.284-6.826-3.803-15.433-1.337-19.225 5.51a14.177 14.177 0 00-1.745 5.926c-.528-7.817-7.273-13.72-15.063-13.189-7.79.532-13.676 7.297-13.147 15.111.53 7.814 7.275 13.718 15.066 13.186a14.314 14.314 0 005.859-1.713c-6.677 4.018-8.862 12.725-4.855 19.447 4.007 6.723 12.688 8.914 19.39 4.896 6.702-4.02 8.887-12.726 4.88-19.449a14.314 14.314 0 00-4.903-4.924c6.836 3.796 15.444 1.33 19.236-5.517z"/></g><g stroke-width="3.181"><path d="M172.959 974.405h4.815v-16.757h-4.815z"/><path d="M201.832 982.42c3.792-6.846 1.333-15.48-5.492-19.284-6.826-3.803-15.434-1.337-19.226 5.51a14.177 14.177 0 00-1.745 5.926c-.527-7.816-7.272-13.72-15.063-13.189-7.79.532-13.676 7.297-13.146 15.111.53 7.814 7.275 13.718 15.065 13.186a14.314 14.314 0 005.86-1.713c-6.677 4.018-8.862 12.725-4.856 19.447 4.007 6.723 12.688 8.914 19.39 4.896 6.702-4.019 8.887-12.726 4.88-19.449a14.314 14.314 0 00-4.903-4.924c6.836 3.796 15.444 1.33 19.236-5.517z"/></g><g stroke-width="3.181"><path d="M172.959 907.657h4.815V890.9h-4.815z"/><path d="M201.832 915.672c3.792-6.847 1.333-15.48-5.492-19.284-6.826-3.804-15.434-1.337-19.226 5.51a14.177 14.177 0 00-1.745 5.926c-.527-7.817-7.272-13.72-15.063-13.189-7.79.532-13.676 7.297-13.146 15.11.53 7.815 7.275 13.718 15.065 13.187a14.314 14.314 0 005.86-1.713c-6.677 4.018-8.862 12.725-4.856 19.447 4.007 6.723 12.688 8.914 19.39 4.895 6.702-4.018 8.887-12.726 4.88-19.448a14.314 14.314 0 00-4.903-4.924c6.836 3.796 15.444 1.329 19.236-5.517z"/></g></g></svg>