<svg xmlns="http://www.w3.org/2000/svg" width="234" height="333"><g transform="translate(0 -719.362)"><rect rx="8.919" ry="8.946" y="719.74" x=".378" height="332.244" width="233.244" fill="#fff" stroke="gray" stroke-width=".756"/><g stroke-width="3.181"><path d="M56.218 864.067h4.816v16.758h-4.816z"/><path d="M85.091 856.053c3.793 6.846 1.334 15.48-5.492 19.283-6.826 3.804-15.433 1.337-19.226-5.509a14.177 14.177 0 01-1.744-5.926c-.528 7.816-7.273 13.72-15.064 13.188-7.79-.531-13.676-7.297-13.146-15.11.53-7.814 7.275-13.718 15.065-13.187 2.045.14 4.036.724 5.86 1.713-6.677-4.017-8.862-12.724-4.855-19.447 4.006-6.722 12.687-8.914 19.39-4.895 6.702 4.019 8.887 12.726 4.88 19.448a14.314 14.314 0 01-4.904 4.924c6.837-3.795 15.444-1.329 19.236 5.518z"/></g><g stroke-width="3.181"><path d="M16.402 775.116h1.605v5.586h-1.605z"/><path d="M26.026 772.445a4.735 4.735 0 01-1.83 6.428 4.705 4.705 0 01-6.41-1.837 4.726 4.726 0 01-.58-1.975 4.717 4.717 0 01-5.022 4.396 4.722 4.722 0 01-4.382-5.037 4.718 4.718 0 016.975-3.824 4.74 4.74 0 01-1.618-6.483 4.705 4.705 0 016.463-1.631 4.735 4.735 0 011.627 6.482 4.771 4.771 0 01-1.635 1.642 4.712 4.712 0 016.412 1.839z"/></g><g stroke-width="3.181"><path d="M215.99 996.608h1.606v-5.586h-1.606z"/><path d="M225.615 999.28a4.735 4.735 0 00-1.83-6.428 4.705 4.705 0 00-6.41 1.836 4.726 4.726 0 00-.581 1.976 4.717 4.717 0 00-5.021-4.397 4.722 4.722 0 00-4.382 5.037 4.718 4.718 0 006.975 3.825 4.74 4.74 0 00-1.619 6.482 4.705 4.705 0 006.464 1.632 4.735 4.735 0 001.626-6.483 4.771 4.771 0 00-1.634-1.641 4.712 4.712 0 006.412-1.84z"/></g><g stroke-width="3.181"><path d="M56.218 974.405h4.816v-16.757h-4.816z"/><path d="M85.091 982.42c3.793-6.846 1.334-15.48-5.492-19.284-6.826-3.803-15.433-1.337-19.226 5.51a14.177 14.177 0 00-1.744 5.926c-.528-7.816-7.273-13.72-15.064-13.189-7.79.532-13.676 7.297-13.146 15.111.53 7.814 7.275 13.718 15.065 13.186a14.314 14.314 0 005.86-1.713c-6.677 4.018-8.862 12.725-4.855 19.447 4.006 6.723 12.687 8.914 19.39 4.896 6.702-4.019 8.887-12.726 4.88-19.449a14.314 14.314 0 00-4.904-4.924c6.837 3.796 15.444 1.33 19.236-5.517z"/></g><g stroke-width="3.181"><path d="M56.218 797.319h4.816v16.757h-4.816z"/><path d="M85.091 789.304c3.793 6.847 1.334 15.48-5.492 19.284-6.826 3.804-15.433 1.337-19.226-5.51a14.177 14.177 0 01-1.744-5.926c-.528 7.817-7.273 13.72-15.064 13.189-7.79-.532-13.676-7.297-13.146-15.11.53-7.815 7.275-13.718 15.065-13.187 2.045.14 4.036.724 5.86 1.713-6.677-4.017-8.862-12.725-4.855-19.447 4.006-6.722 12.687-8.914 19.39-4.895 6.702 4.018 8.887 12.726 4.88 19.448a14.314 14.314 0 01-4.904 4.924c6.837-3.795 15.444-1.329 19.236 5.517z"/></g><g stroke-width="3.181"><path d="M114.588 897.441h4.816V914.2h-4.816z"/><path d="M143.462 889.427c3.792 6.846 1.333 15.48-5.493 19.283-6.826 3.804-15.433 1.337-19.225-5.509a14.177 14.177 0 01-1.745-5.926c-.528 7.816-7.273 13.72-15.063 13.188-7.79-.531-13.676-7.296-13.147-15.11.53-7.814 7.275-13.718 15.066-13.186 2.045.14 4.035.723 5.859 1.712-6.677-4.017-8.862-12.724-4.855-19.447 4.007-6.722 12.688-8.914 19.39-4.895s8.887 12.726 4.88 19.448a14.314 14.314 0 01-4.903 4.924c6.836-3.795 15.443-1.329 19.236 5.518z"/></g><g stroke-width="3.181"><path d="M172.958 797.319h4.816v16.757h-4.816z"/><path d="M201.832 789.304c3.792 6.847 1.333 15.48-5.493 19.284-6.825 3.804-15.433 1.337-19.225-5.51a14.177 14.177 0 01-1.745-5.926c-.528 7.817-7.272 13.72-15.063 13.189-7.79-.532-13.676-7.297-13.146-15.11.53-7.815 7.274-13.718 15.065-13.187 2.045.14 4.036.724 5.86 1.713-6.677-4.017-8.862-12.725-4.856-19.447 4.007-6.722 12.688-8.914 19.39-4.895 6.702 4.018 8.887 12.726 4.88 19.448a14.314 14.314 0 01-4.903 4.924c6.836-3.795 15.444-1.329 19.236 5.517z"/></g><g stroke-width="3.181"><path d="M172.958 864.067h4.816v16.758h-4.816z"/><path d="M201.832 856.053c3.792 6.846 1.333 15.48-5.493 19.283-6.825 3.804-15.433 1.337-19.225-5.509a14.177 14.177 0 01-1.745-5.926c-.528 7.816-7.272 13.72-15.063 13.188-7.79-.531-13.676-7.297-13.146-15.11.53-7.814 7.274-13.718 15.065-13.187 2.045.14 4.036.724 5.86 1.713-6.677-4.017-8.862-12.724-4.856-19.447 4.007-6.722 12.688-8.914 19.39-4.895s8.887 12.726 4.88 19.448a14.314 14.314 0 01-4.903 4.924c6.836-3.795 15.444-1.329 19.236 5.518z"/></g><g stroke-width="3.181"><path d="M56.218 907.657h4.816V890.9h-4.816z"/><path d="M85.091 915.672c3.793-6.847 1.334-15.48-5.492-19.284-6.826-3.803-15.433-1.337-19.226 5.51a14.177 14.177 0 00-1.744 5.926c-.528-7.817-7.273-13.72-15.064-13.189-7.79.532-13.676 7.297-13.146 15.11.53 7.815 7.275 13.718 15.065 13.187a14.314 14.314 0 005.86-1.713c-6.677 4.018-8.862 12.725-4.855 19.447 4.006 6.723 12.687 8.914 19.39 4.896 6.702-4.02 8.887-12.727 4.88-19.449a14.314 14.314 0 00-4.904-4.924c6.837 3.796 15.444 1.33 19.236-5.517z"/></g><g stroke-width="3.181"><path d="M172.958 974.405h4.816v-16.757h-4.816z"/><path d="M201.832 982.42c3.792-6.846 1.333-15.48-5.493-19.284-6.825-3.803-15.433-1.337-19.225 5.51a14.177 14.177 0 00-1.745 5.926c-.528-7.816-7.272-13.72-15.063-13.189-7.79.532-13.676 7.297-13.146 15.111.53 7.814 7.274 13.718 15.065 13.186a14.314 14.314 0 005.86-1.713c-6.677 4.018-8.862 12.725-4.856 19.447 4.007 6.723 12.688 8.914 19.39 4.896 6.702-4.019 8.887-12.726 4.88-19.449a14.314 14.314 0 00-4.903-4.924c6.836 3.796 15.444 1.33 19.236-5.517z"/></g><g stroke-width="3.181"><path d="M172.958 907.657h4.816V890.9h-4.816z"/><path d="M201.832 915.672c3.792-6.847 1.333-15.48-5.493-19.284-6.825-3.803-15.433-1.337-19.225 5.51a14.177 14.177 0 00-1.745 5.926c-.528-7.817-7.272-13.72-15.063-13.189-7.79.532-13.676 7.297-13.146 15.11.53 7.815 7.274 13.718 15.065 13.187a14.314 14.314 0 005.86-1.713c-6.677 4.018-8.862 12.725-4.856 19.447 4.007 6.723 12.688 8.914 19.39 4.896 6.702-4.02 8.887-12.727 4.88-19.449a14.314 14.314 0 00-4.903-4.924c6.836 3.796 15.444 1.33 19.236-5.517z"/></g><g style="line-height:0%;-inkscape-font-specification:'Sans Bold'"><path style="line-height:1.25" d="M26.62 740.93q0 6.046-2.105 9.832-2.635 4.752-8.115 4.752-3.205 0-5.29-1.294-2.523-1.584-2.523-4.675 0-.676.93-.676h2.806q.55 0 .929.638.569.946.872 1.217.778.637 2.276.637 2.522 0 3.925-2.395 1.1-1.932 1.232-4.752-2.218 1.797-5.309 1.797-3.925 0-6.257-2.82-2.2-2.647-2.2-6.722 0-4.289 2.408-6.78 2.408-2.511 6.599-2.511 9.822 0 9.822 13.753zm-5.176-4.346q0-2.105-1.12-3.573-1.232-1.623-3.223-1.623-2.048 0-3.261 1.584-1.1 1.45-1.1 3.612 0 2.202 1.08 3.632 1.177 1.564 3.281 1.564 2.086 0 3.262-1.583 1.08-1.43 1.08-3.613z" font-size="39.195" aria-label="9" font-weight="700" font-family="Levenim MT" letter-spacing="0" word-spacing="0"/></g><g style="line-height:0%;-inkscape-font-specification:'Sans Bold'"><path style="line-height:1.25" d="M207.38 1030.794q0-6.046 2.105-9.832 2.635-4.752 8.115-4.752 3.205 0 5.29 1.294 2.523 1.584 2.523 4.675 0 .676-.93.676h-2.806q-.55 0-.93-.637-.568-.947-.871-1.217-.778-.638-2.276-.638-2.522 0-3.925 2.395-1.1 1.932-1.232 4.752 2.218-1.796 5.309-1.796 3.925 0 6.257 2.82 2.2 2.646 2.2 6.722 0 4.288-2.408 6.78-2.408 2.51-6.599 2.51-9.822 0-9.822-13.752zm5.176 4.346q0 2.105 1.12 3.573 1.232 1.623 3.223 1.623 2.048 0 3.261-1.584 1.1-1.449 1.1-3.612 0-2.202-1.081-3.632-1.176-1.564-3.28-1.564-2.086 0-3.262 1.584-1.08 1.43-1.08 3.612z" font-size="39.195" aria-label="9" font-weight="700" font-family="Levenim MT" letter-spacing="0" word-spacing="0"/></g></g></svg>