<svg xmlns="http://www.w3.org/2000/svg" width="234" height="333"><g transform="translate(0 -719.362)"><rect rx="8.919" ry="8.946" y="719.74" x=".378" height="332.244" width="233.244" fill="#fff" stroke="gray" stroke-width=".756"/><g stroke-width="3.181"><path d="M114.588 924.344h4.816v-16.757h-4.816z"/><path d="M143.462 932.359c3.792-6.847 1.333-15.48-5.493-19.284-6.826-3.803-15.433-1.337-19.225 5.51a14.177 14.177 0 00-1.745 5.926c-.528-7.817-7.273-13.72-15.063-13.189-7.79.532-13.676 7.297-13.147 15.11.53 7.815 7.275 13.718 15.066 13.187a14.314 14.314 0 005.859-1.713c-6.677 4.018-8.862 12.725-4.855 19.447 4.007 6.723 12.688 8.914 19.39 4.896 6.702-4.02 8.887-12.727 4.88-19.449a14.314 14.314 0 00-4.903-4.924c6.836 3.796 15.444 1.33 19.236-5.517z"/></g><g stroke-width="3.181"><path d="M172.959 897.441h4.815V914.2h-4.815z"/><path d="M201.832 889.427c3.792 6.846 1.333 15.48-5.492 19.283-6.826 3.804-15.434 1.337-19.226-5.509a14.177 14.177 0 01-1.745-5.926c-.527 7.816-7.272 13.72-15.063 13.188-7.79-.531-13.676-7.296-13.146-15.11.53-7.814 7.275-13.718 15.065-13.186 2.045.139 4.036.723 5.86 1.712-6.677-4.017-8.862-12.724-4.856-19.447 4.007-6.722 12.688-8.914 19.39-4.895s8.887 12.726 4.88 19.448a14.314 14.314 0 01-4.903 4.924c6.836-3.795 15.444-1.329 19.236 5.518z"/></g><g stroke-width="3.181"><path d="M56.218 797.319h4.816v16.757h-4.816z"/><path d="M85.091 789.304c3.793 6.847 1.334 15.48-5.492 19.284-6.826 3.804-15.433 1.337-19.226-5.51a14.177 14.177 0 01-1.744-5.926c-.528 7.817-7.273 13.72-15.064 13.189-7.79-.532-13.676-7.297-13.146-15.11.53-7.815 7.275-13.718 15.065-13.187 2.045.14 4.036.723 5.86 1.713-6.677-4.017-8.862-12.725-4.855-19.447 4.006-6.723 12.687-8.914 19.39-4.895 6.702 4.018 8.887 12.726 4.88 19.448a14.314 14.314 0 01-4.904 4.924c6.837-3.796 15.444-1.329 19.236 5.517z"/></g><g stroke-width="3.181"><path d="M16.402 775.116h1.605v5.586h-1.605z"/><path d="M26.026 772.445a4.735 4.735 0 01-1.83 6.428 4.705 4.705 0 01-6.41-1.837 4.726 4.726 0 01-.58-1.975 4.717 4.717 0 01-5.022 4.396 4.722 4.722 0 01-4.382-5.037 4.718 4.718 0 016.975-3.824 4.74 4.74 0 01-1.618-6.483 4.705 4.705 0 016.463-1.631 4.735 4.735 0 011.627 6.482 4.771 4.771 0 01-1.635 1.642 4.712 4.712 0 016.412 1.839z"/></g><g style="line-height:0%;-inkscape-font-specification:'Sans Bold'"><path style="line-height:1.25" d="M26.62 747.228q0 4.191-2.834 6.374-2.484 1.912-6.607 1.912-4.085 0-6.57-2.047-2.724-2.26-2.724-6.433 0-4.384 4.399-6.451-3.386-2.26-3.386-6.452 0-3.69 2.76-5.485 2.264-1.468 5.963-1.468 3.368 0 5.54 1.719 2.392 1.931 2.392 5.37 0 3.94-3.368 6.297 4.435 1.97 4.435 6.664zM20.897 735q0-3.613-3.681-3.613-1.675 0-2.669.947-.993.927-.993 2.666 0 1.68 1.049 2.665.993.966 2.613.966 1.583 0 2.632-.985 1.049-.985 1.049-2.646zm.865 12.053q0-2.01-1.307-3.168-1.233-1.101-3.184-1.101-1.914 0-3.147 1.12-1.325 1.178-1.325 3.149 0 2.066 1.288 3.206 1.197 1.063 3.203 1.063 1.987 0 3.183-1.082 1.289-1.14 1.289-3.187z" font-size="122.842" aria-label="8" font-weight="700" font-family="Levenim MT" letter-spacing="0" word-spacing="0" stroke-width="3.181"/></g><g stroke-width="3.181"><path d="M216.56 996.608h1.605v-5.586h-1.606z"/><path d="M226.184 999.28a4.734 4.734 0 00-1.83-6.428 4.705 4.705 0 00-6.41 1.836 4.726 4.726 0 00-.581 1.976 4.717 4.717 0 00-5.021-4.397 4.722 4.722 0 00-4.382 5.037 4.718 4.718 0 006.975 3.825 4.74 4.74 0 00-1.619 6.482 4.705 4.705 0 006.464 1.632 4.735 4.735 0 001.626-6.483 4.771 4.771 0 00-1.634-1.641 4.712 4.712 0 006.412-1.84z"/></g><g style="line-height:0%;-inkscape-font-specification:'Sans Bold'"><path style="line-height:1.25" d="M207.38 1024.497q0-4.192 2.848-6.374 2.497-1.913 6.64-1.913 4.107 0 6.604 2.048 2.737 2.26 2.737 6.432 0 4.385-4.42 6.451 3.403 2.26 3.403 6.452 0 3.69-2.775 5.486-2.275 1.468-5.992 1.468-3.385 0-5.568-1.72-2.404-1.93-2.404-5.37 0-3.94 3.384-6.296-4.457-1.97-4.457-6.664zm5.752 12.227q0 3.612 3.7 3.612 1.683 0 2.681-.947 1-.927 1-2.665 0-1.68-1.055-2.666-.999-.966-2.627-.966-1.59 0-2.644.986-1.055.985-1.055 2.646zm-.87-12.053q0 2.009 1.314 3.167 1.24 1.101 3.2 1.101 1.924 0 3.163-1.12 1.332-1.178 1.332-3.148 0-2.067-1.295-3.207-1.202-1.062-3.219-1.062-1.997 0-3.2 1.082-1.294 1.14-1.294 3.187z" font-size="123.151" aria-label="8" font-weight="700" font-family="Levenim MT" letter-spacing="0" word-spacing="0" stroke-width="3.181"/></g><g stroke-width="3.181"><path d="M114.588 847.38h4.816v16.757h-4.816z"/><path d="M143.462 839.366c3.792 6.846 1.333 15.48-5.493 19.283-6.826 3.804-15.433 1.337-19.225-5.51a14.177 14.177 0 01-1.745-5.925c-.528 7.816-7.273 13.72-15.063 13.188-7.79-.531-13.676-7.297-13.147-15.11.53-7.815 7.275-13.718 15.066-13.187 2.045.14 4.035.724 5.859 1.713-6.677-4.017-8.862-12.725-4.855-19.447 4.007-6.722 12.688-8.914 19.39-4.895s8.887 12.726 4.88 19.448a14.314 14.314 0 01-4.903 4.924c6.836-3.795 15.444-1.329 19.236 5.518z"/></g><g stroke-width="3.181"><path d="M172.959 797.319h4.815v16.757h-4.815z"/><path d="M201.832 789.304c3.792 6.847 1.333 15.48-5.492 19.284-6.826 3.804-15.434 1.337-19.226-5.51a14.177 14.177 0 01-1.745-5.926c-.527 7.817-7.272 13.72-15.063 13.189-7.79-.532-13.676-7.297-13.146-15.11.53-7.815 7.275-13.718 15.065-13.187 2.045.14 4.036.723 5.86 1.713-6.677-4.017-8.862-12.725-4.856-19.447 4.007-6.723 12.688-8.914 19.39-4.895 6.702 4.018 8.887 12.726 4.88 19.448a14.314 14.314 0 01-4.903 4.924c6.836-3.796 15.444-1.329 19.236 5.517z"/></g><g stroke-width="3.181"><path d="M56.218 897.441h4.816V914.2h-4.816z"/><path d="M85.091 889.427c3.793 6.846 1.334 15.48-5.492 19.283-6.826 3.804-15.433 1.337-19.226-5.509a14.177 14.177 0 01-1.744-5.926c-.528 7.816-7.273 13.72-15.064 13.188-7.79-.531-13.676-7.296-13.146-15.11.53-7.814 7.275-13.718 15.065-13.186 2.045.139 4.036.723 5.86 1.712-6.677-4.017-8.862-12.724-4.855-19.447 4.006-6.722 12.687-8.914 19.39-4.895 6.702 4.019 8.887 12.726 4.88 19.448a14.314 14.314 0 01-4.904 4.924c6.837-3.795 15.444-1.329 19.236 5.518z"/></g><g stroke-width="3.181"><path d="M56.218 974.405h4.816v-16.757h-4.816z"/><path d="M85.091 982.42c3.793-6.846 1.334-15.48-5.492-19.284-6.826-3.803-15.433-1.337-19.226 5.51a14.177 14.177 0 00-1.744 5.926c-.528-7.816-7.273-13.72-15.064-13.189-7.79.532-13.676 7.297-13.146 15.111.53 7.814 7.275 13.718 15.065 13.186a14.314 14.314 0 005.86-1.713c-6.677 4.018-8.862 12.725-4.855 19.447 4.006 6.723 12.687 8.914 19.39 4.896 6.702-4.019 8.887-12.726 4.88-19.449a14.314 14.314 0 00-4.904-4.924c6.837 3.796 15.444 1.33 19.236-5.517z"/></g><g stroke-width="3.181"><path d="M172.959 974.405h4.815v-16.757h-4.815z"/><path d="M201.832 982.42c3.792-6.846 1.333-15.48-5.492-19.284-6.826-3.803-15.434-1.337-19.226 5.51a14.177 14.177 0 00-1.745 5.926c-.527-7.816-7.272-13.72-15.063-13.189-7.79.532-13.676 7.297-13.146 15.111.53 7.814 7.275 13.718 15.065 13.186a14.314 14.314 0 005.86-1.713c-6.677 4.018-8.862 12.725-4.856 19.447 4.007 6.723 12.688 8.914 19.39 4.896 6.702-4.019 8.887-12.726 4.88-19.449a14.314 14.314 0 00-4.903-4.924c6.836 3.796 15.444 1.33 19.236-5.517z"/></g></g></svg>