<svg xmlns="http://www.w3.org/2000/svg" height="333" width="234"><g transform="translate(0 -719.362)"><rect width="233.244" height="332.244" x=".378" y="719.74" ry="8.946" rx="8.919" fill="#fff" stroke="gray" stroke-width=".756"/><g stroke-width="3.181"><path d="M56.218 797.319h4.816v16.757h-4.816z"/><path d="M85.091 789.304c3.793 6.847 1.334 15.48-5.492 19.284-6.826 3.804-15.433 1.337-19.226-5.51a14.177 14.177 0 01-1.744-5.926c-.528 7.817-7.273 13.72-15.064 13.189-7.79-.532-13.676-7.297-13.146-15.11.53-7.815 7.275-13.718 15.065-13.187 2.045.14 4.036.724 5.86 1.713-6.677-4.017-8.862-12.725-4.855-19.447 4.006-6.722 12.687-8.914 19.39-4.895 6.702 4.018 8.887 12.726 4.88 19.448a14.314 14.314 0 01-4.904 4.924c6.837-3.795 15.444-1.329 19.236 5.517z"/></g><g stroke-width="3.181"><path d="M16.402 775.116h1.605v5.586h-1.605z"/><path d="M26.026 772.445a4.735 4.735 0 01-1.83 6.428 4.705 4.705 0 01-6.41-1.837 4.726 4.726 0 01-.58-1.975 4.717 4.717 0 01-5.022 4.396 4.722 4.722 0 01-4.382-5.037 4.718 4.718 0 016.975-3.824 4.74 4.74 0 01-1.618-6.483 4.705 4.705 0 016.463-1.631 4.735 4.735 0 011.627 6.482 4.771 4.771 0 01-1.635 1.642 4.712 4.712 0 016.412 1.839z"/></g><g stroke-width="3.181"><path d="M216.56 996.608h1.605v-5.586h-1.606z"/><path d="M226.184 999.28a4.734 4.734 0 00-1.831-6.428 4.705 4.705 0 00-6.409 1.836 4.726 4.726 0 00-.581 1.976 4.717 4.717 0 00-5.021-4.397 4.722 4.722 0 00-4.382 5.037 4.718 4.718 0 006.974 3.825 4.74 4.74 0 00-1.618 6.482 4.705 4.705 0 006.464 1.632 4.735 4.735 0 001.626-6.483 4.771 4.771 0 00-1.634-1.641 4.712 4.712 0 006.412-1.84z"/></g><g stroke-width="3.181"><path d="M114.588 897.441h4.816V914.2h-4.816z"/><path d="M143.462 889.427c3.792 6.846 1.333 15.48-5.493 19.283-6.826 3.804-15.433 1.337-19.225-5.509a14.177 14.177 0 01-1.745-5.926c-.528 7.816-7.273 13.72-15.063 13.188-7.79-.531-13.676-7.296-13.147-15.11.53-7.814 7.275-13.718 15.066-13.186 2.045.14 4.035.723 5.859 1.712-6.677-4.017-8.862-12.724-4.855-19.447 4.007-6.722 12.688-8.914 19.39-4.895s8.887 12.726 4.88 19.448a14.314 14.314 0 01-4.903 4.924c6.836-3.795 15.443-1.329 19.236 5.518z"/></g><g stroke-width="3.181"><path d="M172.958 797.319h4.816v16.757h-4.816z"/><path d="M201.832 789.304c3.792 6.847 1.333 15.48-5.493 19.284-6.825 3.804-15.433 1.337-19.225-5.51a14.177 14.177 0 01-1.745-5.926c-.528 7.817-7.272 13.72-15.063 13.189-7.79-.532-13.676-7.297-13.146-15.11.53-7.815 7.274-13.718 15.065-13.187 2.045.14 4.036.724 5.86 1.713-6.677-4.017-8.862-12.725-4.856-19.447 4.007-6.722 12.688-8.914 19.39-4.895 6.702 4.018 8.887 12.726 4.88 19.448a14.314 14.314 0 01-4.903 4.924c6.836-3.795 15.444-1.329 19.236 5.517z"/></g><g stroke-width="3.181"><path d="M56.218 974.405h4.816v-16.757h-4.816z"/><path d="M85.091 982.42c3.793-6.846 1.334-15.48-5.492-19.284-6.826-3.803-15.433-1.337-19.226 5.51a14.177 14.177 0 00-1.744 5.926c-.528-7.816-7.273-13.72-15.064-13.189-7.79.532-13.676 7.297-13.146 15.111.53 7.814 7.275 13.718 15.065 13.186a14.314 14.314 0 005.86-1.713c-6.677 4.018-8.862 12.725-4.855 19.447 4.006 6.723 12.687 8.914 19.39 4.896 6.702-4.019 8.887-12.726 4.88-19.449a14.314 14.314 0 00-4.904-4.924c6.837 3.796 15.444 1.33 19.236-5.517z"/></g><g stroke-width="3.181"><path d="M172.958 974.405h4.816v-16.757h-4.816z"/><path d="M201.832 982.42c3.792-6.846 1.333-15.48-5.493-19.284-6.825-3.803-15.433-1.337-19.225 5.51a14.177 14.177 0 00-1.745 5.926c-.528-7.816-7.272-13.72-15.063-13.189-7.79.532-13.676 7.297-13.146 15.111.53 7.814 7.274 13.718 15.065 13.186a14.314 14.314 0 005.86-1.713c-6.677 4.018-8.862 12.725-4.856 19.447 4.007 6.723 12.688 8.914 19.39 4.896 6.702-4.019 8.887-12.726 4.88-19.449a14.314 14.314 0 00-4.903-4.924c6.836 3.796 15.444 1.33 19.236-5.517z"/></g><g style="line-height:0%;-inkscape-font-specification:'Sans Bold'"><path d="M26.62 745.958q0 4.386-2.637 6.971-2.618 2.585-6.962 2.585-4.169 0-6.593-2.056-2.637-2.193-2.637-6.325 0-.666 1.047-.666h2.54q.408 0 .757.117.116.196.155.51.33 2.212 1.26 3.172 1.047 1.077 3.22 1.077 2.171 0 3.51-1.547 1.26-1.469 1.26-3.682 0-5.463-4.48-5.463-1.629 0-3.277 1.136h-3.2q-.446 0-.853-.118-.194-.196-.194-.45 0-2.781.291-7.011l.504-7.03h14.544q.504 0 .911.156.175.392.175 2.742 0 .392-.039.646-.136.627-1.125.627h-10.53q.059 1.057-.174 3.231-.232 2.154-.174 3.212 1.997-1.254 4.169-1.254 3.995 0 6.321 2.742 2.211 2.585 2.211 6.678z" style="line-height:1.25" font-size="39.909" aria-label="5" font-weight="700" font-family="Levenim MT" letter-spacing="0" word-spacing="0"/></g><g style="line-height:0%;-inkscape-font-specification:'Sans Bold'"><path d="M207.38 1025.767q0-4.387 2.637-6.972 2.618-2.585 6.962-2.585 4.169 0 6.593 2.056 2.637 2.194 2.637 6.326 0 .666-1.047.666h-2.54q-.408 0-.757-.118-.116-.196-.155-.509-.33-2.213-1.26-3.172-1.047-1.078-3.22-1.078-2.171 0-3.51 1.548-1.26 1.468-1.26 3.681 0 5.464 4.48 5.464 1.629 0 3.277-1.136h3.2q.446 0 .853.117.194.196.194.45 0 2.782-.291 7.012l-.504 7.03h-14.544q-.504 0-.911-.157-.175-.392-.175-2.741 0-.392.039-.647.136-.626 1.125-.626h10.53q-.059-1.058.174-3.231.232-2.155.174-3.212-1.997 1.253-4.169 1.253-3.995 0-6.322-2.741-2.21-2.585-2.21-6.678z" style="line-height:1.25" font-size="39.909" aria-label="5" font-weight="700" font-family="Levenim MT" letter-spacing="0" word-spacing="0"/></g></g></svg>