<svg xmlns="http://www.w3.org/2000/svg" width="234" height="333"><g transform="translate(0 -719.362)"><rect rx="8.919" ry="8.946" y="719.74" x=".378" height="332.244" width="233.244" fill="#fff" stroke="gray" stroke-width=".756"/><g stroke-width="3.181"><path d="M114.588 797.319h4.816v16.757h-4.816z"/><path d="M143.462 789.304c3.792 6.847 1.333 15.48-5.493 19.284-6.826 3.804-15.433 1.337-19.225-5.51a14.177 14.177 0 01-1.745-5.926c-.528 7.817-7.273 13.72-15.063 13.189-7.79-.532-13.676-7.297-13.147-15.11.53-7.815 7.275-13.718 15.066-13.187 2.045.14 4.035.724 5.859 1.713-6.677-4.017-8.862-12.725-4.855-19.447 4.007-6.722 12.688-8.914 19.39-4.895 6.702 4.018 8.887 12.726 4.88 19.448a14.314 14.314 0 01-4.903 4.924c6.836-3.795 15.443-1.329 19.236 5.517z"/></g><g stroke-width="3.181"><path d="M16.402 775.116h1.605v5.586h-1.605z"/><path d="M26.026 772.445a4.735 4.735 0 01-1.83 6.428 4.705 4.705 0 01-6.41-1.837 4.726 4.726 0 01-.58-1.975 4.717 4.717 0 01-5.022 4.396 4.722 4.722 0 01-4.382-5.037 4.718 4.718 0 016.975-3.824 4.74 4.74 0 01-1.618-6.483 4.705 4.705 0 016.463-1.631 4.735 4.735 0 011.627 6.482 4.771 4.771 0 01-1.635 1.642 4.712 4.712 0 016.412 1.839z"/></g><g stroke-width="3.181"><path d="M216.56 996.608h1.605v-5.586h-1.606z"/><path d="M226.184 999.28a4.734 4.734 0 00-1.831-6.428 4.705 4.705 0 00-6.409 1.836 4.726 4.726 0 00-.581 1.976 4.717 4.717 0 00-5.021-4.397 4.722 4.722 0 00-4.382 5.037 4.718 4.718 0 006.974 3.825 4.74 4.74 0 00-1.618 6.482 4.705 4.705 0 006.464 1.632 4.735 4.735 0 001.626-6.483 4.771 4.771 0 00-1.634-1.641 4.712 4.712 0 006.412-1.84z"/></g><g stroke-width="3.181"><path d="M114.588 974.405h4.816v-16.757h-4.816z"/><path d="M143.462 982.42c3.792-6.846 1.333-15.48-5.493-19.284-6.826-3.803-15.433-1.337-19.225 5.51a14.177 14.177 0 00-1.745 5.926c-.528-7.816-7.273-13.72-15.063-13.189-7.79.532-13.676 7.297-13.147 15.111.53 7.814 7.275 13.718 15.066 13.186a14.314 14.314 0 005.859-1.713c-6.677 4.018-8.862 12.725-4.855 19.447 4.007 6.723 12.688 8.914 19.39 4.896 6.702-4.019 8.887-12.726 4.88-19.449a14.314 14.314 0 00-4.903-4.924c6.836 3.796 15.443 1.33 19.236-5.517z"/></g><g style="line-height:0%;-inkscape-font-specification:'Sans Bold'"><path style="line-height:1.25" d="M26.488 749.757l-.697 5.757h-18q.415-4.954 3.845-8.753l6.107-5.405q3.185-2.86 3.185-5.738 0-1.92-1.055-3.055-1.037-1.155-2.865-1.155-2.111 0-3.148 1.175-.678.783-1.037 2.408-.358 1.724-.565 1.998-.302.098-.697.098H9.186q-.415 0-.716-.177-.132-.41-.132-.92 0-4.093 2.582-6.502 2.469-2.31 6.427-2.31 3.675 0 6.012 2.036 2.488 2.154 2.488 5.914 0 3.702-2.751 6.776-.962 1.097-5.466 4.68-3.28 2.644-4.034 4.759h8.783l.151-1.762q.207-.94 1.112-.94h1.885q1.093 0 .961 1.116z" font-size="39.346" aria-label="2" font-weight="700" font-family="Levenim MT" letter-spacing="0" word-spacing="0"/></g><g style="line-height:0%;-inkscape-font-specification:'Sans Bold'"><path style="line-height:1.25" d="M207.512 1021.968l.697-5.758h18q-.415 4.955-3.845 8.754l-6.107 5.405q-3.185 2.859-3.185 5.738 0 1.919 1.055 3.054 1.037 1.156 2.865 1.156 2.111 0 3.148-1.175.678-.783 1.037-2.409.358-1.723.565-1.997.302-.098.697-.098h2.375q.415 0 .716.176.132.411.132.92 0 4.093-2.582 6.502-2.469 2.31-6.427 2.31-3.675 0-6.013-2.036-2.487-2.154-2.487-5.914 0-3.701 2.751-6.776.962-1.096 5.466-4.68 3.28-2.644 4.034-4.759h-8.783l-.151 1.763q-.208.94-1.112.94h-1.885q-1.093 0-.961-1.116z" font-size="39.346" aria-label="2" font-weight="700" font-family="Levenim MT" letter-spacing="0" word-spacing="0"/></g></g></svg>