<svg xmlns="http://www.w3.org/2000/svg" width="234" height="333"><g transform="translate(0 -719.362)"><rect rx="8.919" ry="8.946" y="719.74" x=".378" height="332.244" width="233.244" fill="#fff" stroke="gray" stroke-width=".756"/><path d="M114.583 797.181h4.826v16.783h-4.826z"/><path d="M143.52 789.154c3.801 6.857 1.337 15.504-5.504 19.313-6.841 3.81-15.468 1.34-19.268-5.517a14.192 14.192 0 01-1.75-5.936c-.528 7.829-7.288 13.741-15.096 13.21-7.807-.533-13.706-7.309-13.175-15.135.53-7.826 7.29-13.739 15.098-13.207 2.05.14 4.045.725 5.873 1.716-6.692-4.024-8.882-12.745-4.866-19.478 4.016-6.732 12.716-8.927 19.433-4.902 6.717 4.025 8.907 12.745 4.891 19.478a14.341 14.341 0 01-4.914 4.932c6.851-3.802 15.478-1.331 19.278 5.526zM16.178 774.944h1.61v5.594h-1.61z"/><path d="M25.824 772.268a4.74 4.74 0 01-1.835 6.438 4.717 4.717 0 01-6.423-1.84 4.73 4.73 0 01-.582-1.978 4.726 4.726 0 01-5.033 4.403 4.73 4.73 0 01-4.391-5.045 4.727 4.727 0 016.99-3.83 4.745 4.745 0 01-1.622-6.492 4.717 4.717 0 016.478-1.635 4.74 4.74 0 011.63 6.493 4.78 4.78 0 01-1.638 1.644 4.724 4.724 0 016.426 1.842zM216.78 996.78h1.61v-5.594h-1.61z"/><path d="M226.426 999.456a4.74 4.74 0 00-1.835-6.438 4.717 4.717 0 00-6.422 1.84 4.73 4.73 0 00-.583 1.978 4.726 4.726 0 00-5.032-4.403 4.73 4.73 0 00-4.392 5.045 4.727 4.727 0 006.99 3.83 4.745 4.745 0 00-1.622 6.493 4.717 4.717 0 006.478 1.634 4.74 4.74 0 001.63-6.493 4.78 4.78 0 00-1.638-1.644 4.724 4.724 0 006.426-1.842zM114.583 897.46h4.826v16.783h-4.826z"/><path d="M143.52 889.432c3.801 6.857 1.337 15.504-5.504 19.314-6.841 3.81-15.468 1.34-19.268-5.518a14.192 14.192 0 01-1.75-5.935c-.528 7.828-7.288 13.741-15.096 13.209-7.807-.533-13.706-7.308-13.175-15.135.53-7.826 7.29-13.738 15.098-13.206 2.05.14 4.045.724 5.873 1.715-6.692-4.023-8.882-12.744-4.866-19.477 4.016-6.733 12.716-8.928 19.433-4.903 6.717 4.025 8.907 12.746 4.891 19.479a14.341 14.341 0 01-4.914 4.931c6.851-3.801 15.478-1.33 19.278 5.526z"/><g><path d="M114.583 974.543h4.826V957.76h-4.826z"/><path d="M143.52 982.57c3.801-6.856 1.337-15.503-5.504-19.313-6.841-3.81-15.468-1.34-19.268 5.518a14.192 14.192 0 00-1.75 5.935c-.528-7.828-7.288-13.741-15.096-13.209-7.807.532-13.706 7.308-13.175 15.134.53 7.827 7.29 13.74 15.098 13.207 2.05-.14 4.045-.725 5.873-1.715-6.692 4.023-8.882 12.744-4.866 19.477 4.016 6.733 12.716 8.928 19.433 4.903 6.717-4.025 8.907-12.746 4.891-19.479a14.341 14.341 0 00-4.914-4.931c6.851 3.8 15.478 1.33 19.278-5.527z"/></g><g style="line-height:0%;-inkscape-font-specification:'Sans Bold'" aria-label="3" font-weight="700" font-size="3.779" font-family="Levenim MT" letter-spacing="0" word-spacing="0" stroke-width=".315"><path style="line-height:1.25" d="M26.42 747.302q0 3.946-2.82 6.074-2.544 1.935-6.665 1.935-9.387 0-9.387-8.706 0-.406.139-.774.295-.174.67-.174h2.563q.375 0 .69.174.1.271.158.639.336 2.399 1.38 3.482 1.164 1.2 3.57 1.2 1.972 0 3.214-1.045 1.301-1.122 1.301-3.018 0-4.024-4.476-4.72-.552-.078-.828-.233-.158-.31-.158-3.134 0-.367.178-.696 1.479-.426 2.958-.87 1.557-.697 1.557-2.922 0-3.366-4.022-3.366-1.854 0-2.899.89-.552.483-1.144 1.644-.433.89-.867.89H8.988q-.966 0-.966-.851 0-3.231 2.583-5.108 2.327-1.683 5.718-1.683 3.905 0 6.37 1.606 2.898 1.877 2.898 5.533 0 4.41-4.436 5.997 5.264 2.186 5.264 7.236z" font-size="40.001"/></g><g style="line-height:0%;-inkscape-font-specification:'Sans Bold'" aria-label="3" font-weight="700" font-size="3.779" font-family="Levenim MT" letter-spacing="0" word-spacing="0" stroke-width=".315"><path style="line-height:1.25" d="M207.58 1024.423q0-3.947 2.82-6.075 2.544-1.935 6.665-1.935 9.386 0 9.386 8.706 0 .406-.138.774-.295.174-.67.174h-2.564q-.374 0-.69-.174-.098-.27-.157-.638-.336-2.4-1.38-3.483-1.164-1.2-3.57-1.2-1.972 0-3.214 1.046-1.301 1.122-1.301 3.017 0 4.025 4.476 4.721.552.077.828.232.158.31.158 3.134 0 .368-.178.697-1.479.425-2.958.87-1.557.697-1.557 2.922 0 3.366 4.022 3.366 1.854 0 2.899-.89.552-.484 1.144-1.645.433-.89.867-.89h2.544q.966 0 .966.852 0 3.23-2.583 5.107-2.327 1.683-5.718 1.683-3.905 0-6.37-1.606-2.898-1.876-2.898-5.533 0-4.41 4.436-5.997-5.265-2.186-5.265-7.235z" font-size="40.001"/></g></g></svg>