<svg xmlns="http://www.w3.org/2000/svg" height="333" width="234"><g transform="translate(0 -719.362)"><rect width="233.244" height="332.244" x=".378" y="719.74" ry="8.946" rx="8.919" fill="#fff" stroke="gray" stroke-width=".756"/><g stroke-width="3.181"><path d="M56.218 797.319h4.816v16.757h-4.816z"/><path d="M85.091 789.304c3.793 6.847 1.334 15.48-5.492 19.284-6.826 3.804-15.433 1.337-19.226-5.51a14.177 14.177 0 01-1.744-5.926c-.528 7.817-7.273 13.72-15.064 13.189-7.79-.532-13.676-7.297-13.146-15.11.53-7.815 7.275-13.718 15.065-13.187 2.045.14 4.036.724 5.86 1.713-6.677-4.017-8.862-12.725-4.855-19.447 4.006-6.722 12.687-8.914 19.39-4.895 6.702 4.018 8.887 12.726 4.88 19.448a14.314 14.314 0 01-4.904 4.924c6.837-3.795 15.444-1.329 19.236 5.517z"/></g><g stroke-width="3.181"><path d="M16.402 775.116h1.605v5.586h-1.605z"/><path d="M26.026 772.445a4.735 4.735 0 01-1.83 6.428 4.705 4.705 0 01-6.41-1.837 4.726 4.726 0 01-.58-1.975 4.717 4.717 0 01-5.022 4.396 4.722 4.722 0 01-4.382-5.037 4.718 4.718 0 016.975-3.824 4.74 4.74 0 01-1.618-6.483 4.705 4.705 0 016.463-1.631 4.735 4.735 0 011.627 6.482 4.771 4.771 0 01-1.635 1.642 4.712 4.712 0 016.412 1.839z"/></g><g stroke-width="3.181"><path d="M216.56 996.608h1.605v-5.586h-1.606z"/><path d="M226.184 999.28a4.734 4.734 0 00-1.831-6.428 4.705 4.705 0 00-6.409 1.836 4.726 4.726 0 00-.581 1.976 4.717 4.717 0 00-5.021-4.397 4.722 4.722 0 00-4.382 5.037 4.718 4.718 0 006.974 3.825 4.74 4.74 0 00-1.618 6.482 4.705 4.705 0 006.464 1.632 4.735 4.735 0 001.626-6.483 4.771 4.771 0 00-1.634-1.641 4.712 4.712 0 006.412-1.84z"/></g><g stroke-width="3.181"><path d="M172.958 797.319h4.816v16.757h-4.816z"/><path d="M201.832 789.304c3.792 6.847 1.333 15.48-5.493 19.284-6.825 3.804-15.433 1.337-19.225-5.51a14.177 14.177 0 01-1.745-5.926c-.528 7.817-7.272 13.72-15.063 13.189-7.79-.532-13.676-7.297-13.146-15.11.53-7.815 7.274-13.718 15.065-13.187 2.045.14 4.036.724 5.86 1.713-6.677-4.017-8.862-12.725-4.856-19.447 4.007-6.722 12.688-8.914 19.39-4.895 6.702 4.018 8.887 12.726 4.88 19.448a14.314 14.314 0 01-4.903 4.924c6.836-3.795 15.444-1.329 19.236 5.517z"/></g><g stroke-width="3.181"><path d="M56.218 974.405h4.816v-16.757h-4.816z"/><path d="M85.091 982.42c3.793-6.846 1.334-15.48-5.492-19.284-6.826-3.803-15.433-1.337-19.226 5.51a14.177 14.177 0 00-1.744 5.926c-.528-7.816-7.273-13.72-15.064-13.189-7.79.532-13.676 7.297-13.146 15.111.53 7.814 7.275 13.718 15.065 13.186a14.314 14.314 0 005.86-1.713c-6.677 4.018-8.862 12.725-4.855 19.447 4.006 6.723 12.687 8.914 19.39 4.896 6.702-4.019 8.887-12.726 4.88-19.449a14.314 14.314 0 00-4.904-4.924c6.837 3.796 15.444 1.33 19.236-5.517z"/></g><g stroke-width="3.181"><path d="M172.958 974.405h4.816v-16.757h-4.816z"/><path d="M201.832 982.42c3.792-6.846 1.333-15.48-5.493-19.284-6.825-3.803-15.433-1.337-19.225 5.51a14.177 14.177 0 00-1.745 5.926c-.528-7.816-7.272-13.72-15.063-13.189-7.79.532-13.676 7.297-13.146 15.111.53 7.814 7.274 13.718 15.065 13.186a14.314 14.314 0 005.86-1.713c-6.677 4.018-8.862 12.725-4.856 19.447 4.007 6.723 12.688 8.914 19.39 4.896 6.702-4.019 8.887-12.726 4.88-19.449a14.314 14.314 0 00-4.903-4.924c6.836 3.796 15.444 1.33 19.236-5.517z"/></g><g style="line-height:0%;-inkscape-font-specification:'Sans Bold'"><path d="M26.62 754.512q0 .413-.138.806-.31.196-.655.196h-11.07q-1.276 0-1.276-1.474 0-.235.035-.825.034-.59.034-.904 0-.688.259-.884.19-.138.845-.138h4.31v-3.026H9.291q-1.5 0-1.5-1.592 0-.275.052-1.002.051-.747.051-1.179 0-.668.673-1.67l9.966-14.935q.466-.707 1.173-.707h2.276q.81 0 .81 1.021v16.036q.621 0 1.414-.04.81-.039 1.035-.039.93 0 1.155.53.224.512.224 2.555 0 .374-.052.57-.103.452-.793.452h-2.983v3.026q.638 0 1.449-.039.81-.04 1.017-.04.983 0 1.19.57.172.472.172 2.732zm-7.587-21.026q-.948 1.65-7 10.749h6.931q0-1.042-.034-3.577-.052-2.299-.035-3.596.018-1.965.138-3.576z" style="line-height:1.25" font-size="37.699" aria-label="4" font-weight="700" font-family="Levenim MT" letter-spacing="0" word-spacing="0"/></g><g style="line-height:0%;-inkscape-font-specification:'Sans Bold'"><path d="M207.38 1017.213q0-.413.138-.806.31-.197.655-.197h11.07q1.276 0 1.276 1.474 0 .236-.035.825-.034.59-.034.904 0 .688-.259.885-.19.137-.845.137h-4.31v3.027h9.673q1.5 0 1.5 1.591 0 .275-.052 1.002-.051.747-.051 1.18 0 .668-.673 1.67l-9.966 14.934q-.466.708-1.173.708h-2.276q-.81 0-.81-1.022v-16.035q-.621 0-1.414.04-.81.039-1.035.039-.93 0-1.155-.531-.224-.511-.224-2.555 0-.373.052-.57.103-.452.793-.452h2.983v-3.026q-.638 0-1.449.04-.81.039-1.017.039-.983 0-1.19-.57-.172-.472-.172-2.732zm7.587 21.026q.948-1.65 7-10.75h-6.931q0 1.042.034 3.577.052 2.3.035 3.596-.018 1.966-.138 3.577z" style="line-height:1.25" font-size="37.699" aria-label="4" font-weight="700" font-family="Levenim MT" letter-spacing="0" word-spacing="0"/></g></g></svg>