<svg xmlns="http://www.w3.org/2000/svg" width="234" height="333"><g transform="translate(0 -719.362)"><rect rx="8.919" ry="8.946" y="719.74" x=".378" height="332.244" width="233.244" fill="#fff" stroke="gray" stroke-width=".756"/><path d="M58.63 814.076l28.243-28.336-28.243-28.337-28.244 28.337zM58.63 1014.321l28.243-28.336-28.243-28.337-28.244 28.337zM58.63 947.573l28.243-28.337L58.63 890.9l-28.244 28.336zM58.63 880.825l28.243-28.337-28.243-28.337-28.244 28.337zM175.37 814.076l28.244-28.336-28.244-28.337-28.243 28.337zM175.37 1014.321l28.244-28.336-28.244-28.337-28.243 28.337zM175.37 947.573l28.244-28.337L175.37 890.9l-28.243 28.336zM175.37 880.825l28.244-28.337-28.244-28.337-28.243 28.337zM117 914.199l28.244-28.337L117 857.526l-28.244 28.336zM17.206 780.702l9.414-9.445-9.414-9.446-9.415 9.446zM216.794 991.022l9.415 9.446-9.415 9.445-9.414-9.445z" fill="red"/><g style="line-height:0%;-inkscape-font-specification:'Sans Bold'"><path style="line-height:1.25" d="M26.62 740.93q0 6.046-2.105 9.832-2.635 4.752-8.115 4.752-3.205 0-5.29-1.294-2.523-1.584-2.523-4.675 0-.676.93-.676h2.806q.55 0 .929.638.569.946.872 1.217.778.637 2.276.637 2.522 0 3.925-2.395 1.1-1.932 1.232-4.752-2.218 1.797-5.309 1.797-3.925 0-6.257-2.82-2.2-2.647-2.2-6.722 0-4.289 2.408-6.78 2.408-2.511 6.599-2.511 9.822 0 9.822 13.753zm-5.176-4.346q0-2.105-1.12-3.573-1.232-1.623-3.223-1.623-2.048 0-3.261 1.584-1.1 1.449-1.1 3.612 0 2.202 1.08 3.632 1.177 1.564 3.281 1.564 2.086 0 3.262-1.583 1.08-1.43 1.08-3.613z" font-size="39.195" aria-label="9" font-weight="700" font-family="Levenim MT" letter-spacing="0" word-spacing="0" fill="red"/></g><g style="line-height:0%;-inkscape-font-specification:'Sans Bold'"><path style="line-height:1.25" d="M207.38 1030.794q0-6.046 2.105-9.832 2.635-4.752 8.115-4.752 3.205 0 5.29 1.294 2.523 1.584 2.523 4.675 0 .676-.93.676h-2.806q-.55 0-.929-.637-.569-.947-.872-1.217-.778-.638-2.276-.638-2.522 0-3.925 2.395-1.1 1.932-1.232 4.752 2.218-1.796 5.309-1.796 3.925 0 6.257 2.82 2.2 2.646 2.2 6.722 0 4.288-2.408 6.78-2.408 2.51-6.599 2.51-9.822 0-9.822-13.752zm5.176 4.346q0 2.105 1.12 3.573 1.232 1.623 3.223 1.623 2.048 0 3.261-1.584 1.1-1.449 1.1-3.612 0-2.202-1.08-3.632-1.177-1.564-3.281-1.564-2.086 0-3.262 1.584-1.08 1.43-1.08 3.612z" font-size="39.195" aria-label="9" font-weight="700" font-family="Levenim MT" letter-spacing="0" word-spacing="0" fill="red"/></g></g></svg>