<svg xmlns="http://www.w3.org/2000/svg" width="234" height="333"><g transform="translate(0 -719.362)"><rect rx="8.919" ry="8.946" y="719.74" x=".378" height="332.244" width="233.244" fill="#fff" stroke="gray" stroke-width=".756"/><path d="M58.63 814.076l28.243-28.336-28.243-28.337-28.244 28.337zM58.63 1014.321l28.243-28.336-28.243-28.337-28.244 28.337zM58.63 947.573l28.243-28.337L58.63 890.9l-28.244 28.336zM58.63 880.825l28.243-28.337-28.243-28.337-28.244 28.337zM175.37 814.076l28.244-28.336-28.244-28.337-28.243 28.337zM175.37 1014.321l28.244-28.336-28.244-28.337-28.243 28.337zM175.37 947.573l28.244-28.337L175.37 890.9l-28.243 28.336zM175.37 880.825l28.244-28.337-28.244-28.337-28.243 28.337zM117 980.947l28.244-28.337L117 924.274 88.756 952.61zM117 847.45l28.244-28.336L117 790.777l-28.244 28.337z" fill="red"/><g style="line-height:0%;-inkscape-font-specification:'Sans Bold'"><path style="line-height:1.25" d="M17.206 754.495q0 .49-.092.862-.245.157-.531.157H9.047q-.674 0-.674-1.372 0-.235.02-.744.02-.53.02-.804 0-1.293.593-1.293h2.543v-18.107H8.445q-.654 0-.654-1.372 0-.294.03-.94.041-.667.041-1 0-.666.654-.666.184 0 .694.078.51.059.797.059 1.634 0 1.98-2.175h1.951V751.3q.684 0 1.47-.079.797-.098.95-.098.592 0 .735.608.113.53.113 2.763z" font-size="28.97" aria-label="1" font-weight="700" font-family="Levenim MT" letter-spacing="0" word-spacing="0" fill="red"/></g><g style="line-height:0%;-inkscape-font-specification:'Sans Bold'"><path style="line-height:1.25" d="M26.62 741.684q0 13.83-4.674 13.83-4.74 0-4.74-13.907 0-14.43 4.834-14.43 4.58 0 4.58 14.507zm-2.455-.406q0-9.909-2.257-9.909-1.322 0-1.879 3.921-.35 2.473-.35 6.162 0 9.91 2.23 9.91 1.33 0 1.897-3.903.359-2.51.359-6.18z" font-size="27.659" aria-label="0" font-weight="700" font-family="Levenim MT" letter-spacing="0" word-spacing="0" fill="red"/></g><path d="M17.206 780.702l9.414-9.445-9.414-9.446-9.415 9.446z" fill="red"/><g style="line-height:0%;-inkscape-font-specification:'Sans Bold'"><path style="line-height:1.25" d="M216.794 1017.23q0-.49.092-.863.245-.157.531-.157h7.536q.674 0 .674 1.372 0 .235-.02.745-.02.529-.02.803 0 1.294-.593 1.294h-2.543v18.107h3.104q.654 0 .654 1.371 0 .294-.03.941-.041.666-.041 1 0 .666-.654.666-.184 0-.694-.079-.51-.058-.797-.058-1.634 0-1.98 2.175h-1.951v-24.123q-.684 0-1.47.078-.797.098-.95.098-.592 0-.735-.608-.113-.529-.113-2.763z" font-size="28.97" aria-label="1" font-weight="700" font-family="Levenim MT" letter-spacing="0" word-spacing="0" fill="red"/></g><g style="line-height:0%;-inkscape-font-specification:'Sans Bold'"><path style="line-height:1.25" d="M207.38 1030.04q0-13.83 4.674-13.83 4.74 0 4.74 13.908 0 14.429-4.834 14.429-4.58 0-4.58-14.506zm2.455.406q0 9.91 2.257 9.91 1.322 0 1.879-3.922.35-2.472.35-6.162 0-9.909-2.23-9.909-1.33 0-1.897 3.902-.359 2.511-.359 6.181z" font-size="27.659" aria-label="0" font-weight="700" font-family="Levenim MT" letter-spacing="0" word-spacing="0" fill="red"/></g><path d="M216.794 991.022l9.415 9.446-9.415 9.445-9.414-9.445z" fill="red"/></g></svg>