<svg xmlns="http://www.w3.org/2000/svg" width="234" height="333"><g transform="translate(0 -719.362)"><rect rx="8.919" ry="8.946" y="719.74" x=".378" height="332.244" width="233.244" fill="#fff" stroke="gray" stroke-width=".756"/><path d="M58.63 814.076l28.243-28.336-28.243-28.337-28.244 28.337zM58.63 1014.321l28.243-28.336-28.243-28.337-28.244 28.337zM58.63 914.199l28.243-28.337-28.243-28.336-28.244 28.336zM175.37 814.076l28.244-28.336-28.244-28.337-28.243 28.337zM175.37 1014.321l28.244-28.336-28.244-28.337-28.243 28.337zM117 864.137l28.244-28.336L117 807.464l-28.244 28.337zM175.37 914.199l28.244-28.337-28.244-28.336-28.243 28.336zM17.206 780.702l9.414-9.445-9.414-9.446-9.415 9.446zM216.794 991.022l9.415 9.446-9.415 9.445-9.414-9.445z" fill="red"/><g style="line-height:0%;-inkscape-font-specification:'Sans Bold'"><path style="line-height:1.25" d="M26.62 731.13l-7.94 23.47q-.316.914-1.6.914h-3.118q-.969 0-.969-.576 0-.556 3.98-11.24 2.318-6.155 4.613-12.29h-9.33q-.063.873-.379 2.54-.295.18-.632.18H8.802q-1.011 0-1.011-.695 0-.338.61-6.255h18.22z" font-size="41.883" aria-label="7" font-weight="700" font-family="Levenim MT" letter-spacing="0" word-spacing="0" fill="red"/></g><g style="line-height:0%;-inkscape-font-specification:'Sans Bold'"><path style="line-height:1.25" d="M207.38 1040.595l7.94-23.471q.316-.914 1.6-.914h3.118q.969 0 .969.576 0 .556-3.98 11.24-2.318 6.155-4.613 12.291h9.33q.063-.874.379-2.542.295-.178.632-.178h2.443q1.011 0 1.011.695 0 .337-.61 6.255h-18.22z" font-size="41.883" aria-label="7" font-weight="700" font-family="Levenim MT" letter-spacing="0" word-spacing="0" fill="red"/></g></g></svg>