<svg xmlns="http://www.w3.org/2000/svg" width="234" height="333"><g transform="translate(0 -719.362)"><rect rx="8.919" ry="8.946" y="719.74" x=".378" height="332.244" width="233.244" fill="#fff" stroke="gray" stroke-width=".756"/><path d="M58.63 814.076l28.243-28.336-28.243-28.337-28.244 28.337zM58.63 1014.321l28.243-28.336-28.243-28.337-28.244 28.337zM175.37 814.076l28.244-28.336-28.244-28.337-28.243 28.337zM175.37 1014.321l28.244-28.336-28.244-28.337-28.243 28.337zM117 914.199l28.244-28.337L117 857.526l-28.244 28.336zM17.206 780.702l9.414-9.445-9.414-9.446-9.415 9.446zM216.794 991.022l9.415 9.446-9.415 9.445-9.414-9.445z" fill="red"/><g style="line-height:0%;-inkscape-font-specification:'Sans Bold'"><path style="line-height:1.25" d="M26.62 745.958q0 4.386-2.637 6.971-2.618 2.585-6.962 2.585-4.169 0-6.593-2.056-2.637-2.193-2.637-6.325 0-.666 1.047-.666h2.54q.408 0 .757.117.116.196.155.51.33 2.212 1.26 3.172 1.047 1.077 3.22 1.077 2.171 0 3.51-1.547 1.26-1.469 1.26-3.682 0-5.463-4.48-5.463-1.629 0-3.277 1.135h-3.2q-.446 0-.853-.117-.194-.196-.194-.45 0-2.781.291-7.011l.504-7.03h14.544q.504 0 .911.156.175.392.175 2.742 0 .391-.039.646-.136.627-1.125.627h-10.53q.059 1.057-.174 3.23-.232 2.155-.174 3.212 1.997-1.253 4.169-1.253 3.995 0 6.322 2.742 2.21 2.585 2.21 6.678z" font-size="39.909" aria-label="5" font-weight="700" font-family="Levenim MT" letter-spacing="0" word-spacing="0" fill="red"/></g><g style="line-height:0%;-inkscape-font-specification:'Sans Bold'"><path style="line-height:1.25" d="M207.38 1025.767q0-4.387 2.637-6.972 2.618-2.585 6.962-2.585 4.169 0 6.593 2.056 2.637 2.194 2.637 6.326 0 .666-1.047.666h-2.54q-.408 0-.757-.118-.116-.196-.155-.51-.33-2.212-1.26-3.172-1.047-1.077-3.22-1.077-2.171 0-3.51 1.547-1.26 1.47-1.26 3.682 0 5.464 4.48 5.464 1.629 0 3.277-1.136h3.2q.446 0 .853.117.194.196.194.45 0 2.782-.291 7.012l-.504 7.03h-14.544q-.504 0-.911-.157-.175-.392-.175-2.742 0-.391.039-.646.136-.626 1.125-.626h10.53q-.059-1.058.174-3.232.233-2.154.174-3.211-1.997 1.253-4.169 1.253-3.994 0-6.321-2.742-2.211-2.584-2.211-6.677z" font-size="39.909" aria-label="5" font-weight="700" font-family="Levenim MT" letter-spacing="0" word-spacing="0" fill="red"/></g></g></svg>