<svg xmlns="http://www.w3.org/2000/svg" width="234" height="333"><g transform="translate(0 -719.362)"><rect rx="8.919" ry="8.946" y="719.74" x=".378" height="332.244" width="233.244" fill="#fff" stroke="gray" stroke-width=".756"/><path d="M117 914.199l28.244-28.337L117 857.526l-28.244 28.336zM17.206 780.702l9.414-9.445-9.414-9.446-9.415 9.446zM216.794 991.022l9.415 9.446-9.415 9.445-9.414-9.445z" fill="red"/><g style="line-height:0%;-inkscape-font-specification:'Sans Bold'"><path style="line-height:1.25" d="M26.62 755.514h-3.867l-1.528-5.837h-7.973l-1.594 5.837H7.79l7.534-28.336H19.1zm-6.79-11.096l-2.591-9.728-2.605 9.728z" font-size="32.766" aria-label="A" font-weight="700" font-family="Levenim MT" letter-spacing="0" word-spacing="0" fill="red"/></g><g style="line-height:0%;-inkscape-font-specification:'Sans Bold'"><path style="line-height:1.25" d="M207.38 1016.21h3.867l1.528 5.837h7.973l1.594-5.837h3.867l-7.534 28.337H214.9zm6.79 11.096l2.591 9.728 2.605-9.728z" font-size="32.766" aria-label="A" font-weight="700" font-family="Levenim MT" letter-spacing="0" word-spacing="0" fill="red"/></g></g></svg>