<svg xmlns="http://www.w3.org/2000/svg" width="234" height="333"><g transform="translate(0 -719.362)"><rect rx="8.919" ry="8.946" y="719.74" x=".378" height="332.244" width="233.244" fill="#fff" stroke="gray" stroke-width=".756"/><path d="M58.63 814.076l28.243-28.336-28.243-28.337-28.244 28.337zM58.63 1014.321l28.243-28.336-28.243-28.337-28.244 28.337zM58.63 914.199l28.243-28.337-28.243-28.336-28.244 28.336zM175.37 814.076l28.244-28.336-28.244-28.337-28.243 28.337zM175.37 1014.321l28.244-28.336-28.244-28.337-28.243 28.337zM175.37 914.199l28.244-28.337-28.244-28.336-28.243 28.336zM17.206 780.702l9.414-9.445-9.414-9.446-9.415 9.446zM216.794 991.022l9.415 9.446-9.415 9.445-9.414-9.445z" fill="red"/><g style="line-height:0%;-inkscape-font-specification:'Sans Bold'"><path style="line-height:1.25" d="M26.62 746.242q0 4.289-2.443 6.78-2.425 2.492-6.63 2.492-9.756 0-9.756-13.753 0-6.065 2.103-9.832 2.614-4.751 8.107-4.751 3.183 0 5.285 1.332 2.52 1.584 2.52 4.636 0 .676-.929.676h-2.803q-.55 0-.928-.637-.55-.947-.872-1.217-.776-.638-2.273-.638-2.52 0-3.921 2.396-1.099 1.931-1.231 4.751 2.216-1.796 5.304-1.796 3.92 0 6.25 2.82 2.217 2.666 2.217 6.741zm-4.944-.115q0-2.203-1.08-3.632-1.193-1.584-3.296-1.584-2.083 0-3.258 1.584-1.06 1.43-1.06 3.632 0 2.105 1.117 3.573 1.212 1.603 3.22 1.603 2.046 0 3.258-1.584 1.1-1.448 1.1-3.592z" font-size="39.175" aria-label="6" font-weight="700" font-family="Levenim MT" letter-spacing="0" word-spacing="0" fill="red"/></g><g style="line-height:0%;-inkscape-font-specification:'Sans Bold'"><path style="line-height:1.25" d="M207.38 1025.482q0-4.288 2.444-6.78 2.424-2.492 6.63-2.492 9.755 0 9.755 13.753 0 6.065-2.103 9.832-2.614 4.752-8.107 4.752-3.183 0-5.285-1.333-2.52-1.584-2.52-4.636 0-.676.929-.676h2.803q.55 0 .928.637.55.947.872 1.217.776.638 2.273.638 2.52 0 3.921-2.395 1.099-1.932 1.231-4.752-2.216 1.796-5.304 1.796-3.92 0-6.25-2.82-2.217-2.665-2.217-6.741zm4.944.116q0 2.202 1.08 3.631 1.193 1.584 3.296 1.584 2.083 0 3.258-1.584 1.06-1.43 1.06-3.631 0-2.106-1.117-3.574-1.212-1.603-3.22-1.603-2.046 0-3.258 1.584-1.099 1.449-1.099 3.593z" font-size="39.175" aria-label="6" font-weight="700" font-family="Levenim MT" letter-spacing="0" word-spacing="0" fill="red"/></g></g></svg>