<svg xmlns="http://www.w3.org/2000/svg" width="234" height="333"><g transform="translate(0 -719.362)"><rect rx="8.919" ry="8.946" y="719.74" x=".378" height="332.244" width="233.244" fill="#fff" stroke="gray" stroke-width=".756"/><path d="M117 814.076l28.244-28.336L117 757.403 88.756 785.74zM117 1014.321l28.244-28.336L117 957.648l-28.244 28.337zM17.206 780.702l9.414-9.445-9.414-9.446-9.415 9.446zM216.794 991.022l9.415 9.446-9.415 9.445-9.414-9.445z" fill="red"/><g style="line-height:0%;-inkscape-font-specification:'Sans Bold'"><path style="line-height:1.25" d="M26.488 749.757l-.697 5.757h-18q.415-4.954 3.845-8.754l6.107-5.404q3.185-2.86 3.185-5.738 0-1.92-1.055-3.055-1.037-1.156-2.865-1.156-2.111 0-3.148 1.175-.678.784-1.037 2.41-.358 1.722-.565 1.997-.302.098-.697.098H9.186q-.415 0-.716-.177-.132-.41-.132-.92 0-4.093 2.582-6.502 2.469-2.31 6.427-2.31 3.675 0 6.012 2.036 2.488 2.154 2.488 5.914 0 3.701-2.751 6.776-.962 1.097-5.466 4.68-3.28 2.644-4.034 4.759h8.783l.151-1.763q.207-.94 1.112-.94h1.885q1.093 0 .961 1.117z" font-size="39.346" aria-label="2" font-weight="700" font-family="Levenim MT" letter-spacing="0" word-spacing="0" fill="red"/></g><g style="line-height:0%;-inkscape-font-specification:'Sans Bold'"><path style="line-height:1.25" d="M207.512 1021.968l.697-5.758h18q-.415 4.955-3.845 8.754l-6.107 5.405q-3.185 2.859-3.185 5.737 0 1.92 1.055 3.055 1.037 1.156 2.865 1.156 2.111 0 3.148-1.175.678-.783 1.037-2.409.358-1.723.565-1.997.302-.098.697-.098h2.375q.415 0 .716.176.132.411.132.92 0 4.093-2.582 6.502-2.469 2.31-6.427 2.31-3.675 0-6.012-2.036-2.488-2.154-2.488-5.914 0-3.7 2.751-6.775.962-1.097 5.466-4.68 3.28-2.645 4.034-4.76h-8.783l-.151 1.763q-.207.94-1.112.94h-1.885q-1.093 0-.961-1.116z" font-size="39.346" aria-label="2" font-weight="700" font-family="Levenim MT" letter-spacing="0" word-spacing="0" fill="red"/></g></g></svg>