<svg xmlns="http://www.w3.org/2000/svg" width="234" height="333"><g transform="translate(0 -719.362)"><rect rx="8.919" ry="8.946" y="719.74" x=".378" height="332.244" width="233.244" fill="#fff" stroke="gray" stroke-width=".756"/><path d="M58.63 814.076l28.243-28.336-28.243-28.337-28.244 28.337zM58.63 1014.321l28.243-28.336-28.243-28.337-28.244 28.337zM117 964.26l28.244-28.337L117 907.587l-28.244 28.336zM58.63 914.199l28.243-28.337-28.243-28.336-28.244 28.336zM175.37 814.076l28.244-28.336-28.244-28.337-28.243 28.337zM175.37 1014.321l28.244-28.336-28.244-28.337-28.243 28.337zM117 864.137l28.244-28.336L117 807.464l-28.244 28.337zM175.37 914.199l28.244-28.337-28.244-28.336-28.243 28.336zM17.206 780.702l9.414-9.445-9.414-9.446-9.415 9.446zM216.794 991.022l9.415 9.446-9.415 9.445-9.414-9.445z" fill="red"/><g style="line-height:0%;-inkscape-font-specification:'Sans Bold'"><path style="line-height:1.25" d="M26.62 747.228q0 4.191-2.848 6.374-2.497 1.912-6.64 1.912-4.107 0-6.604-2.047-2.737-2.26-2.737-6.433 0-4.384 4.42-6.451-3.403-2.26-3.403-6.452 0-3.69 2.775-5.485 2.275-1.468 5.992-1.468 3.385 0 5.568 1.719 2.404 1.931 2.404 5.37 0 3.94-3.384 6.297 4.457 1.97 4.457 6.664zM20.868 735q0-3.613-3.7-3.613-1.683 0-2.681.947-1 .927-1 2.666 0 1.68 1.055 2.665.999.966 2.627.966 1.59 0 2.645-.985 1.054-.985 1.054-2.646zm.87 12.053q0-2.01-1.314-3.168-1.24-1.101-3.2-1.101-1.924 0-3.163 1.12-1.332 1.178-1.332 3.149 0 2.066 1.295 3.206 1.202 1.063 3.219 1.063 1.997 0 3.2-1.082 1.294-1.14 1.294-3.187z" font-size="38.711" aria-label="8" font-weight="700" font-family="Levenim MT" letter-spacing="0" word-spacing="0" fill="red"/></g><g style="line-height:0%;-inkscape-font-specification:'Sans Bold'"><path style="line-height:1.25" d="M207.38 1024.497q0-4.192 2.848-6.374 2.497-1.913 6.64-1.913 4.107 0 6.604 2.048 2.737 2.26 2.737 6.432 0 4.385-4.42 6.451 3.403 2.26 3.403 6.452 0 3.69-2.775 5.486-2.275 1.468-5.992 1.468-3.385 0-5.568-1.72-2.404-1.93-2.404-5.37 0-3.94 3.384-6.296-4.457-1.97-4.457-6.664zm5.752 12.227q0 3.612 3.7 3.612 1.683 0 2.681-.946 1-.928 1-2.666 0-1.68-1.055-2.666-.999-.966-2.627-.966-1.59 0-2.645.986-1.054.985-1.054 2.646zm-.87-12.053q0 2.009 1.314 3.168 1.24 1.1 3.2 1.1 1.924 0 3.163-1.12 1.332-1.178 1.332-3.148 0-2.067-1.295-3.207-1.202-1.062-3.219-1.062-1.997 0-3.2 1.082-1.294 1.14-1.294 3.187z" font-size="38.711" aria-label="8" font-weight="700" font-family="Levenim MT" letter-spacing="0" word-spacing="0" fill="red"/></g></g></svg>