<svg xmlns="http://www.w3.org/2000/svg" width="234" height="333"><g transform="translate(0 -719.362)"><rect rx="8.919" ry="8.946" y="719.74" x=".378" height="332.244" width="233.244" fill="#fff" stroke="gray" stroke-width=".756"/><path d="M58.63 814.076l28.243-28.336-28.243-28.337-28.244 28.337zM58.63 1014.321l28.243-28.336-28.243-28.337-28.244 28.337zM175.37 814.076l28.244-28.336-28.244-28.337-28.243 28.337zM175.37 1014.321l28.244-28.336-28.244-28.337-28.243 28.337zM17.206 780.702l9.414-9.445-9.414-9.446-9.415 9.446zM216.794 991.022l9.415 9.446-9.415 9.445-9.414-9.445z" fill="red"/><g style="line-height:0%;-inkscape-font-specification:'Sans Bold'"><path style="line-height:1.25" d="M26.62 754.512q0 .413-.138.806-.31.196-.655.196h-11.07q-1.276 0-1.276-1.474 0-.236.035-.825.034-.59.034-.904 0-.688.259-.884.19-.138.845-.138h4.31v-3.026H9.291q-1.5 0-1.5-1.592 0-.275.052-1.002.051-.747.051-1.18 0-.667.673-1.67l9.966-14.934q.466-.707 1.173-.707h2.276q.81 0 .81 1.021v16.035q.621 0 1.414-.039.81-.04 1.035-.04.93 0 1.155.531.224.511.224 2.555 0 .373-.052.57-.103.452-.793.452h-2.983v3.026q.638 0 1.449-.04.81-.038 1.017-.038.983 0 1.19.57.172.471.172 2.73zm-7.587-21.027q-.948 1.651-7 10.75h6.931q0-1.042-.034-3.577-.052-2.3-.035-3.596.018-1.965.138-3.577z" font-size="37.699" aria-label="4" font-weight="700" font-family="Levenim MT" letter-spacing="0" word-spacing="0" fill="red"/></g><g style="line-height:0%;-inkscape-font-specification:'Sans Bold'"><path style="line-height:1.25" d="M207.38 1017.212q0-.412.138-.805.31-.197.655-.197h11.07q1.276 0 1.276 1.474 0 .236-.035.825-.034.59-.034.904 0 .688-.259.885-.19.137-.845.137h-4.31v3.026h9.673q1.5 0 1.5 1.592 0 .275-.052 1.002-.051.747-.051 1.18 0 .668-.673 1.67l-9.966 14.934q-.466.708-1.173.708h-2.276q-.81 0-.81-1.022v-16.035q-.62 0-1.414.04-.81.038-1.035.038-.93 0-1.155-.53-.224-.511-.224-2.555 0-.373.052-.57.103-.452.793-.452h2.983v-3.026q-.638 0-1.449.04-.81.039-1.017.039-.983 0-1.19-.57-.172-.472-.172-2.732zm7.587 21.027q.948-1.65 7-10.75h-6.931q0 1.042.034 3.577.052 2.3.035 3.596-.018 1.965-.138 3.577z" font-size="37.699" aria-label="4" font-weight="700" font-family="Levenim MT" letter-spacing="0" word-spacing="0" fill="red"/></g></g></svg>