<svg xmlns="http://www.w3.org/2000/svg" width="234" height="333"><g transform="translate(0 -719.362)"><rect rx="8.919" ry="8.946" y="719.74" x=".378" height="332.244" width="233.244" fill="#fff" stroke="gray" stroke-width=".756"/><path d="M117 814.076l28.244-28.336L117 757.403 88.756 785.74zM117 1014.321l28.244-28.336L117 957.648l-28.244 28.337zM117 914.199l28.244-28.337L117 857.526l-28.244 28.336zM17.206 780.702l9.414-9.445-9.414-9.446-9.415 9.446zM216.794 991.022l9.415 9.446-9.415 9.445-9.414-9.445z" fill="red"/><g style="line-height:0%;-inkscape-font-specification:'Sans Bold'"><path style="line-height:1.25" d="M26.62 747.517q0 3.94-2.813 6.065-2.539 1.932-6.65 1.932-9.366 0-9.366-8.692 0-.406.138-.773.295-.174.669-.174h2.557q.374 0 .69.174.097.27.156.638.335 2.395 1.378 3.477 1.16 1.197 3.561 1.197 1.967 0 3.207-1.043 1.299-1.12 1.299-3.013 0-4.018-4.467-4.713-.55-.078-.826-.232-.157-.31-.157-3.13 0-.366.177-.695 1.475-.425 2.95-.869 1.555-.695 1.555-2.917 0-3.36-4.013-3.36-1.85 0-2.893.888-.55.483-1.14 1.642-.434.888-.867.888H9.227q-.964 0-.964-.85 0-3.225 2.578-5.099 2.321-1.68 5.705-1.68 3.896 0 6.356 1.603 2.892 1.873 2.892 5.524 0 4.404-4.427 5.988 5.253 2.183 5.253 7.224z" font-size="39.925" aria-label="3" font-weight="700" font-family="Levenim MT" letter-spacing="0" word-spacing="0" fill="red"/></g><g style="line-height:0%;-inkscape-font-specification:'Sans Bold'"><path style="line-height:1.25" d="M207.38 1024.207q0-3.94 2.813-6.065 2.538-1.932 6.65-1.932 9.366 0 9.366 8.692 0 .406-.138.773-.295.174-.669.174h-2.557q-.374 0-.69-.174-.097-.27-.156-.637-.335-2.396-1.378-3.477-1.16-1.198-3.561-1.198-1.967 0-3.207 1.043-1.299 1.12-1.299 3.014 0 4.017 4.467 4.713.55.077.826.231.157.31.157 3.13 0 .367-.177.695-1.475.425-2.95.87-1.555.695-1.555 2.916 0 3.36 4.013 3.36 1.85 0 2.893-.888.55-.483 1.14-1.642.434-.888.867-.888h2.538q.964 0 .964.85 0 3.226-2.578 5.1-2.321 1.68-5.705 1.68-3.896 0-6.356-1.603-2.892-1.874-2.892-5.525 0-4.404 4.427-5.988-5.253-2.182-5.253-7.224z" font-size="39.925" aria-label="3" font-weight="700" font-family="Levenim MT" letter-spacing="0" word-spacing="0" fill="red"/></g></g></svg>