<svg xmlns="http://www.w3.org/2000/svg" width="234" height="333"><g transform="translate(0 -719.362)"><rect rx="8.919" ry="8.946" y="719.74" x=".378" height="332.244" width="233.244" fill="#fff" stroke="gray" stroke-width=".756"/><path d="M17.195 780.702a23.063 23.063 0 00-3.383-5.256c-.874-1.022-1.836-1.962-2.81-2.885-.761-.722-1.536-1.439-2.158-2.287-.42-.572-.772-1.21-.939-1.904-.303-1.258.027-2.607.648-3.737.364-.662.83-1.27 1.404-1.754.852-.72 1.965-1.149 3.068-1.055 1.011.086 1.957.602 2.695 1.312a6.173 6.173 0 011.486 2.268 6.173 6.173 0 011.485-2.268c.738-.71 1.684-1.226 2.696-1.312 1.103-.094 2.215.336 3.067 1.055.574.484 1.04 1.092 1.404 1.754.622 1.13.951 2.479.648 3.737-.167.694-.518 1.332-.939 1.904-.622.848-1.397 1.565-2.158 2.287-.974.923-1.935 1.863-2.81 2.885a23.062 23.062 0 00-3.383 5.256M216.784 991.022a23.063 23.063 0 01-3.383 5.257c-.875 1.021-1.836 1.961-2.81 2.885-.761.721-1.536 1.438-2.158 2.286-.42.573-.772 1.21-.94 1.904-.302 1.258.028 2.607.65 3.737.363.662.829 1.27 1.403 1.755.852.718 1.964 1.148 3.067 1.054 1.012-.086 1.958-.602 2.696-1.312a6.172 6.172 0 001.485-2.268c.324.858.833 1.64 1.486 2.268.738.71 1.684 1.226 2.695 1.312 1.103.094 2.216-.336 3.068-1.054.574-.484 1.04-1.093 1.404-1.755.621-1.13.95-2.479.648-3.737-.167-.694-.518-1.331-.939-1.904-.622-.848-1.397-1.565-2.158-2.286-.974-.924-1.936-1.864-2.81-2.885a23.062 23.062 0 01-3.383-5.257M116.967 814.076a69.186 69.186 0 00-10.147-15.77c-2.624-3.063-5.509-5.884-8.431-8.654-2.283-2.164-4.606-4.316-6.474-6.86-1.262-1.717-2.315-3.629-2.817-5.713-.908-3.774.08-7.82 1.945-11.21 1.092-1.985 2.49-3.811 4.21-5.263 2.558-2.156 5.895-3.446 9.204-3.165 3.034.259 5.872 1.808 8.087 3.937 1.96 1.884 3.486 4.232 4.456 6.805.97-2.573 2.497-4.921 4.456-6.805 2.215-2.129 5.053-3.678 8.087-3.937 3.31-.281 6.646 1.009 9.203 3.165 1.721 1.452 3.119 3.278 4.211 5.263 1.865 3.39 2.853 7.436 1.945 11.21-.502 2.084-1.555 3.996-2.817 5.714-1.868 2.543-4.191 4.695-6.474 6.859-2.922 2.77-5.807 5.59-8.431 8.655a69.187 69.187 0 00-10.147 15.77M116.967 957.648a69.186 69.186 0 01-10.147 15.77c-2.624 3.064-5.509 5.885-8.431 8.655-2.283 2.163-4.606 4.315-6.474 6.859-1.262 1.718-2.315 3.63-2.817 5.713-.908 3.774.08 7.82 1.945 11.21 1.092 1.986 2.49 3.812 4.21 5.263 2.558 2.157 5.895 3.446 9.204 3.165 3.034-.258 5.872-1.808 8.087-3.937 1.96-1.883 3.486-4.231 4.456-6.804.97 2.573 2.497 4.92 4.456 6.804 2.215 2.129 5.053 3.679 8.087 3.937 3.31.281 6.646-1.008 9.203-3.165 1.721-1.451 3.119-3.277 4.211-5.263 1.865-3.39 2.853-7.436 1.945-11.21-.502-2.084-1.555-3.995-2.817-5.713-1.868-2.544-4.191-4.696-6.474-6.86-2.922-2.77-5.807-5.59-8.431-8.654a69.186 69.186 0 01-10.147-15.77" fill="red"/><g style="line-height:0%;-inkscape-font-specification:'Sans Bold'"><path style="line-height:1.25" d="M26.488 749.757l-.697 5.757h-18q.415-4.954 3.845-8.754l6.107-5.404q3.185-2.86 3.185-5.738 0-1.92-1.055-3.055-1.037-1.156-2.865-1.156-2.111 0-3.148 1.175-.678.784-1.037 2.41-.358 1.722-.565 1.997-.302.098-.697.098H9.186q-.415 0-.716-.177-.132-.41-.132-.92 0-4.093 2.582-6.502 2.469-2.31 6.427-2.31 3.675 0 6.012 2.036 2.488 2.154 2.488 5.914 0 3.701-2.751 6.776-.962 1.097-5.466 4.68-3.28 2.644-4.034 4.759h8.783l.151-1.763q.207-.94 1.112-.94h1.885q1.093 0 .961 1.117z" font-size="39.346" aria-label="2" font-weight="700" font-family="Levenim MT" letter-spacing="0" word-spacing="0" fill="red"/></g><g style="line-height:0%;-inkscape-font-specification:'Sans Bold'"><path style="line-height:1.25" d="M207.512 1021.968l.697-5.758h18q-.415 4.955-3.845 8.754l-6.107 5.405q-3.185 2.859-3.185 5.737 0 1.92 1.055 3.055 1.037 1.156 2.865 1.156 2.111 0 3.148-1.175.678-.783 1.037-2.409.358-1.723.565-1.997.302-.098.697-.098h2.375q.415 0 .716.176.132.411.132.92 0 4.093-2.582 6.502-2.469 2.31-6.427 2.31-3.675 0-6.012-2.036-2.488-2.154-2.488-5.914 0-3.7 2.751-6.775.962-1.097 5.466-4.68 3.28-2.645 4.034-4.76h-8.783l-.151 1.763q-.207.94-1.112.94h-1.885q-1.093 0-.961-1.116z" font-size="39.346" aria-label="2" font-weight="700" font-family="Levenim MT" letter-spacing="0" word-spacing="0" fill="red"/></g></g></svg>