<svg xmlns="http://www.w3.org/2000/svg" width="234" height="333"><g transform="translate(0 -719.362)"><rect rx="8.919" ry="8.946" y="719.74" x=".378" height="332.244" width="233.244" fill="#fff" stroke="gray" stroke-width=".756"/><path d="M17.195 780.702a23.063 23.063 0 00-3.383-5.256c-.874-1.022-1.836-1.962-2.81-2.885-.761-.722-1.536-1.44-2.158-2.287-.42-.572-.772-1.21-.939-1.904-.303-1.258.027-2.607.648-3.737.364-.662.83-1.27 1.404-1.754.852-.72 1.965-1.149 3.068-1.055 1.011.086 1.957.602 2.695 1.312a6.173 6.173 0 011.486 2.268 6.173 6.173 0 011.485-2.268c.738-.71 1.684-1.226 2.696-1.312 1.103-.094 2.215.336 3.067 1.055.574.484 1.04 1.092 1.404 1.754.622 1.13.951 2.479.648 3.737-.167.694-.518 1.332-.939 1.904-.622.848-1.397 1.565-2.158 2.287-.974.923-1.935 1.863-2.81 2.885a23.062 23.062 0 00-3.383 5.256" fill="red"/><g style="line-height:0%;-inkscape-font-specification:'Sans Bold'"><path style="line-height:1.25" d="M26.62 745.958q0 4.386-2.637 6.971-2.618 2.585-6.962 2.585-4.169 0-6.593-2.056-2.637-2.193-2.637-6.325 0-.666 1.047-.666h2.54q.408 0 .757.117.116.196.155.51.33 2.212 1.26 3.172 1.047 1.077 3.22 1.077 2.171 0 3.51-1.547 1.26-1.469 1.26-3.682 0-5.463-4.48-5.463-1.629 0-3.277 1.135h-3.2q-.446 0-.853-.117-.194-.196-.194-.45 0-2.781.291-7.011l.504-7.03h14.544q.504 0 .911.156.175.392.175 2.742 0 .391-.039.646-.136.627-1.125.627h-10.53q.059 1.057-.174 3.23-.232 2.155-.174 3.212 1.997-1.253 4.169-1.253 3.995 0 6.322 2.742 2.21 2.585 2.21 6.678z" font-size="39.909" aria-label="5" font-weight="700" font-family="Levenim MT" letter-spacing="0" word-spacing="0" fill="red"/></g><g style="line-height:0%;-inkscape-font-specification:'Sans Bold'"><path style="line-height:1.25" d="M207.38 1025.767q0-4.387 2.637-6.972 2.618-2.585 6.962-2.585 4.169 0 6.593 2.056 2.637 2.194 2.637 6.326 0 .666-1.047.666h-2.54q-.408 0-.757-.118-.116-.196-.155-.51-.33-2.212-1.26-3.172-1.047-1.077-3.22-1.077-2.171 0-3.51 1.547-1.26 1.47-1.26 3.682 0 5.464 4.48 5.464 1.629 0 3.277-1.136h3.2q.446 0 .853.117.194.196.194.45 0 2.782-.291 7.012l-.504 7.03h-14.544q-.504 0-.911-.157-.175-.392-.175-2.742 0-.391.039-.646.136-.626 1.125-.626h10.53q-.059-1.058.174-3.232.233-2.154.174-3.211-1.997 1.253-4.169 1.253-3.994 0-6.321-2.742-2.211-2.584-2.211-6.677z" font-size="39.909" aria-label="5" font-weight="700" font-family="Levenim MT" letter-spacing="0" word-spacing="0" fill="red"/></g><path d="M216.784 991.022a23.063 23.063 0 01-3.383 5.257c-.875 1.021-1.836 1.961-2.81 2.885-.761.721-1.536 1.438-2.158 2.286-.42.573-.772 1.21-.94 1.905-.302 1.258.028 2.606.65 3.736.363.662.829 1.27 1.403 1.755.852.718 1.964 1.148 3.067 1.054 1.012-.086 1.958-.602 2.696-1.312a6.173 6.173 0 001.485-2.268c.324.858.833 1.64 1.486 2.268.738.71 1.684 1.226 2.695 1.312 1.103.094 2.216-.336 3.068-1.054.574-.484 1.04-1.093 1.404-1.755.621-1.13.95-2.478.648-3.736-.167-.695-.518-1.332-.939-1.905-.622-.848-1.397-1.565-2.158-2.286-.974-.924-1.936-1.864-2.81-2.885a23.061 23.061 0 01-3.383-5.257M58.597 814.076a69.186 69.186 0 00-10.147-15.77c-2.624-3.063-5.51-5.884-8.432-8.654-2.282-2.164-4.606-4.316-6.474-6.86-1.261-1.717-2.314-3.629-2.816-5.713-.909-3.774.08-7.82 1.945-11.21 1.092-1.985 2.49-3.811 4.21-5.263 2.558-2.157 5.895-3.446 9.204-3.165 3.034.259 5.872 1.808 8.086 3.937 1.96 1.884 3.487 4.232 4.457 6.805.97-2.573 2.496-4.921 4.456-6.805 2.214-2.129 5.052-3.678 8.087-3.937 3.309-.281 6.645 1.008 9.203 3.165 1.721 1.452 3.118 3.278 4.21 5.263 1.866 3.39 2.854 7.436 1.945 11.21-.501 2.084-1.554 3.996-2.816 5.714-1.868 2.543-4.191 4.695-6.474 6.859-2.923 2.77-5.807 5.59-8.431 8.655a69.186 69.186 0 00-10.148 15.77M175.338 814.076a69.186 69.186 0 00-10.148-15.77c-2.624-3.063-5.508-5.884-8.43-8.654-2.284-2.164-4.607-4.316-6.475-6.86-1.262-1.717-2.315-3.629-2.816-5.713-.909-3.774.08-7.82 1.944-11.21 1.092-1.985 2.49-3.811 4.211-5.263 2.557-2.157 5.894-3.446 9.203-3.165 3.035.259 5.873 1.808 8.087 3.937 1.96 1.884 3.486 4.232 4.456 6.805.97-2.573 2.497-4.921 4.457-6.805 2.214-2.129 5.052-3.678 8.086-3.937 3.31-.281 6.646 1.008 9.204 3.165 1.72 1.452 3.118 3.278 4.21 5.263 1.865 3.39 2.854 7.436 1.945 11.21-.502 2.084-1.555 3.996-2.817 5.714-1.867 2.543-4.19 4.695-6.473 6.859-2.923 2.77-5.808 5.59-8.432 8.655a69.186 69.186 0 00-10.147 15.77M116.967 914.199a69.186 69.186 0 00-10.147-15.77c-2.624-3.064-5.509-5.885-8.431-8.655-2.283-2.164-4.606-4.316-6.474-6.859-1.262-1.718-2.315-3.63-2.817-5.713-.908-3.774.08-7.82 1.945-11.21 1.092-1.986 2.49-3.812 4.21-5.263 2.558-2.157 5.895-3.447 9.204-3.165 3.034.258 5.872 1.808 8.087 3.936 1.96 1.884 3.486 4.232 4.456 6.805.97-2.573 2.497-4.92 4.456-6.805 2.215-2.128 5.053-3.678 8.087-3.936 3.31-.282 6.646 1.008 9.203 3.165 1.721 1.451 3.119 3.277 4.211 5.263 1.865 3.39 2.853 7.436 1.945 11.21-.502 2.084-1.555 3.995-2.817 5.713-1.868 2.543-4.191 4.695-6.474 6.86-2.922 2.77-5.807 5.59-8.431 8.654a69.186 69.186 0 00-10.147 15.77M58.597 957.648a69.186 69.186 0 01-10.147 15.77c-2.624 3.063-5.51 5.885-8.432 8.655-2.282 2.163-4.606 4.315-6.474 6.859-1.261 1.718-2.314 3.63-2.816 5.713-.909 3.774.08 7.82 1.945 11.21 1.092 1.986 2.49 3.812 4.21 5.263 2.558 2.157 5.895 3.446 9.204 3.165 3.034-.258 5.872-1.808 8.086-3.937 1.96-1.883 3.487-4.231 4.457-6.804.97 2.573 2.496 4.92 4.456 6.804 2.214 2.129 5.052 3.679 8.087 3.937 3.309.281 6.645-1.008 9.203-3.165 1.721-1.451 3.118-3.277 4.21-5.263 1.866-3.39 2.854-7.436 1.945-11.21-.501-2.084-1.554-3.995-2.816-5.713-1.868-2.544-4.191-4.696-6.474-6.86-2.923-2.77-5.807-5.59-8.431-8.654a69.186 69.186 0 01-10.148-15.77M175.338 957.648a69.186 69.186 0 01-10.148 15.77c-2.624 3.063-5.508 5.885-8.43 8.655-2.284 2.163-4.607 4.315-6.475 6.859-1.262 1.718-2.315 3.63-2.816 5.713-.909 3.774.08 7.82 1.944 11.21 1.092 1.986 2.49 3.812 4.211 5.263 2.557 2.157 5.894 3.446 9.203 3.165 3.035-.258 5.873-1.808 8.087-3.937 1.96-1.883 3.486-4.231 4.456-6.804.97 2.573 2.497 4.92 4.457 6.804 2.214 2.129 5.052 3.679 8.086 3.937 3.31.281 6.646-1.008 9.204-3.165 1.72-1.451 3.118-3.277 4.21-5.263 1.865-3.39 2.854-7.436 1.945-11.21-.502-2.084-1.555-3.995-2.817-5.713-1.867-2.544-4.19-4.696-6.473-6.86-2.923-2.77-5.808-5.59-8.432-8.654a69.186 69.186 0 01-10.147-15.77" fill="red"/></g></svg>