<svg xmlns="http://www.w3.org/2000/svg" width="234" height="333"><g transform="translate(0 -719.362)"><rect rx="8.919" ry="8.946" y="719.74" x=".378" height="332.244" width="233.244" fill="#fff" stroke="gray" stroke-width=".756"/><path d="M17.195 780.702a23.063 23.063 0 00-3.383-5.256c-.874-1.022-1.836-1.962-2.81-2.885-.761-.722-1.536-1.439-2.158-2.287-.42-.572-.772-1.21-.939-1.904-.303-1.258.027-2.607.648-3.737.364-.662.83-1.27 1.404-1.754.852-.72 1.965-1.149 3.068-1.055 1.011.086 1.957.602 2.695 1.312a6.173 6.173 0 011.486 2.268 6.173 6.173 0 011.485-2.268c.738-.71 1.684-1.226 2.696-1.312 1.103-.094 2.215.336 3.067 1.055.574.484 1.04 1.092 1.404 1.754.622 1.13.951 2.479.648 3.737-.167.694-.518 1.332-.939 1.904-.622.848-1.397 1.565-2.158 2.287-.974.923-1.935 1.863-2.81 2.885a23.062 23.062 0 00-3.383 5.256" fill="red"/><g style="line-height:0%;-inkscape-font-specification:'Sans Bold'"><path style="line-height:1.25" d="M26.62 747.228q0 4.191-2.848 6.374-2.497 1.912-6.64 1.912-4.107 0-6.604-2.047-2.737-2.26-2.737-6.433 0-4.384 4.42-6.451-3.403-2.26-3.403-6.452 0-3.69 2.775-5.485 2.275-1.468 5.992-1.468 3.385 0 5.568 1.719 2.404 1.931 2.404 5.37 0 3.94-3.384 6.297 4.457 1.97 4.457 6.664zM20.868 735q0-3.613-3.7-3.613-1.683 0-2.681.947-1 .927-1 2.666 0 1.68 1.055 2.665.999.966 2.627.966 1.59 0 2.645-.985 1.054-.985 1.054-2.646zm.87 12.053q0-2.01-1.314-3.168-1.24-1.101-3.2-1.101-1.924 0-3.163 1.12-1.332 1.178-1.332 3.149 0 2.066 1.295 3.206 1.202 1.063 3.219 1.063 1.997 0 3.2-1.082 1.294-1.14 1.294-3.187z" font-size="38.711" aria-label="8" font-weight="700" font-family="Levenim MT" letter-spacing="0" word-spacing="0" fill="red"/></g><g style="line-height:0%;-inkscape-font-specification:'Sans Bold'"><path style="line-height:1.25" d="M207.38 1024.497q0-4.192 2.848-6.374 2.497-1.913 6.64-1.913 4.107 0 6.604 2.048 2.737 2.26 2.737 6.432 0 4.385-4.42 6.451 3.403 2.26 3.403 6.452 0 3.69-2.775 5.486-2.275 1.468-5.992 1.468-3.385 0-5.568-1.72-2.404-1.93-2.404-5.37 0-3.94 3.384-6.296-4.457-1.97-4.457-6.664zm5.752 12.227q0 3.612 3.7 3.612 1.683 0 2.681-.946 1-.928 1-2.666 0-1.68-1.055-2.666-.999-.966-2.627-.966-1.59 0-2.645.986-1.054.985-1.054 2.646zm-.87-12.053q0 2.009 1.314 3.168 1.24 1.1 3.2 1.1 1.924 0 3.163-1.12 1.332-1.178 1.332-3.148 0-2.067-1.295-3.207-1.202-1.062-3.219-1.062-1.997 0-3.2 1.082-1.294 1.14-1.294 3.187z" font-size="38.711" aria-label="8" font-weight="700" font-family="Levenim MT" letter-spacing="0" word-spacing="0" fill="red"/></g><path d="M216.784 991.022a23.063 23.063 0 01-3.383 5.257c-.875 1.021-1.836 1.961-2.81 2.885-.761.721-1.536 1.438-2.158 2.286-.42.573-.772 1.21-.94 1.904-.302 1.258.028 2.607.65 3.737.363.662.829 1.27 1.403 1.755.852.718 1.964 1.148 3.067 1.054 1.012-.086 1.958-.602 2.696-1.312a6.172 6.172 0 001.485-2.268c.324.858.833 1.64 1.486 2.268.738.71 1.684 1.226 2.695 1.312 1.103.094 2.216-.336 3.068-1.054.574-.484 1.04-1.093 1.404-1.755.621-1.13.95-2.479.648-3.737-.167-.694-.518-1.331-.939-1.904-.622-.848-1.397-1.565-2.158-2.286-.974-.924-1.936-1.864-2.81-2.885a23.062 23.062 0 01-3.383-5.257M58.597 814.076a69.186 69.186 0 00-10.147-15.77c-2.624-3.063-5.51-5.884-8.432-8.654-2.282-2.164-4.606-4.316-6.474-6.86-1.261-1.717-2.314-3.629-2.816-5.713-.909-3.774.08-7.82 1.945-11.21 1.092-1.985 2.49-3.811 4.21-5.263 2.558-2.156 5.895-3.446 9.204-3.165 3.034.259 5.872 1.808 8.086 3.937 1.96 1.884 3.487 4.232 4.457 6.805.97-2.573 2.496-4.921 4.456-6.805 2.214-2.129 5.052-3.678 8.087-3.937 3.309-.281 6.645 1.009 9.203 3.165 1.721 1.452 3.118 3.278 4.21 5.263 1.866 3.39 2.854 7.436 1.945 11.21-.501 2.084-1.554 3.996-2.816 5.714-1.868 2.543-4.191 4.695-6.474 6.859-2.923 2.77-5.807 5.59-8.431 8.655a69.186 69.186 0 00-10.148 15.77M58.597 914.199a69.186 69.186 0 00-10.147-15.77c-2.624-3.064-5.51-5.885-8.432-8.655-2.282-2.164-4.606-4.316-6.474-6.859-1.261-1.718-2.314-3.63-2.816-5.713-.909-3.774.08-7.82 1.945-11.21 1.092-1.986 2.49-3.812 4.21-5.263 2.558-2.157 5.895-3.447 9.204-3.165 3.034.258 5.872 1.808 8.086 3.936 1.96 1.884 3.487 4.232 4.457 6.805.97-2.573 2.496-4.92 4.456-6.805 2.214-2.128 5.052-3.678 8.087-3.936 3.309-.281 6.645 1.008 9.203 3.165 1.721 1.451 3.118 3.277 4.21 5.263 1.866 3.39 2.854 7.436 1.945 11.21-.501 2.084-1.554 3.995-2.816 5.713-1.868 2.543-4.191 4.695-6.474 6.86-2.923 2.77-5.807 5.59-8.431 8.654a69.186 69.186 0 00-10.148 15.77M175.338 814.076a69.187 69.187 0 00-10.148-15.77c-2.624-3.063-5.508-5.884-8.43-8.654-2.284-2.164-4.607-4.316-6.475-6.86-1.262-1.717-2.315-3.629-2.816-5.713-.909-3.774.08-7.82 1.944-11.21 1.092-1.985 2.49-3.811 4.211-5.263 2.557-2.156 5.894-3.446 9.203-3.164 3.035.258 5.873 1.807 8.087 3.936 1.96 1.884 3.486 4.232 4.456 6.805.97-2.573 2.497-4.921 4.457-6.805 2.214-2.129 5.052-3.678 8.086-3.937 3.31-.281 6.646 1.009 9.204 3.165 1.72 1.452 3.118 3.278 4.21 5.263 1.865 3.39 2.854 7.436 1.945 11.21-.502 2.084-1.555 3.996-2.817 5.714-1.867 2.543-4.19 4.695-6.473 6.859-2.923 2.77-5.808 5.59-8.432 8.655a69.186 69.186 0 00-10.147 15.77M116.967 869.805a69.186 69.186 0 00-10.147-15.77c-2.624-3.064-5.509-5.885-8.431-8.655-2.283-2.164-4.606-4.316-6.474-6.859-1.262-1.718-2.315-3.63-2.817-5.713-.908-3.774.08-7.82 1.945-11.21 1.092-1.986 2.49-3.812 4.21-5.263 2.558-2.157 5.895-3.446 9.204-3.165 3.034.258 5.872 1.808 8.087 3.936 1.96 1.884 3.486 4.232 4.456 6.805.97-2.573 2.497-4.92 4.456-6.805 2.215-2.128 5.053-3.678 8.087-3.936 3.31-.281 6.646 1.008 9.203 3.165 1.721 1.451 3.119 3.277 4.211 5.263 1.865 3.39 2.853 7.436 1.945 11.21-.502 2.084-1.555 3.995-2.817 5.713-1.868 2.543-4.191 4.695-6.474 6.86-2.922 2.77-5.807 5.59-8.431 8.654a69.186 69.186 0 00-10.147 15.77M175.338 914.199a69.186 69.186 0 00-10.148-15.77c-2.624-3.064-5.508-5.885-8.43-8.655-2.284-2.164-4.607-4.316-6.475-6.859-1.262-1.718-2.315-3.63-2.816-5.713-.909-3.774.08-7.82 1.944-11.21 1.092-1.986 2.49-3.812 4.211-5.263 2.557-2.157 5.894-3.447 9.203-3.165 3.035.258 5.873 1.808 8.087 3.936 1.96 1.884 3.486 4.232 4.456 6.805.97-2.573 2.497-4.92 4.457-6.805 2.214-2.128 5.052-3.678 8.086-3.936 3.31-.281 6.646 1.008 9.204 3.165 1.72 1.451 3.118 3.277 4.21 5.263 1.865 3.39 2.854 7.436 1.945 11.21-.502 2.084-1.555 3.995-2.817 5.713-1.867 2.543-4.19 4.695-6.473 6.86-2.923 2.77-5.808 5.59-8.432 8.654a69.186 69.186 0 00-10.147 15.77M58.597 957.648a69.186 69.186 0 01-10.147 15.77c-2.624 3.064-5.51 5.885-8.432 8.655-2.282 2.163-4.606 4.315-6.474 6.859-1.261 1.718-2.314 3.63-2.816 5.713-.909 3.774.08 7.82 1.945 11.21 1.092 1.986 2.49 3.812 4.21 5.263 2.558 2.157 5.895 3.446 9.204 3.165 3.034-.258 5.872-1.808 8.086-3.937 1.96-1.883 3.487-4.231 4.457-6.804.97 2.573 2.496 4.92 4.456 6.804 2.214 2.129 5.052 3.679 8.087 3.937 3.309.281 6.645-1.008 9.203-3.165 1.721-1.451 3.118-3.277 4.21-5.263 1.866-3.39 2.854-7.436 1.945-11.21-.501-2.084-1.554-3.995-2.816-5.713-1.868-2.544-4.191-4.696-6.474-6.86-2.923-2.77-5.807-5.59-8.431-8.654a69.186 69.186 0 01-10.148-15.77M175.338 957.648a69.186 69.186 0 01-10.148 15.77c-2.624 3.064-5.508 5.885-8.43 8.655-2.284 2.163-4.607 4.315-6.475 6.859-1.262 1.718-2.315 3.63-2.816 5.713-.909 3.774.08 7.82 1.944 11.21 1.092 1.986 2.49 3.812 4.211 5.263 2.557 2.157 5.894 3.446 9.203 3.165 3.035-.258 5.873-1.808 8.087-3.937 1.96-1.883 3.486-4.231 4.456-6.804.97 2.573 2.497 4.92 4.457 6.804 2.214 2.129 5.052 3.679 8.086 3.937 3.31.281 6.646-1.008 9.204-3.165 1.72-1.451 3.118-3.277 4.21-5.263 1.865-3.39 2.854-7.436 1.945-11.21-.502-2.084-1.555-3.995-2.817-5.713-1.867-2.544-4.19-4.696-6.473-6.86-2.923-2.77-5.808-5.59-8.432-8.654a69.186 69.186 0 01-10.147-15.77M116.967 907.587a69.186 69.186 0 01-10.147 15.77c-2.624 3.063-5.509 5.884-8.431 8.654-2.283 2.164-4.606 4.316-6.474 6.86-1.262 1.717-2.315 3.629-2.817 5.713-.908 3.774.08 7.82 1.945 11.21 1.092 1.985 2.49 3.811 4.21 5.263 2.558 2.157 5.895 3.446 9.204 3.165 3.034-.259 5.872-1.808 8.087-3.937 1.96-1.884 3.486-4.232 4.456-6.805.97 2.573 2.497 4.921 4.456 6.805 2.215 2.129 5.053 3.678 8.087 3.937 3.31.281 6.646-1.008 9.203-3.165 1.721-1.452 3.119-3.278 4.211-5.263 1.865-3.39 2.853-7.436 1.945-11.21-.502-2.084-1.555-3.996-2.817-5.714-1.868-2.543-4.191-4.695-6.474-6.859-2.922-2.77-5.807-5.59-8.431-8.655a69.186 69.186 0 01-10.147-15.77" fill="red"/></g></svg>