<svg xmlns="http://www.w3.org/2000/svg" width="234" height="333"><g transform="translate(0 -719.362)"><rect rx="8.919" ry="8.946" y="719.74" x=".378" height="332.244" width="233.244" fill="#fff" stroke="gray" stroke-width=".756"/><path d="M17.195 780.702a23.063 23.063 0 00-3.383-5.256c-.874-1.022-1.836-1.962-2.81-2.885-.761-.722-1.536-1.439-2.158-2.287-.42-.572-.772-1.21-.939-1.904-.303-1.258.027-2.607.648-3.737.364-.662.83-1.27 1.404-1.754.852-.72 1.965-1.149 3.068-1.055 1.011.086 1.957.602 2.695 1.312a6.173 6.173 0 011.486 2.268 6.173 6.173 0 011.485-2.268c.738-.71 1.684-1.226 2.696-1.312 1.103-.094 2.215.336 3.067 1.055.574.484 1.04 1.092 1.404 1.754.622 1.13.951 2.479.648 3.737-.167.694-.518 1.332-.939 1.904-.622.848-1.397 1.565-2.158 2.287-.974.923-1.935 1.863-2.81 2.885a23.062 23.062 0 00-3.383 5.256M216.784 991.022a23.063 23.063 0 01-3.383 5.257c-.875 1.021-1.836 1.961-2.81 2.885-.761.721-1.536 1.438-2.158 2.286-.42.573-.772 1.21-.94 1.904-.302 1.258.028 2.607.65 3.737.363.662.829 1.27 1.403 1.755.852.718 1.964 1.148 3.067 1.054 1.012-.086 1.958-.602 2.696-1.312a6.172 6.172 0 001.485-2.268c.324.858.833 1.64 1.486 2.268.738.71 1.684 1.226 2.695 1.312 1.103.094 2.216-.336 3.068-1.054.574-.484 1.04-1.093 1.404-1.755.621-1.13.95-2.479.648-3.737-.167-.694-.518-1.331-.939-1.904-.622-.848-1.397-1.565-2.158-2.286-.974-.924-1.936-1.864-2.81-2.885a23.062 23.062 0 01-3.383-5.257M116.967 814.076a69.186 69.186 0 00-10.147-15.77c-2.624-3.063-5.509-5.884-8.431-8.654-2.283-2.164-4.606-4.316-6.474-6.86-1.262-1.717-2.315-3.629-2.817-5.713-.908-3.774.08-7.82 1.945-11.21 1.092-1.985 2.49-3.811 4.21-5.263 2.558-2.156 5.895-3.446 9.204-3.165 3.034.259 5.872 1.808 8.087 3.937 1.96 1.884 3.486 4.232 4.456 6.805.97-2.573 2.497-4.921 4.456-6.805 2.215-2.129 5.053-3.678 8.087-3.937 3.31-.281 6.646 1.009 9.203 3.165 1.721 1.452 3.119 3.278 4.211 5.263 1.865 3.39 2.853 7.436 1.945 11.21-.502 2.084-1.555 3.996-2.817 5.714-1.868 2.543-4.191 4.695-6.474 6.859-2.922 2.77-5.807 5.59-8.431 8.655a69.187 69.187 0 00-10.147 15.77M116.967 914.199a69.186 69.186 0 00-10.147-15.77c-2.624-3.064-5.509-5.885-8.431-8.655-2.283-2.164-4.606-4.316-6.474-6.859-1.262-1.718-2.315-3.63-2.817-5.713-.908-3.774.08-7.82 1.945-11.21 1.092-1.986 2.49-3.812 4.21-5.263 2.558-2.157 5.895-3.447 9.204-3.165 3.034.258 5.872 1.808 8.087 3.936 1.96 1.884 3.486 4.232 4.456 6.805.97-2.573 2.497-4.92 4.456-6.805 2.215-2.128 5.053-3.678 8.087-3.936 3.31-.281 6.646 1.008 9.203 3.165 1.721 1.451 3.119 3.277 4.211 5.263 1.865 3.39 2.853 7.436 1.945 11.21-.502 2.084-1.555 3.995-2.817 5.713-1.868 2.543-4.191 4.695-6.474 6.86-2.922 2.77-5.807 5.59-8.431 8.654a69.186 69.186 0 00-10.147 15.77M116.967 957.648a69.186 69.186 0 01-10.147 15.77c-2.624 3.064-5.509 5.885-8.431 8.655-2.283 2.163-4.606 4.315-6.474 6.859-1.262 1.718-2.315 3.63-2.817 5.713-.908 3.774.08 7.82 1.945 11.21 1.092 1.986 2.49 3.812 4.21 5.263 2.558 2.157 5.895 3.446 9.204 3.165 3.034-.258 5.872-1.808 8.087-3.937 1.96-1.883 3.486-4.231 4.456-6.804.97 2.573 2.497 4.92 4.456 6.804 2.215 2.129 5.053 3.679 8.087 3.937 3.31.281 6.646-1.008 9.203-3.165 1.721-1.451 3.119-3.277 4.211-5.263 1.865-3.39 2.853-7.436 1.945-11.21-.502-2.084-1.555-3.995-2.817-5.713-1.868-2.544-4.191-4.696-6.474-6.86-2.922-2.77-5.807-5.59-8.431-8.654a69.186 69.186 0 01-10.147-15.77" fill="red"/><g style="line-height:0%;-inkscape-font-specification:'Sans Bold'"><path style="line-height:1.25" d="M26.62 747.517q0 3.94-2.813 6.065-2.539 1.932-6.65 1.932-9.366 0-9.366-8.692 0-.406.138-.773.295-.174.669-.174h2.557q.374 0 .69.174.097.27.156.638.335 2.395 1.378 3.477 1.16 1.197 3.561 1.197 1.967 0 3.207-1.043 1.299-1.12 1.299-3.013 0-4.018-4.467-4.713-.55-.078-.826-.232-.157-.31-.157-3.13 0-.366.177-.695 1.475-.425 2.95-.869 1.555-.695 1.555-2.917 0-3.36-4.013-3.36-1.85 0-2.893.888-.55.483-1.14 1.642-.434.888-.867.888H9.227q-.964 0-.964-.85 0-3.225 2.578-5.099 2.321-1.68 5.705-1.68 3.896 0 6.356 1.603 2.892 1.873 2.892 5.524 0 4.404-4.427 5.988 5.253 2.183 5.253 7.224z" font-size="39.925" aria-label="3" font-weight="700" font-family="Levenim MT" letter-spacing="0" word-spacing="0" fill="red"/></g><g style="line-height:0%;-inkscape-font-specification:'Sans Bold'"><path style="line-height:1.25" d="M207.38 1024.207q0-3.94 2.813-6.065 2.539-1.932 6.65-1.932 9.366 0 9.366 8.693 0 .405-.138.772-.295.174-.669.174h-2.557q-.374 0-.69-.174-.097-.27-.156-.637-.335-2.395-1.378-3.477-1.16-1.198-3.56-1.198-1.968 0-3.208 1.043-1.299 1.12-1.299 3.014 0 4.017 4.467 4.713.55.077.826.232.157.309.157 3.129 0 .367-.177.695-1.475.425-2.95.87-1.555.695-1.555 2.916 0 3.361 4.014 3.361 1.849 0 2.892-.889.55-.483 1.14-1.641.434-.889.867-.889h2.538q.964 0 .964.85 0 3.226-2.578 5.1-2.321 1.68-5.705 1.68-3.896 0-6.356-1.603-2.892-1.874-2.892-5.525 0-4.404 4.427-5.988-5.253-2.182-5.253-7.224z" font-size="39.925" aria-label="3" font-weight="700" font-family="Levenim MT" letter-spacing="0" word-spacing="0" fill="red"/></g></g></svg>