<svg xmlns="http://www.w3.org/2000/svg" width="234" height="333"><g transform="translate(0 -719.362)"><rect rx="8.919" ry="8.946" y="719.74" x=".378" height="332.244" width="233.244" fill="#fff" stroke="gray" stroke-width=".756"/><path d="M12.899 780.702c0-.556-.031-.958-.031-1.514h3.545v-2.737c-2.244.072-4.673.24-6.774-.687-1.627-.893-2.076-2.97-1.748-4.68.281-1.927 1.353-3.638 2.75-4.957 1.82-1.946 4.14-3.26 6.562-4.316 2.472 1.075 4.843 2.431 6.685 4.428 1.66 1.56 2.765 3.764 2.731 6.071.036 1.665-.995 3.425-2.697 3.789-1.904.527-3.83.434-5.785.352v2.737h3.353c0 .556.03.958.03 1.514a665.864 665.864 0 00-8.621 0zM212.488 991.022c0 .556-.031.958-.031 1.514h3.545v2.737c-2.244-.072-4.673-.239-6.774.687-1.627.893-2.076 2.971-1.748 4.68.28 1.927 1.352 3.639 2.75 4.957 1.82 1.946 4.14 3.26 6.562 4.316 2.472-1.075 4.843-2.431 6.685-4.428 1.66-1.56 2.765-3.763 2.731-6.07.036-1.666-.996-3.426-2.697-3.79-1.904-.527-3.83-.433-5.785-.352v-2.737h3.353c0-.556.03-.958.03-1.514-2.632.019-5.778.019-8.621 0zM45.71 814.076c0-1.668-.093-2.873-.093-4.541h10.634v-8.211c-6.732.216-14.017.716-20.321-2.061-4.88-2.679-6.227-8.913-5.243-14.038.842-5.783 4.057-10.918 8.25-14.873 5.458-5.838 12.418-9.778 19.684-12.949 7.417 3.224 14.53 7.294 20.057 13.285 4.978 4.678 8.295 11.29 8.193 18.212.108 4.996-2.987 10.276-8.093 11.367-5.71 1.581-11.49 1.3-17.354 1.057v8.21h10.058c0 1.67.093 2.874.093 4.542-7.897-.055-17.336-.055-25.866 0zM162.45 814.076c0-1.668-.092-2.873-.092-4.541h10.634v-8.211c-6.732.216-14.018.716-20.322-2.061-4.88-2.679-6.226-8.913-5.242-14.038.842-5.783 4.056-10.918 8.25-14.873 5.458-5.838 12.417-9.778 19.684-12.949 7.417 3.224 14.53 7.294 20.057 13.285 4.978 4.678 8.294 11.29 8.192 18.212.108 4.996-2.987 10.276-8.092 11.367-5.711 1.581-11.491 1.3-17.354 1.057v8.21h10.058c0 1.67.092 2.874.092 4.542-7.896-.055-17.336-.055-25.865 0zM104.08 914.199c0-1.669-.093-2.873-.093-4.542h10.635v-8.211c-6.732.217-14.018.717-20.322-2.061-4.88-2.678-6.227-8.913-5.243-14.038.842-5.783 4.057-10.918 8.25-14.873 5.458-5.837 12.418-9.778 19.684-12.948 7.417 3.224 14.53 7.293 20.057 13.285 4.978 4.677 8.295 11.289 8.193 18.211.108 4.997-2.987 10.277-8.092 11.367-5.711 1.582-11.492 1.301-17.354 1.057v8.211h10.058c0 1.669.092 2.873.092 4.542-7.897-.056-17.336-.056-25.865 0zM45.71 957.648c0 1.668-.093 2.873-.093 4.541h10.634v8.212c-6.732-.217-14.017-.717-20.321 2.06-4.88 2.679-6.227 8.913-5.243 14.039.842 5.782 4.057 10.918 8.25 14.873 5.458 5.837 12.418 9.778 19.684 12.948 7.417-3.224 14.53-7.294 20.057-13.285 4.978-4.678 8.295-11.29 8.193-18.212.108-4.996-2.987-10.276-8.093-11.366-5.71-1.582-11.49-1.301-17.354-1.057v-8.212h10.058c0-1.668.093-2.873.093-4.54-7.897.055-17.336.055-25.866 0zM162.45 957.648c0 1.668-.092 2.873-.092 4.541h10.634v8.212c-6.732-.217-14.018-.717-20.322 2.06-4.88 2.679-6.226 8.913-5.242 14.039.842 5.782 4.056 10.918 8.25 14.873 5.458 5.837 12.417 9.778 19.684 12.948 7.417-3.224 14.53-7.294 20.057-13.285 4.978-4.678 8.294-11.29 8.192-18.212.108-4.996-2.987-10.276-8.092-11.366-5.711-1.582-11.491-1.301-17.354-1.057v-8.212h10.058c0-1.668.092-2.873.092-4.54-7.896.055-17.336.055-25.865 0z"/><g style="line-height:0%;-inkscape-font-specification:'Sans Bold'"><path style="line-height:1.25" d="M26.62 745.958q0 4.386-2.637 6.971-2.618 2.585-6.962 2.585-4.169 0-6.593-2.056-2.637-2.193-2.637-6.325 0-.666 1.047-.666h2.54q.408 0 .757.117.116.196.155.51.33 2.212 1.26 3.172 1.047 1.077 3.22 1.077 2.171 0 3.51-1.547 1.26-1.469 1.26-3.682 0-5.463-4.48-5.463-1.629 0-3.277 1.135h-3.2q-.446 0-.853-.117-.194-.196-.194-.45 0-2.781.291-7.011l.504-7.03h14.544q.504 0 .911.156.175.392.175 2.742 0 .391-.039.646-.136.627-1.125.627h-10.53q.059 1.057-.174 3.23-.232 2.155-.174 3.212 1.997-1.253 4.169-1.253 3.995 0 6.322 2.742 2.21 2.585 2.21 6.678z" font-size="39.909" aria-label="5" font-weight="700" font-family="Levenim MT" letter-spacing="0" word-spacing="0"/></g><g style="line-height:0%;-inkscape-font-specification:'Sans Bold'"><path style="line-height:1.25" d="M207.38 1025.767q0-4.387 2.637-6.972 2.618-2.585 6.962-2.585 4.169 0 6.593 2.056 2.637 2.194 2.637 6.326 0 .666-1.047.666h-2.54q-.408 0-.757-.118-.116-.196-.155-.51-.33-2.212-1.26-3.172-1.047-1.077-3.22-1.077-2.171 0-3.51 1.547-1.26 1.47-1.26 3.682 0 5.464 4.48 5.464 1.629 0 3.277-1.136h3.2q.446 0 .853.117.194.196.194.45 0 2.782-.291 7.012l-.504 7.03h-14.544q-.504 0-.911-.157-.175-.392-.175-2.742 0-.391.039-.646.136-.626 1.125-.626h10.53q-.059-1.058.174-3.232.233-2.154.174-3.211-1.997 1.253-4.169 1.253-3.994 0-6.321-2.742-2.211-2.584-2.211-6.677z" font-size="39.909" aria-label="5" font-weight="700" font-family="Levenim MT" letter-spacing="0" word-spacing="0"/></g></g></svg>