<svg xmlns="http://www.w3.org/2000/svg" width="234" height="333"><rect width="233.244" height="332.244" x=".378" y=".378" ry="8.946" rx="8.919" fill="#fff" stroke="gray" stroke-width=".756" stroke-miterlimit="4.3"/><path d="M12.899 61.34c0-.556-.031-.958-.031-1.514h3.545V57.09c-2.244.072-4.673.239-6.774-.687-1.627-.893-2.076-2.97-1.748-4.68.281-1.927 1.353-3.639 2.75-4.957 1.82-1.946 4.14-3.26 6.562-4.316 2.472 1.075 4.843 2.431 6.685 4.428 1.66 1.56 2.765 3.763 2.731 6.07.036 1.666-.995 3.426-2.697 3.79-1.904.527-3.83.433-5.785.352v2.737h3.353c0 .556.03.958.03 1.514a665.864 665.864 0 00-8.621 0zM212.488 271.66c0 .556-.031.958-.031 1.514h3.545v2.737c-2.244-.072-4.673-.239-6.774.687-1.627.893-2.076 2.97-1.748 4.68.28 1.927 1.352 3.639 2.75 4.957 1.82 1.946 4.14 3.26 6.562 4.316 2.472-1.075 4.843-2.431 6.685-4.428 1.66-1.56 2.765-3.763 2.731-6.07.036-1.666-.996-3.426-2.697-3.79-1.904-.527-3.83-.433-5.785-.352v-2.737h3.353c0-.556.03-.958.03-1.514-2.632.019-5.778.019-8.621 0z"/><g style="line-height:0%;-inkscape-font-specification:'Sans Bold'"><path style="line-height:1.25" d="M26.62 36.152h-3.867l-1.528-5.837h-7.973l-1.594 5.837H7.79l7.534-28.337H19.1zm-6.79-11.096l-2.591-9.728-2.605 9.728z" font-size="104.24" aria-label="A" font-weight="700" font-family="Levenim MT" letter-spacing="0" word-spacing="0" stroke-width="3.181"/></g><g style="line-height:0%;-inkscape-font-specification:'Sans Bold'"><path style="line-height:1.25" d="M207.38 296.848h3.867l1.528 5.837h7.973l1.594-5.837h3.867l-7.534 28.337H214.9zm6.79 11.096l2.591 9.728 2.605-9.728z" font-size="104.24" aria-label="A" font-weight="700" font-family="Levenim MT" letter-spacing="0" word-spacing="0" stroke-width="3.181"/></g><path d="M49.302 202.548c-14.553-7.985-18.568-26.573-15.634-41.855 2.511-17.24 12.098-32.552 24.605-44.344 16.275-17.404 37.032-29.153 58.701-38.606 22.12 9.613 43.334 21.746 59.815 39.61 14.846 13.947 24.737 33.66 24.433 54.299.322 14.897-8.908 30.64-24.133 33.89-17.032 4.715-34.27 3.879-60.764 3.838-26.494-.04-48.222 1.45-67.023-6.832z" fill="#fff" stroke="#000" stroke-width="4.724"/><path d="M81.784 238.64v-12.438h27.602v-22.104c-18.148.585-36.588 2.033-53.583-5.47-13.156-7.234-16.786-24.073-14.134-37.917 2.27-15.619 10.937-29.489 22.243-40.171 14.713-15.767 33.476-26.41 53.065-34.974 19.995 8.709 39.172 19.7 54.071 35.882 13.42 12.635 22.362 30.493 22.087 49.19.291 13.495-8.053 27.757-21.816 30.701-15.396 4.272-30.9 3.514-46.705 2.855v22.008h27.602v12.437c-21.29-.15-70.432.043-70.432 0z"/><path d="M137.067 150.771c0 22.412-8.967 40.583-20.029 40.583-11.061 0-20.029-18.169-20.029-40.583 0-22.412 8.968-40.582 20.03-40.582 11.06 0 20.028 18.168 20.028 40.582z" fill="#fff"/><path d="M116.342 154.1c-1.816 1.383-2.22 1.847-3.224 3.377-.364.59-1.042 1.97-1.227 2.896-.186.926-.325 2.269-.324 2.98.002 2.41.769 3.922 1.606 3.87.748-.087 1.7-.867 3.142-2.64" fill-rule="evenodd" stroke="#000" stroke-width=".756"/><path d="M117.65 154.137c1.816 1.383 2.22 1.847 3.224 3.377.364.59 1.042 1.97 1.227 2.896.186.926.325 2.269.324 2.98-.002 2.41-.769 3.922-1.606 3.87-.748-.086-1.7-.867-3.142-2.64" fill-rule="evenodd" stroke="#000" stroke-width=".756" stroke-linejoin="bevel"/><path d="M93.222 149.57c-3.583-3.488-6.088-9.542-6.436-16.079-.38-7.204 3.414-14.358 9.091-18.436 6.365-4.484 17.006-5.723 23.623-5.389 4.482.003 14.465 2.329 17.989 4.956 6.181 4.498 9.496 10.883 9.726 18.16.34 7.31-2.737 12.878-6.504 16.353" fill="#fff" stroke="#000" stroke-width="1.134" stroke-linecap="round" stroke-linejoin="round"/><path d="M97.593 163.709c1.3 3.148 2.678 6.219 2.808 9.445-.598 2.602-.416 5.672.234 8.118.832 3.357 4.081 7.338 7.33 8.665 3.328 1.21 5.408 1.522 9.126 1.522" fill="#fff" stroke="#000" stroke-width="1.134"/><path d="M100.854 164.715c1.066 2.503 1.396 3.868 2.165 6.362.655 2.305.896 3.712 1.3 6.987" fill="none" stroke="#000" stroke-width="1.134"/><path d="M93.44 129.077c-1.452 1.272-1.268 3.183-1.007 6.036.207 2.168 1.589 4.302 1.661 6.282.508 4.179-.726 8.358-1.307 11.773-.4 3.925.727 7.304 2.179 8.612 1.452 1.29 3.326 1.825 5.296 2.426 1.79.468 2.717 1.283 4.07 2.293 1.613 1.713 1.997 3.13 1.961 4.874" fill="#fff" stroke="#000" stroke-width="1.134" stroke-linejoin="round"/><path d="M136.393 163.709c-1.3 3.148-2.677 6.219-2.807 9.445.597 2.602.416 5.672-.234 8.118-.832 3.357-4.12 7.22-7.37 8.548-3.25 1.327-5.33 1.64-9.048 1.64" fill="#fff" stroke="#000" stroke-width="1.134"/><path d="M106.006 171.503c2.631 1.616 7.181 1.382 11.257 1.309 4.541-.023 8.429-.352 10.981-1.897M106.371 175.396c3.042 1.913 6.62 2.57 10.74 2.415 4.28-.105 7.56-.465 10.492-2.47" fill="none" stroke="#000" stroke-width="1.134"/><g fill="none" stroke="#000" stroke-width="6.049"><path d="M229.89 385.64c17.367 20.948 41.608 24.585 69.173 25.315 29.519 1.077 59.166-10.645 66.819-25.314M240.704 350.947l.32 44.525M254.97 358.63l-.208 44.126M269.96 360.5l-.416 46.208M283.49 361.54l-.209 46.832M298.68 361.96v46.832M313.25 359.173l.208 49.409" transform="matrix(.18735 0 0 .18752 61.094 105.4)"/><path transform="matrix(.18735 0 0 .18752 61.016 105.4)" d="M326.78 360.5l.416 46"/><path d="M341.56 358l.208 44.126M357.14 350.013l-1.423 44.205" transform="matrix(.18735 0 0 .18752 61.094 105.4)"/></g><path d="M133.12 164.646c-1.066 2.503-1.464 3.799-2.233 6.293-.655 2.305-.896 3.712-1.3 6.987" fill="none" stroke="#000" stroke-width="1.134"/><path d="M100.9 143.571c2.522-.442 4.966-.728 7.487-1.015 3.302-.832 4.966 2.94 4.056 5.777-1.144 2.524-2.756 4.735-4.601 6.87-1.43 1.612-3.134 1.873-4.758 1.326-1.31-.364-2.522-1.17-3.822-3.044-.571-1.614-1.065-2.446-1.793-4.45-.572-1.847.317-4.613 3.432-5.464z" fill-rule="evenodd" stroke="#000" stroke-width=".756"/><path d="M140.726 128.967c1.453 1.272 1.27 3.184 1.008 6.037-.206 2.168-1.588 4.301-1.661 6.282-.508 4.179.726 8.357 1.307 11.773.4 3.924-.726 7.304-2.178 8.612-1.453 1.29-4.11 1.983-5.296 2.426-1.383.484-2.796 1.36-4.071 2.37-1.535 1.48-1.997 3.053-1.96 4.797" fill="#fff" stroke="#000" stroke-width="1.134" stroke-linejoin="round"/><path d="M133.14 143.571c-2.521-.442-4.965-.728-7.487-1.015-3.301-.832-4.965 2.94-4.055 5.777 1.144 2.524 2.755 4.735 4.601 6.87 1.43 1.612 3.133 1.873 4.758 1.326 1.31-.364 2.522-1.17 3.821-3.044.572-1.614 1.066-2.446 1.794-4.45.572-1.847-.318-4.613-3.432-5.464z" fill-rule="evenodd" stroke="#000" stroke-width=".756"/><path d="M103.942 207.513l-.15 13.543h-27.25v22.603h81.749v-22.603h-28.084v-12.069" fill="none" stroke="#000" stroke-width="4.724"/><rect width="3.147" height="5.564" x="106.194" y="206.893" rx="0" ry="0" fill="#fff"/><rect width="3.307" height="5.57" x="124.584" y="206.764" rx="0" ry="0" fill="#fff"/><g style="line-height:0%;-inkscape-font-specification:Sans" aria-label="IS DUTY PAID" font-weight="700" font-family="Levenim MT" letter-spacing="0" word-spacing="0" stroke-width="3.181" font-size="48"><path style="line-height:1.25;-inkscape-font-specification:'Levenim MT Bold'" d="M74.318 263.778h-2.045v-10.855h2.045zM82.49 260.974q0 1.402-.972 2.258-.926.82-2.346.82-2.302 0-3.479-2.355l1.729-1.048q.78 1.44 1.794 1.44.471 0 .839-.274.412-.295.412-.752 0-.48-.545-1.056-.213-.228-.926-.811-1.332-1.092-1.81-1.639-.985-1.114-.985-2.162 0-1.195.904-1.985.86-.76 2.067-.76 1.626 0 3.126 1.75l-1.522 1.35q-.802-1.122-1.633-1.122-.339 0-.61.177-.31.207-.31.531 0 .273.184.517.258.34 1.508 1.395 1.199 1.01 1.427 1.247 1.147 1.173 1.147 2.48zM98.075 258.502q0 2.568-1.56 4.051-.89.834-2.118 1.085-.72.14-2.427.14h-2.479v-10.855h2.442q2.03 0 3.119.42 1.427.554 2.28 2.074.743 1.321.743 3.085zm-2.082-.052q0-3.534-3.75-3.534h-.7v6.84h.957q1.199 0 1.794-.221.824-.31 1.295-1.196.404-.767.404-1.889zM107.298 259.395q0 1.343-.095 1.86-.17.937-.787 1.638-1.023 1.158-2.773 1.158-1.06 0-1.935-.472-.941-.517-1.36-1.432-.376-.811-.376-2.752v-6.472h2.067v7.025q0 .724.089 1.056.14.553.595.826.36.229.876.229 1.132 0 1.485-.893.147-.384.147-1.476v-6.767h2.067zM114.61 254.96h-1.972v8.818h-2.089v-8.818h-1.92v-2.037h5.98zM123.663 252.923l-3.162 6.155v4.7h-2.074v-4.7l-3.178-6.155h2.214l2.015 3.897 2-3.897zM136.83 256.074q0 1.1-.575 1.867-.573.768-1.625 1.07-.589.17-2.17.17v4.597h-2.06v-10.855h2.185q1.42 0 2.118.192 1.118.295 1.677 1.196.45.737.45 1.763zm-1.994 0q0-.627-.486-.915-.36-.214-1.309-.214h-.58v2.221h.654q1.228 0 1.552-.48.169-.25.169-.612zM148.399 263.778h-2.14l-.846-2.236h-4.414l-.882 2.236h-2.14l4.17-10.855h2.089zm-3.759-4.25l-1.434-3.727-1.442 3.727zM151.9 263.778h-2.045v-10.855h2.045zM162.8 258.502q0 2.568-1.56 4.051-.89.834-2.118 1.085-.72.14-2.427.14h-2.478v-10.855h2.441q2.03 0 3.12.42 1.426.554 2.28 2.074.742 1.321.742 3.085zm-2.081-.052q0-3.534-3.752-3.534h-.698v6.84h.956q1.199 0 1.794-.221.824-.31 1.295-1.196.405-.767.405-1.889z"/></g><g style="line-height:0%;-inkscape-font-specification:Sans" aria-label="LIVING A GOOD LIFE" font-weight="700" font-size="48" font-family="Levenim MT" letter-spacing="0" word-spacing="0" stroke-width="3.181"><path style="-inkscape-font-specification:'Levenim MT Bold'" d="M57.951 103.657l-3.315 3.836-8.174-7.112 1.35-1.561 6.69 5.821 1.966-2.275zM60.399 101.205l-1.441 1.455-7.677-7.65 1.441-1.455zM61.941 85.487l3.913 10.85-1.527 1.272-9.86-5.894 1.63-1.358 7.003 4.188-2.788-7.7zM71.849 91.875l-1.674 1.178-6.215-8.885 1.674-1.179zM81.066 85.875l-1.669 1.066-7.722-3.506 3.815 6.005-1.737 1.11-5.815-9.153 1.662-1.063 7.74 3.521-3.826-6.024 1.737-1.11zM90.202 74.954q.683 1.164.643 2.725-.074 3.024-2.831 4.532-1.447.791-2.924.801-1.537.009-2.894-.838-1.326-.82-2.076-2.2-1.028-1.893-.542-3.974.574-2.474 2.944-3.77 2.447-1.34 5.076-.449l-.586 1.96q-1.905-.623-3.513.257-1.375.752-1.831 2.179-.469 1.45.278 2.823.77 1.419 2.286 1.817 1.488.396 2.909-.381 1.853-1.014 1.728-3.063l-2.751 1.505-.926-1.704 4.779-2.615zM107.746 72.87l-1.984.805-1.62-1.755-4.09 1.66.017 2.405-1.984.805-.192-11.631 1.937-.786zm-5.073-2.527l-2.722-2.915.056 3.997zM125.047 65.81q-.07 1.35-.96 2.63-1.722 2.483-4.851 2.218-1.642-.14-2.88-.948-1.288-.842-1.955-2.299-.655-1.418-.523-2.984.18-2.147 1.729-3.616 1.837-1.747 4.527-1.519 2.777.235 4.482 2.431l-1.564 1.312q-1.248-1.572-3.073-1.727-1.561-.132-2.725.806-1.188.95-1.319 2.51-.135 1.61.91 2.78 1.025 1.153 2.637 1.29 2.104.178 3.125-1.602l-3.122-.264.162-1.934 5.424.46zM138.139 71.451q-.857 2.207-2.956 3.161-2.096.947-4.296.087-2.228-.87-3.151-3.006-.923-2.135-.056-4.37.561-1.443 1.726-2.39 1.165-.946 2.685-1.183 1.495-.232 2.907.32 2.193.857 3.103 3.027.895 2.147.038 4.354zm-1.914-.764q.556-1.43.004-2.794-.564-1.392-1.983-1.947-1.453-.568-2.777.079-1.3.624-1.87 2.088-.65 1.678.17 3.123.635 1.128 1.841 1.6 1.405.549 2.753-.097 1.31-.628 1.862-2.052zM149.942 77.18q-1.04 2.127-3.213 2.899-2.168.765-4.288-.278-2.146-1.057-2.886-3.263-.74-2.205.314-4.358.68-1.391 1.92-2.236 1.241-.844 2.776-.95 1.51-.105 2.87.565 2.113 1.04 2.836 3.28.71 2.215-.33 4.342zm-1.843-.923q.674-1.378.24-2.784-.445-1.435-1.812-2.108-1.4-.69-2.774-.158-1.348.512-2.039 1.923-.79 1.616-.095 3.126.538 1.177 1.7 1.75 1.354.666 2.751.137 1.358-.515 2.03-1.886zM159.334 82.866q-1.308 2.207-3.404 2.682-1.19.26-2.374-.154-.69-.25-2.157-1.125l-2.13-1.272 5.532-9.328 2.098 1.252q1.745 1.042 2.466 1.962.944 1.207.903 2.951-.035 1.516-.934 3.032zm-1.762-1.112q1.801-3.038-1.423-4.962l-.6-.358-3.486 5.878.822.49q1.03.616 1.655.731.866.157 1.721-.363.74-.452 1.31-1.416zM166.464 94.433l-4.048-3.046 6.493-8.683 1.648 1.24-5.315 7.107 2.4 1.806zM169.099 96.682l-1.563-1.324 6.981-8.293 1.562 1.323zM178.108 98.403l-2.412-2.306-3.359 3.537-1.475-1.41 7.464-7.859 3.887 3.716-1.385 1.459-2.412-2.306-1.355 1.426 2.412 2.306zM180.037 107.63l-4.013-4.347 7.937-7.377 4.013 4.347-1.478 1.374-2.624-2.842-1.435 1.334 2.624 2.842-1.452 1.349-2.624-2.842-2.088 1.94 2.624 2.843z"/></g><path d="M53.875 108.472c8.537-10.664 16.548-15.92 27.24-22.59 10.889-6.654 23.271-12.425 36.261-15.968 12.99 3.543 25.96 9.397 36.85 16.05 10.691 6.672 17.337 12.038 26.504 22.508" fill="none"/></svg>