<svg xmlns="http://www.w3.org/2000/svg" width="234" height="333"><g transform="translate(0 -719.362)"><rect rx="8.919" ry="8.946" y="719.74" x=".378" height="332.244" width="233.244" fill="#fff" stroke="gray" stroke-width=".756"/><path d="M12.899 780.702c0-.556-.031-.958-.031-1.514h3.545v-2.737c-2.244.072-4.673.24-6.774-.687-1.627-.893-2.076-2.97-1.748-4.68.281-1.927 1.353-3.638 2.75-4.957 1.82-1.946 4.14-3.26 6.562-4.316 2.472 1.075 4.843 2.431 6.685 4.428 1.66 1.56 2.765 3.764 2.731 6.071.036 1.665-.995 3.425-2.697 3.789-1.904.527-3.83.434-5.785.352v2.737h3.353c0 .556.03.958.03 1.514a665.864 665.864 0 00-8.621 0zM212.488 991.022c0 .556-.031.958-.031 1.514h3.545v2.737c-2.244-.072-4.673-.239-6.774.687-1.627.893-2.076 2.971-1.748 4.68.28 1.927 1.352 3.639 2.75 4.957 1.82 1.946 4.14 3.26 6.562 4.316 2.472-1.075 4.843-2.431 6.685-4.428 1.66-1.56 2.765-3.763 2.731-6.07.036-1.666-.996-3.426-2.697-3.79-1.904-.527-3.83-.433-5.785-.352v-2.737h3.353c0-.556.03-.958.03-1.514-2.632.019-5.778.019-8.621 0zM104.08 814.076c0-1.668-.093-2.873-.093-4.541h10.635v-8.211c-6.732.216-14.018.716-20.322-2.061-4.88-2.679-6.227-8.913-5.243-14.038.842-5.783 4.057-10.918 8.25-14.873 5.458-5.838 12.418-9.778 19.684-12.949 7.417 3.224 14.53 7.294 20.057 13.285 4.978 4.678 8.295 11.29 8.193 18.212.108 4.996-2.987 10.276-8.092 11.367-5.711 1.581-11.492 1.3-17.354 1.057v8.21h10.058c0 1.67.092 2.874.092 4.542-7.897-.055-17.336-.055-25.865 0zM104.08 914.199c0-1.669-.093-2.873-.093-4.542h10.635v-8.211c-6.732.217-14.018.717-20.322-2.061-4.88-2.678-6.227-8.913-5.243-14.038.842-5.783 4.057-10.918 8.25-14.873 5.458-5.837 12.418-9.778 19.684-12.948 7.417 3.224 14.53 7.293 20.057 13.285 4.978 4.677 8.295 11.289 8.193 18.211.108 4.997-2.987 10.277-8.092 11.367-5.711 1.582-11.492 1.301-17.354 1.057v8.211h10.058c0 1.669.092 2.873.092 4.542-7.897-.056-17.336-.056-25.865 0zM104.08 957.648c0 1.668-.093 2.873-.093 4.541h10.635v8.212c-6.732-.217-14.018-.717-20.322 2.06-4.88 2.679-6.227 8.913-5.243 14.039.842 5.782 4.057 10.918 8.25 14.873 5.458 5.837 12.418 9.778 19.684 12.948 7.417-3.224 14.53-7.294 20.057-13.285 4.978-4.678 8.295-11.29 8.193-18.212.108-4.996-2.987-10.276-8.092-11.366-5.711-1.582-11.492-1.301-17.354-1.057v-8.212h10.058c0-1.668.092-2.873.092-4.54-7.897.055-17.336.055-25.865 0z"/><g style="line-height:0%;-inkscape-font-specification:'Sans Bold'"><path style="line-height:1.25" d="M26.62 747.517q0 3.94-2.813 6.065-2.539 1.932-6.65 1.932-9.366 0-9.366-8.692 0-.406.138-.773.295-.174.669-.174h2.557q.374 0 .69.174.097.27.156.638.335 2.395 1.378 3.477 1.16 1.197 3.561 1.197 1.967 0 3.207-1.043 1.299-1.12 1.299-3.013 0-4.018-4.467-4.713-.55-.078-.826-.232-.157-.31-.157-3.13 0-.366.177-.695 1.475-.425 2.95-.869 1.555-.695 1.555-2.917 0-3.36-4.013-3.36-1.85 0-2.893.888-.55.483-1.14 1.642-.434.888-.867.888H9.227q-.964 0-.964-.85 0-3.225 2.578-5.099 2.321-1.68 5.705-1.68 3.896 0 6.356 1.603 2.892 1.873 2.892 5.524 0 4.404-4.427 5.988 5.253 2.183 5.253 7.224z" font-size="39.925" aria-label="3" font-weight="700" font-family="Levenim MT" letter-spacing="0" word-spacing="0"/></g><g style="line-height:0%;-inkscape-font-specification:'Sans Bold'"><path style="line-height:1.25" d="M207.38 1024.207q0-3.94 2.813-6.065 2.538-1.932 6.65-1.932 9.366 0 9.366 8.692 0 .406-.138.773-.295.174-.669.174h-2.557q-.374 0-.69-.174-.097-.27-.156-.637-.335-2.396-1.378-3.477-1.16-1.198-3.561-1.198-1.967 0-3.207 1.043-1.299 1.12-1.299 3.014 0 4.017 4.467 4.713.55.077.826.231.157.31.157 3.13 0 .367-.177.695-1.475.425-2.95.87-1.555.695-1.555 2.916 0 3.36 4.013 3.36 1.85 0 2.893-.888.55-.483 1.14-1.642.434-.888.867-.888h2.538q.964 0 .964.85 0 3.226-2.578 5.1-2.321 1.68-5.705 1.68-3.896 0-6.356-1.603-2.892-1.874-2.892-5.525 0-4.404 4.427-5.988-5.253-2.182-5.253-7.224z" font-size="39.925" aria-label="3" font-weight="700" font-family="Levenim MT" letter-spacing="0" word-spacing="0"/></g></g></svg>