<svg xmlns="http://www.w3.org/2000/svg" width="234" height="333"><g transform="translate(0 -719.362)"><rect rx="8.919" ry="8.946" y="719.74" x=".378" height="332.244" width="233.244" fill="#fff" stroke="gray" stroke-width=".756"/><path d="M12.899 780.702c0-.556-.031-.958-.031-1.514h3.545v-2.737c-2.244.072-4.673.24-6.774-.687-1.627-.893-2.076-2.97-1.748-4.68.281-1.927 1.353-3.638 2.75-4.957 1.82-1.946 4.14-3.26 6.562-4.316 2.472 1.075 4.843 2.431 6.685 4.428 1.66 1.56 2.765 3.764 2.731 6.071.036 1.665-.995 3.425-2.697 3.789-1.904.527-3.83.434-5.785.352v2.737h3.353c0 .556.03.958.03 1.514a665.864 665.864 0 00-8.621 0zM212.488 991.022c0 .556-.031.958-.031 1.514h3.545v2.737c-2.244-.072-4.673-.239-6.774.687-1.627.893-2.076 2.971-1.748 4.68.28 1.927 1.352 3.639 2.75 4.957 1.82 1.946 4.14 3.26 6.562 4.316 2.472-1.075 4.843-2.431 6.685-4.428 1.66-1.56 2.765-3.763 2.731-6.07.036-1.666-.996-3.426-2.697-3.79-1.904-.527-3.83-.433-5.785-.352v-2.737h3.353c0-.556.03-.958.03-1.514-2.632.019-5.778.019-8.621 0zM45.71 814.076c0-1.668-.093-2.873-.093-4.541h10.634v-8.211c-6.732.216-14.017.716-20.321-2.061-4.88-2.679-6.227-8.913-5.243-14.038.842-5.783 4.057-10.918 8.25-14.873 5.458-5.838 12.418-9.778 19.684-12.949 7.417 3.224 14.53 7.294 20.057 13.285 4.978 4.678 8.295 11.29 8.193 18.212.108 4.996-2.987 10.276-8.093 11.367-5.71 1.581-11.49 1.3-17.354 1.057v8.21h10.058c0 1.67.093 2.874.093 4.542-7.897-.055-17.336-.055-25.866 0zM162.45 814.076c0-1.668-.092-2.873-.092-4.541h10.634v-8.211c-6.732.216-14.018.716-20.322-2.061-4.88-2.679-6.226-8.913-5.242-14.038.842-5.783 4.056-10.918 8.25-14.873 5.458-5.838 12.417-9.778 19.684-12.949 7.417 3.224 14.53 7.294 20.057 13.285 4.978 4.678 8.294 11.29 8.192 18.212.108 4.996-2.987 10.276-8.092 11.367-5.711 1.581-11.491 1.3-17.354 1.057v8.21h10.058c0 1.67.092 2.874.092 4.542-7.896-.055-17.336-.055-25.865 0zM45.71 957.648c0 1.668-.093 2.873-.093 4.541h10.634v8.212c-6.732-.217-14.017-.717-20.321 2.06-4.88 2.679-6.227 8.913-5.243 14.039.842 5.782 4.057 10.918 8.25 14.873 5.458 5.837 12.418 9.778 19.684 12.948 7.417-3.224 14.53-7.294 20.057-13.285 4.978-4.678 8.295-11.29 8.193-18.212.108-4.996-2.987-10.276-8.093-11.366-5.71-1.582-11.49-1.301-17.354-1.057v-8.212h10.058c0-1.668.093-2.873.093-4.54-7.897.055-17.336.055-25.866 0zM162.45 957.648c0 1.668-.092 2.873-.092 4.541h10.634v8.212c-6.732-.217-14.018-.717-20.322 2.06-4.88 2.679-6.226 8.913-5.242 14.039.842 5.782 4.056 10.918 8.25 14.873 5.458 5.837 12.417 9.778 19.684 12.948 7.417-3.224 14.53-7.294 20.057-13.285 4.978-4.678 8.294-11.29 8.192-18.212.108-4.996-2.987-10.276-8.092-11.366-5.711-1.582-11.491-1.301-17.354-1.057v-8.212h10.058c0-1.668.092-2.873.092-4.54-7.896.055-17.336.055-25.865 0z"/><g style="line-height:0%;-inkscape-font-specification:'Sans Bold'"><path style="line-height:1.25" d="M26.62 754.512q0 .413-.138.806-.31.196-.655.196h-11.07q-1.276 0-1.276-1.474 0-.236.035-.825.034-.59.034-.904 0-.688.259-.884.19-.138.845-.138h4.31v-3.026H9.291q-1.5 0-1.5-1.592 0-.275.052-1.002.051-.747.051-1.18 0-.667.673-1.67l9.966-14.934q.466-.707 1.173-.707h2.276q.81 0 .81 1.021v16.035q.621 0 1.414-.039.81-.04 1.035-.04.93 0 1.155.531.224.511.224 2.555 0 .373-.052.57-.103.452-.793.452h-2.983v3.026q.638 0 1.449-.04.81-.038 1.017-.038.983 0 1.19.57.172.471.172 2.73zm-7.587-21.027q-.948 1.651-7 10.75h6.931q0-1.042-.034-3.577-.052-2.3-.035-3.596.018-1.965.138-3.577z" font-size="37.699" aria-label="4" font-weight="700" font-family="Levenim MT" letter-spacing="0" word-spacing="0"/></g><g style="line-height:0%;-inkscape-font-specification:'Sans Bold'"><path style="line-height:1.25" d="M207.38 1017.212q0-.412.138-.805.31-.197.655-.197h11.07q1.276 0 1.276 1.474 0 .236-.035.825-.034.59-.034.904 0 .688-.259.885-.19.137-.845.137h-4.31v3.026h9.673q1.5 0 1.5 1.592 0 .275-.052 1.002-.051.747-.051 1.18 0 .668-.673 1.67l-9.966 14.934q-.466.708-1.173.708h-2.276q-.81 0-.81-1.022v-16.035q-.62 0-1.414.04-.81.038-1.035.038-.93 0-1.155-.53-.224-.511-.224-2.555 0-.373.052-.57.103-.452.793-.452h2.983v-3.026q-.638 0-1.449.04-.81.039-1.017.039-.983 0-1.19-.57-.172-.472-.172-2.732zm7.587 21.027q.948-1.65 7-10.75h-6.931q0 1.042.034 3.577.052 2.3.035 3.596-.018 1.965-.138 3.577z" font-size="37.699" aria-label="4" font-weight="700" font-family="Levenim MT" letter-spacing="0" word-spacing="0"/></g></g></svg>