<svg xmlns="http://www.w3.org/2000/svg" width="234" height="333"><g transform="translate(0 -719.362)"><rect rx="8.919" ry="8.946" y="719.74" x=".378" height="332.244" width="233.244" fill="#fff" stroke="gray" stroke-width=".756"/><path d="M12.899 780.702c0-.556-.031-.958-.031-1.514h3.545v-2.737c-2.244.072-4.673.24-6.774-.687-1.627-.893-2.076-2.97-1.748-4.68.281-1.927 1.353-3.638 2.75-4.957 1.82-1.946 4.14-3.26 6.562-4.316 2.472 1.075 4.843 2.431 6.685 4.428 1.66 1.56 2.765 3.764 2.731 6.071.036 1.665-.995 3.425-2.697 3.789-1.904.527-3.83.434-5.785.352v2.737h3.353c0 .556.03.958.03 1.514a665.864 665.864 0 00-8.621 0zM212.488 991.022c0 .556-.031.958-.031 1.514h3.545v2.737c-2.244-.072-4.673-.239-6.774.687-1.627.893-2.076 2.971-1.748 4.68.28 1.927 1.352 3.639 2.75 4.957 1.82 1.946 4.14 3.26 6.562 4.316 2.472-1.075 4.843-2.431 6.685-4.428 1.66-1.56 2.765-3.763 2.731-6.07.036-1.666-.996-3.426-2.697-3.79-1.904-.527-3.83-.433-5.785-.352v-2.737h3.353c0-.556.03-.958.03-1.514-2.632.019-5.778.019-8.621 0zM104.08 814.076c0-1.668-.093-2.873-.093-4.541h10.635v-8.211c-6.732.216-14.018.716-20.322-2.061-4.88-2.679-6.227-8.913-5.243-14.038.842-5.783 4.057-10.918 8.25-14.873 5.458-5.838 12.418-9.778 19.684-12.949 7.417 3.224 14.53 7.294 20.057 13.285 4.978 4.678 8.295 11.29 8.193 18.212.108 4.996-2.987 10.276-8.092 11.367-5.711 1.581-11.492 1.3-17.354 1.057v8.21h10.058c0 1.67.092 2.874.092 4.542-7.897-.055-17.336-.055-25.865 0zM104.08 957.648c0 1.668-.093 2.873-.093 4.541h10.635v8.212c-6.732-.217-14.018-.717-20.322 2.06-4.88 2.679-6.227 8.913-5.243 14.039.842 5.782 4.057 10.918 8.25 14.873 5.458 5.837 12.418 9.778 19.684 12.948 7.417-3.224 14.53-7.294 20.057-13.285 4.978-4.678 8.295-11.29 8.193-18.212.108-4.996-2.987-10.276-8.092-11.366-5.711-1.582-11.492-1.301-17.354-1.057v-8.212h10.058c0-1.668.092-2.873.092-4.54-7.897.055-17.336.055-25.865 0z"/><g style="line-height:0%;-inkscape-font-specification:'Sans Bold'"><path style="line-height:1.25" d="M26.488 749.757l-.697 5.757h-18q.415-4.954 3.845-8.754l6.107-5.404q3.185-2.86 3.185-5.738 0-1.92-1.055-3.055-1.037-1.156-2.865-1.156-2.111 0-3.148 1.175-.678.784-1.037 2.41-.358 1.722-.565 1.997-.302.098-.697.098H9.186q-.415 0-.716-.177-.132-.41-.132-.92 0-4.093 2.582-6.502 2.469-2.31 6.427-2.31 3.675 0 6.012 2.036 2.488 2.154 2.488 5.914 0 3.701-2.751 6.776-.962 1.097-5.466 4.68-3.28 2.644-4.034 4.759h8.783l.151-1.763q.207-.94 1.112-.94h1.885q1.093 0 .961 1.117z" font-size="39.346" aria-label="2" font-weight="700" font-family="Levenim MT" letter-spacing="0" word-spacing="0"/></g><g style="line-height:0%;-inkscape-font-specification:'Sans Bold'"><path style="line-height:1.25" d="M207.512 1021.968l.697-5.758h18q-.415 4.955-3.845 8.754l-6.107 5.405q-3.185 2.859-3.185 5.737 0 1.92 1.055 3.055 1.037 1.156 2.865 1.156 2.111 0 3.148-1.175.678-.783 1.037-2.409.358-1.723.565-1.997.302-.098.697-.098h2.375q.415 0 .716.176.132.411.132.92 0 4.093-2.582 6.502-2.469 2.31-6.427 2.31-3.675 0-6.012-2.036-2.488-2.154-2.488-5.914 0-3.7 2.751-6.775.962-1.097 5.466-4.68 3.28-2.645 4.034-4.76h-8.783l-.151 1.763q-.207.94-1.112.94h-1.885q-1.093 0-.961-1.116z" font-size="39.346" aria-label="2" font-weight="700" font-family="Levenim MT" letter-spacing="0" word-spacing="0"/></g></g></svg>