<svg xmlns="http://www.w3.org/2000/svg" width="234" height="333"><g transform="translate(0 -719.362)"><rect rx="8.919" ry="8.946" y="719.74" x=".378" height="332.244" width="233.244" fill="#fff" stroke="gray" stroke-width=".756"/><path d="M45.71 880.825c0-1.669-.093-2.874-.093-4.542h10.634v-8.211c-6.732.217-14.017.717-20.321-2.061-4.88-2.678-6.227-8.913-5.243-14.038.842-5.783 4.057-10.918 8.25-14.873 5.458-5.837 12.418-9.778 19.684-12.949 7.417 3.225 14.53 7.294 20.057 13.285 4.978 4.678 8.295 11.29 8.193 18.212.108 4.997-2.987 10.277-8.093 11.367-5.71 1.581-11.49 1.3-17.354 1.057v8.211h10.058c0 1.668.093 2.873.093 4.542-7.897-.056-17.336-.056-25.866 0z"/><g style="line-height:0%;-inkscape-font-specification:'Sans Bold'"><path style="line-height:1.25" d="M17.206 754.495q0 .49-.092.862-.245.157-.531.157H9.047q-.674 0-.674-1.372 0-.235.02-.744.02-.53.02-.804 0-1.293.593-1.293h2.543v-18.107H8.445q-.654 0-.654-1.372 0-.294.03-.94.041-.667.041-1 0-.666.654-.666.184 0 .694.078.51.059.797.059 1.634 0 1.98-2.175h1.951V751.3q.684 0 1.47-.079.797-.098.95-.098.592 0 .735.608.113.53.113 2.763z" font-size="28.97" aria-label="1" font-weight="700" font-family="Levenim MT" letter-spacing="0" word-spacing="0"/></g><g style="line-height:0%;-inkscape-font-specification:'Sans Bold'"><path style="line-height:1.25" d="M26.62 741.684q0 13.83-4.674 13.83-4.74 0-4.74-13.907 0-14.43 4.834-14.43 4.58 0 4.58 14.507zm-2.455-.406q0-9.909-2.257-9.909-1.322 0-1.879 3.921-.35 2.473-.35 6.162 0 9.91 2.23 9.91 1.33 0 1.897-3.903.359-2.51.359-6.18z" font-size="27.659" aria-label="0" font-weight="700" font-family="Levenim MT" letter-spacing="0" word-spacing="0"/></g><g style="line-height:0%;-inkscape-font-specification:'Sans Bold'"><path style="line-height:1.25" d="M216.794 1017.23q0-.49.092-.863.245-.157.531-.157h7.536q.674 0 .674 1.372 0 .235-.02.745-.02.529-.02.803 0 1.294-.593 1.294h-2.543v18.107h3.104q.654 0 .654 1.371 0 .294-.03.941-.041.666-.041 1 0 .666-.654.666-.184 0-.694-.079-.51-.058-.797-.058-1.634 0-1.98 2.175h-1.951v-24.123q-.684 0-1.47.078-.797.098-.95.098-.592 0-.735-.608-.113-.529-.113-2.763z" font-size="28.97" aria-label="1" font-weight="700" font-family="Levenim MT" letter-spacing="0" word-spacing="0"/></g><g style="line-height:0%;-inkscape-font-specification:'Sans Bold'"><path style="line-height:1.25" d="M207.38 1030.04q0-13.83 4.674-13.83 4.74 0 4.74 13.908 0 14.429-4.834 14.429-4.58 0-4.58-14.506zm2.455.406q0 9.91 2.257 9.91 1.322 0 1.879-3.922.35-2.472.35-6.162 0-9.909-2.23-9.909-1.33 0-1.897 3.902-.359 2.511-.359 6.181z" font-size="27.659" aria-label="0" font-weight="700" font-family="Levenim MT" letter-spacing="0" word-spacing="0"/></g><path d="M45.71 890.9c0 1.668-.093 2.873-.093 4.541h10.634v8.211c-6.732-.216-14.017-.716-20.321 2.061-4.88 2.679-6.227 8.913-5.243 14.038.842 5.783 4.057 10.918 8.25 14.873 5.458 5.838 12.418 9.778 19.684 12.949 7.417-3.224 14.53-7.294 20.057-13.285 4.978-4.678 8.295-11.29 8.193-18.212.108-4.996-2.987-10.276-8.093-11.367-5.71-1.581-11.49-1.3-17.354-1.057v-8.211h10.058c0-1.668.093-2.873.093-4.541-7.897.055-17.336.055-25.866 0zM162.45 880.825c0-1.669-.092-2.874-.092-4.542h10.634v-8.211c-6.732.217-14.018.717-20.322-2.061-4.88-2.678-6.226-8.913-5.242-14.038.842-5.783 4.056-10.918 8.25-14.873 5.458-5.837 12.417-9.778 19.684-12.949 7.417 3.225 14.53 7.294 20.057 13.285 4.978 4.678 8.294 11.29 8.192 18.212.108 4.997-2.987 10.277-8.092 11.367-5.711 1.581-11.491 1.3-17.354 1.057v8.211h10.058c0 1.668.092 2.873.092 4.542-7.896-.056-17.336-.056-25.865 0zM162.45 814.076c0-1.668-.092-2.873-.092-4.541h10.634v-8.211c-6.732.216-14.018.716-20.322-2.061-4.88-2.679-6.226-8.913-5.242-14.038.842-5.783 4.056-10.918 8.25-14.873 5.458-5.838 12.417-9.778 19.684-12.949 7.417 3.224 14.53 7.294 20.057 13.285 4.978 4.678 8.294 11.29 8.192 18.212.108 4.996-2.987 10.276-8.092 11.367-5.711 1.581-11.491 1.3-17.354 1.057v8.211h10.058c0 1.668.092 2.873.092 4.541-7.896-.055-17.336-.055-25.865 0zM45.71 814.076c0-1.668-.093-2.873-.093-4.541h10.634v-8.211c-6.732.216-14.017.716-20.321-2.061-4.88-2.679-6.227-8.913-5.243-14.038.842-5.783 4.057-10.918 8.25-14.873 5.458-5.838 12.418-9.778 19.684-12.949 7.417 3.224 14.53 7.294 20.057 13.285 4.978 4.678 8.295 11.29 8.193 18.212.108 4.996-2.987 10.276-8.093 11.367-5.71 1.581-11.49 1.3-17.354 1.057v8.211h10.058c0 1.668.093 2.873.093 4.541-7.897-.055-17.336-.055-25.866 0zM104.08 847.45c0-1.668-.093-2.873-.093-4.54h10.635v-8.212c-6.732.217-14.018.717-20.322-2.061-4.88-2.678-6.227-8.913-5.243-14.038.842-5.783 4.057-10.918 8.25-14.873 5.458-5.838 12.418-9.778 19.684-12.949 7.417 3.225 14.53 7.294 20.057 13.285 4.978 4.678 8.295 11.29 8.193 18.212.108 4.996-2.987 10.276-8.092 11.367-5.711 1.581-11.492 1.3-17.354 1.057v8.211h10.058c0 1.668.092 2.873.092 4.541-7.897-.055-17.336-.055-25.865 0zM12.899 780.702c0-.556-.031-.958-.031-1.514h3.545v-2.737c-2.244.072-4.673.24-6.774-.687-1.627-.893-2.076-2.97-1.748-4.68.281-1.927 1.353-3.638 2.75-4.957 1.82-1.946 4.14-3.26 6.562-4.316 2.472 1.075 4.843 2.431 6.685 4.428 1.66 1.56 2.765 3.764 2.731 6.071.036 1.665-.995 3.425-2.697 3.789-1.904.527-3.83.434-5.785.352v2.737h3.353c0 .556.03.958.03 1.514a669.463 669.463 0 00-8.621 0zM45.71 957.648c0 1.668-.093 2.873-.093 4.541h10.634v8.212c-6.732-.217-14.017-.717-20.321 2.06-4.88 2.679-6.227 8.913-5.243 14.039.842 5.782 4.057 10.918 8.25 14.873 5.458 5.837 12.418 9.778 19.684 12.948 7.417-3.224 14.53-7.294 20.057-13.285 4.978-4.678 8.295-11.29 8.193-18.212.108-4.996-2.987-10.276-8.093-11.366-5.71-1.582-11.49-1.301-17.354-1.057v-8.212h10.058c0-1.668.093-2.873.093-4.54-7.897.055-17.336.055-25.866 0zM104.08 924.274c0 1.668-.093 2.873-.093 4.541h10.635v8.212c-6.732-.217-14.018-.717-20.322 2.06-4.88 2.679-6.227 8.913-5.243 14.039.842 5.782 4.057 10.918 8.25 14.873 5.458 5.837 12.418 9.777 19.684 12.948 7.417-3.224 14.53-7.294 20.057-13.285 4.978-4.678 8.295-11.29 8.193-18.212.108-4.996-2.987-10.276-8.092-11.366-5.711-1.582-11.492-1.301-17.354-1.057v-8.212h10.058c0-1.668.092-2.873.092-4.541-7.897.056-17.336.056-25.865 0zM162.45 957.648c0 1.668-.092 2.873-.092 4.541h10.634v8.212c-6.732-.217-14.018-.717-20.322 2.06-4.88 2.679-6.226 8.913-5.242 14.039.842 5.782 4.056 10.918 8.25 14.873 5.458 5.837 12.417 9.777 19.684 12.948 7.417-3.224 14.53-7.294 20.057-13.285 4.977-4.678 8.294-11.29 8.192-18.212.108-4.996-2.987-10.276-8.092-11.366-5.711-1.582-11.491-1.301-17.354-1.057v-8.212h10.058c0-1.668.092-2.873.092-4.54-7.897.055-17.336.055-25.865 0zM162.45 890.9c0 1.668-.092 2.873-.092 4.541h10.634v8.211c-6.732-.216-14.017-.716-20.322 2.061-4.88 2.679-6.226 8.913-5.242 14.038.842 5.783 4.057 10.918 8.25 14.873 5.458 5.838 12.417 9.778 19.684 12.949 7.417-3.224 14.53-7.294 20.057-13.285 4.978-4.678 8.294-11.29 8.192-18.212.108-4.996-2.987-10.276-8.092-11.367-5.71-1.581-11.491-1.3-17.354-1.057v-8.211h10.058c0-1.668.092-2.873.092-4.541-7.896.055-17.335.055-25.865 0zM212.488 991.022c0 .556-.031.958-.031 1.514h3.545v2.737c-2.244-.072-4.673-.239-6.774.687-1.627.893-2.076 2.971-1.748 4.68.28 1.927 1.352 3.639 2.75 4.957 1.82 1.946 4.14 3.26 6.562 4.316 2.472-1.075 4.843-2.431 6.685-4.428 1.66-1.56 2.765-3.763 2.731-6.07.036-1.666-.996-3.426-2.697-3.79-1.904-.527-3.83-.433-5.785-.352v-2.737h3.353c0-.556.03-.958.03-1.514-2.632.019-5.778.019-8.621 0z"/></g></svg>